<svg version="1.1" xmlns="http://www.w3.org/2000/svg" xmlns:xlink="http://www.w3.org/1999/xlink" width="75.80614" height="133.29904" viewBox="0,0,75.80614,133.29904"><g transform="translate(-202.09693,-113.35048)"><g data-paper-data="{&quot;isPaintingLayer&quot;:true}" fill-rule="nonzero" stroke-linecap="butt" stroke-linejoin="miter" stroke-miterlimit="10" stroke-dasharray="" stroke-dashoffset="0" style="mix-blend-mode: normal"><path d="M204.34693,244.39952v-128.79904h71.30614v128.79904z" fill="#dedede" stroke="#000000" stroke-width="4.5"/><path d="M209.25,150v-29.83334h19.66666v29.83334z" fill="#ff2d2d" stroke="#000000" stroke-width="1"/><path d="M231.58334,150v-29.83334h19.66666v29.83334z" fill="#ffa72e" stroke="#000000" stroke-width="1"/><path d="M209.08334,181.66667v-29.83334h19.66666v29.83334z" fill="#ffe42e" stroke="#000000" stroke-width="1"/><path d="M231.41667,181.66667v-29.83334h19.66666v29.83334z" fill="#29e65c" stroke="#000000" stroke-width="1"/><g stroke="#000000" stroke-width="0.5"><path d="M235.46184,166.73654c0,6.63083 -3.81275,12.0062 -8.51603,12.0062c-4.70326,0 -8.51603,-5.37536 -8.51603,-12.0062c0,-6.63083 3.81275,-12.0062 8.51603,-12.0062c4.70326,0 8.51603,5.37536 8.51603,12.0062z" fill="#ffffff"/><path d="M230.69127,168.60191c0,4.01174 -1.7277,7.2639 -3.85895,7.2639c-2.13125,0 -3.85895,-3.25216 -3.85895,-7.2639c0,-4.01174 1.7277,-7.2639 3.85895,-7.2639c2.13125,0 3.85895,3.25216 3.85895,7.2639z" fill="#000000"/></g><text transform="translate(214.55507,233.1798) rotate(-0.41793) scale(0.25829,0.25829)" font-size="40" xml:space="preserve" fill="#000000" fill-rule="nonzero" stroke="none" stroke-width="1" stroke-linecap="butt" stroke-linejoin="miter" stroke-miterlimit="10" stroke-dasharray="" stroke-dashoffset="0" font-family="Sans Serif" font-weight="normal" text-anchor="start" style="mix-blend-mode: normal"><tspan x="0" dy="0">Акварель</tspan></text><g stroke="#000000" stroke-width="0.5"><path d="M262.79517,167.23654c0,6.63083 -3.81275,12.0062 -8.51603,12.0062c-4.70327,0 -8.51603,-5.37536 -8.51603,-12.0062c0,-6.63083 3.81275,-12.0062 8.51603,-12.0062c4.70326,0 8.51603,5.37536 8.51603,12.0062z" fill="#ffffff"/><path d="M258.0246,169.10191c0,4.01174 -1.7277,7.2639 -3.85895,7.2639c-2.13125,0 -3.85895,-3.25216 -3.85895,-7.2639c0,-4.01174 1.7277,-7.2639 3.85895,-7.2639c2.13124,0 3.85895,3.25216 3.85895,7.2639z" fill="#000000"/></g><path d="M209.25,213.5v-29.83334h19.66666v29.83334z" fill="#2ee1ff" stroke="#000000" stroke-width="1"/><path d="M231.58334,213.33333v-29.83334h19.66666v29.83334z" fill="#2e52ff" stroke="#000000" stroke-width="1"/></g></g></svg>