<svg version="1.1" xmlns="http://www.w3.org/2000/svg" xmlns:xlink="http://www.w3.org/1999/xlink" width="109.86644" height="132.35884" viewBox="0,0,109.86644,132.35884"><g transform="translate(-191.56678,-112.82058)"><g data-paper-data="{&quot;isPaintingLayer&quot;:true}" fill-rule="nonzero" stroke="none" stroke-linecap="butt" stroke-linejoin="miter" stroke-miterlimit="10" stroke-dasharray="" stroke-dashoffset="0" style="mix-blend-mode: normal"><path d="M196.17146,235.27265c-3.96145,0 -3.96145,-5.96693 -3.96145,-5.96693l0.03059,-1.13187c-1.05048,-12.95099 -0.34129,-26.5588 -0.34129,-39.58367c0,0 0,-5.96693 3.96145,-5.96693c3.96145,0 3.96145,5.96693 3.96145,5.96693c0,12.48775 -0.77829,25.69159 0.28011,38.10346l0.03059,2.61209c0,0 0,5.96693 -3.96145,5.96693z" fill="#51cabb" stroke-width="0.5"/><path d="M223.83383,244.79433c-3.75816,1.88691 -5.01088,-3.77382 -5.01088,-3.77382l-0.51399,-3.29089c0,-7.4331 0.7823,-14.30118 1.26247,-21.6535c0,0 0.39418,-5.93732 4.33597,-5.34359c3.94179,0.59373 3.54761,6.53105 3.54761,6.53105c-0.47014,6.98089 -1.22315,13.42556 -1.22315,20.46603l0.10741,-0.48293c0,0 1.25272,5.66073 -2.50544,7.54764z" fill="#51cabb" stroke-width="0.5"/><path d="M295.27541,238.7104c-3.75816,-1.88691 -2.50544,-7.54764 -2.50544,-7.54764l0.44871,-1.66117c0.42951,-5.03682 0.28011,-10.09707 0.28011,-15.17172c0,0 0,-5.96693 3.96145,-5.96693c3.96145,0 3.96145,5.96693 3.96145,5.96693c0,5.58351 0.10874,11.10368 -0.34129,16.65193l-0.7941,3.95477c0,0 -1.25272,5.66073 -5.01088,3.77382z" fill="#51cabb" stroke-width="0.5"/><path d="M274.12891,232.75452c-3.84317,-1.44719 -2.88238,-7.23597 -2.88238,-7.23597l0.19242,-0.42479c0.00433,-2.43656 -0.10408,-4.87594 -0.28647,-7.29697c0,0 -0.43747,-5.93044 3.49975,-6.58938c3.93722,-0.65894 4.37469,5.2715 4.37469,5.2715c0.2071,2.85957 0.33065,5.73832 0.33493,8.61485l-0.42898,3.31917c0,0 -0.96079,5.78878 -4.80396,4.34158z" fill="#51cabb" stroke-width="0.5"/><path d="M221.19266,213.14675c-1.72212,-1.28688 -3.6454,-1.70342 -5.55402,-2.81992c-1.25549,-0.73444 -2.66071,-1.27581 -3.87916,-2.05471c-0.65228,-0.41697 -0.93998,-1.1684 -1.591,-1.58682c-0.92697,-0.59578 -2.12914,-0.8199 -3.06485,-1.40557c-4.57777,-2.86522 -6.93754,-8.29481 -10.50843,-11.96664l-0.08678,-0.19421c-0.39095,-0.25766 -0.76729,-0.53077 -1.12372,-0.82478c-1.03553,-0.85417 -1.54489,-2.07741 -2.31733,-3.11612c0,0 -1.10273,-1.57498 -0.23314,-3.04801c0.22791,-2.44645 3.29212,-2.73822 3.29212,-2.73822c9.02815,-0.84399 18.36034,-0.51755 27.43861,-0.51755c8.40808,0 16.80176,-0.25683 25.22518,-0.24293c3.07686,0.32214 5.97143,0.49199 9.07017,0.49199h1.16256c0,0 0.1141,0 0.30225,0.01716c0.58442,-0.0277 1.00576,0.04451 1.00576,0.04451c5.62361,0.99371 9.83685,3.36608 14.32601,6.32885c1.77717,1.1729 3.33525,2.83399 5.13357,3.92243c4.9342,2.98643 10.56943,5.33308 16.15004,7.37836l0.77876,0.32756c0,0 1.32524,0.56783 1.88075,1.70351c1.17315,0.69503 1.56025,2.17 2.39221,3.20356l-0.01007,3.18661c0,0 -0.09158,0.31392 -0.3332,0.71629c0.34284,0.90532 0.42478,1.8097 -0.05675,2.59808c-0.9739,1.59451 -3.95855,1.2592 -6.02572,1.57681c-0.86351,0.13268 -1.7396,-0.21091 -2.61575,-0.24907c-2.06039,-0.08972 -4.12608,0.00486 -6.18913,0.00486c-20.24782,0 -40.49565,0 -60.74347,0c0,0 -0.18771,0 -0.47865,-0.03621c-1.77855,0.42014 -3.34684,-0.69983 -3.34684,-0.69983z" fill="#42a47c" stroke-width="0.5"/><path d="M225.41654,121.93723v-0.07388c-1.87792,0.1514 -3.7047,0.37471 -5.41706,0.63046c-0.83113,0.12413 -1.70148,0.15901 -2.57479,0.21539c0.19787,0.73444 0.19787,1.30855 0.19787,1.30855v2.42727c0,17.12427 -1.18979,34.84883 0.46295,51.90536c1.92175,0.04889 3.8435,0.11326 5.76555,0.19794c0.52202,0.023 1.04383,0.03909 1.56547,0.04989c0,-18.88699 0,-37.77398 0,-56.66096zM240.4921,178.898c0.61234,-0.0011 1.22332,0.00021 1.83326,0.00374c-0.08702,-18.12417 -1.10165,-36.44399 1.02824,-54.34893c-0.88083,-0.59942 -1.75094,-1.21857 -2.74677,-1.53267c-2.09767,-0.66164 -4.38255,-1.04616 -6.73301,-1.22939c0,18.81251 0,37.94817 0,56.77658c2.20634,0.00547 4.41181,0.07435 6.61827,0.33067zM255.30708,179.2399c0.52238,0.02107 1.07391,-0.10227 1.61098,-0.1676c0.15733,-0.38102 0.3202,-0.76493 0.36936,-1.15469c0.25827,-2.04763 0.41394,-5.58366 0.05467,-7.58644c-0.14107,-0.78639 -0.7648,-1.41067 -0.94162,-2.18912c-0.7928,-3.49048 -0.06151,-6.88221 -0.44612,-10.35371c-0.65337,-5.89721 -0.92663,-11.84947 -1.56076,-17.80265c-1.02846,-2.79412 -1.8753,-5.84477 -3.2295,-8.55894c-1.30258,15.74318 -0.45685,31.78198 -0.38099,47.6469c1.50327,0.04871 3.00959,0.10518 4.52398,0.16626zM209.16529,126.445v-0.01065c-1.08897,0.86713 -2.148,1.76286 -3.16159,2.54345c-2.18814,2.68452 -5.14434,7.20002 -5.69521,10.7391c-0.69993,4.49674 0.06786,9.89569 0.06786,14.46825c0,8.00403 0,16.00805 0,24.01208c3.07218,-0.00068 6.14174,0.00017 9.21002,0.02222c-1.48337,-17.06395 -0.42108,-34.66708 -0.42108,-51.77445zM191.64494,183.69239c-0.17853,-1.11989 -0.03613,-2.00012 0.27412,-2.68993c0,-8.9391 0,-17.87821 0,-26.81731c0,-5.06782 -0.80789,-11.06633 0.06785,-16.04591c0.97276,-5.53127 4.82463,-11.46836 8.23445,-15.61405c2.94058,-2.33507 6.36772,-5.47594 9.76253,-7.03913c4.07644,-1.87706 4.66295,-1.12437 8.74418,-1.73396c7.58442,-1.13283 17.03831,-1.62886 24.49817,0.86066c1.9187,0.64032 3.51873,2.0611 5.35543,2.92517c1.1084,0.52144 2.38646,0.70985 3.36937,1.45737c6.09433,4.6348 8.2143,11.921 10.65427,18.87515c1.10318,8.5949 1.47187,17.16601 1.7746,25.77927c0.0594,1.69016 0.97726,3.23593 1.24675,4.90359c0.09457,0.58524 0.0928,5.89337 0.08636,7.13046c-0.01268,2.43671 -0.44111,10.17305 -2.09343,11.63644c-1.46491,1.29739 -3.80155,0.58201 -5.71455,0.7514c-5.78774,0.51248 -12.02923,-0.33558 -17.88063,-0.34497c-5.5009,-0.63903 -11.00421,-0.10592 -16.5248,-0.34381c-8.56063,-0.36889 -17.11529,-0.34293 -25.69361,-0.34293l-1.29477,0.2866c0,0 -4.17111,0.72683 -4.86629,-3.63411z" fill="#51cabb" stroke-width="0.5"/><path d="M250.77613,179.12514c-0.07586,-15.86492 -0.92074,-32.00684 0.38184,-47.75002c1.3542,2.71417 2.2085,5.76445 3.23696,8.55857c0.63413,5.95318 0.93791,11.9974 1.59128,17.89461c0.38462,3.4715 -0.36896,6.87431 0.42385,10.36479c0.17681,0.77846 0.80227,1.40235 0.94334,2.18874c0.35927,2.00278 0.19979,5.53958 -0.05848,7.58721c-0.04916,0.38976 -0.21317,0.77383 -0.3705,1.15485c-0.53707,0.06532 -1.0921,0.18901 -1.61448,0.16793c-1.51439,-0.06108 -3.03053,-0.11797 -4.5338,-0.16668z" data-paper-data="{&quot;noHover&quot;:false,&quot;origItem&quot;:[&quot;Path&quot;,{&quot;applyMatrix&quot;:true,&quot;segments&quot;:[[[544.86273,370.46911],[-3.16661,-0.12216],[1.0923,0.04214]],[[548.23132,370.13392],[-1.12302,0.13064],[0.32898,-0.76205]],[[549.00366,367.82454],[-0.10279,0.77952],[0.54004,-4.09526]],[[549.11798,352.65166],[0.75124,4.00556],[-0.29497,-1.57278]],[[547.14904,348.27341],[0.36972,1.55691],[-1.65777,-6.98096]],[[546.21619,327.566],[0.80424,6.94299],[-1.3662,-11.79441]],[[542.9526,291.96069],[1.32598,11.90636],[-2.15054,-5.58823]],[[536.19965,274.8428],[2.83166,5.42834],[-2.72372,31.48635]],[[535.403,370.1366],[-0.15863,-31.72984],[3.14337,0.09743]]],&quot;closed&quot;:true}]}" fill="#42a47c" stroke-width="0.5"/><path d="M233.86522,178.61857c0,-18.82842 0.0001,-38.06655 0.0001,-56.87906c2.35046,0.18323 4.64763,0.56714 6.74529,1.22878c0.99582,0.3141 1.87153,0.93403 2.75237,1.53345c-2.1299,17.90493 -1.11795,36.32737 -1.03093,54.45154c-0.60994,-0.00353 -1.2242,-0.00449 -1.83654,-0.00339c-2.20646,-0.25632 -4.42395,-0.32585 -6.63029,-0.33132z" data-paper-data="{&quot;noHover&quot;:false,&quot;origItem&quot;:[&quot;Path&quot;,{&quot;applyMatrix&quot;:true,&quot;segments&quot;:[[[513.88431,369.78532],[-4.61375,-0.51264],[1.28042,-0.00221]],[[517.71769,369.79281],[-1.2754,-0.00707],[-0.18197,-36.24834]],[[519.86777,261.09495],[-4.45366,35.80987],[-1.84184,-1.19884]],[[514.12423,258.02961],[2.08228,0.6282],[-4.38626,-1.32329]],[[500.04538,255.57082],[4.91486,0.36647],[0,37.62503]],[[500.04538,369.12399],[0,-37.65683],[4.61349,0.01095]]],&quot;closed&quot;:true}]}" fill="#42a47c" stroke-width="0.5"/><path d="M225.42398,178.64962c-0.52164,-0.0108 -1.04625,-0.02653 -1.56827,-0.04953c-1.92205,-0.08468 -3.85436,-0.14918 -5.77612,-0.19808c-1.65274,-17.05653 -0.46499,-34.88408 -0.46499,-52.00835l0.00072,-2.42738c0,0 -0.00002,-0.5741 -0.1979,-1.30854c0.87331,-0.05638 1.74847,-0.09176 2.5796,-0.21589c1.71235,-0.25574 3.54904,-0.47854 5.42696,-0.62993l0.00002,0.07388c0,18.88699 -0.00002,37.87683 -0.00002,56.76381z" data-paper-data="{&quot;noHover&quot;:false,&quot;origItem&quot;:[&quot;Path&quot;,{&quot;applyMatrix&quot;:true,&quot;segments&quot;:[[[482.36103,255.86377],[0,37.77397],[0,0]],[[482.36103,255.71601],[0,0],[-3.92676,0.3028]],[[471.03386,256.97692],[3.58056,-0.51149],[-1.7379,0.24826]],[[465.64993,257.4077],[1.8261,-0.11276],[0.41376,1.46889]],[466.06369,260.02479],[[466.06369,264.87932],[0,0],[0,34.24853]],[[467.03173,368.69004],[-3.45592,-34.11306],[4.01842,0.09779]],[[479.08761,369.08592],[-4.01905,-0.16936],[1.09155,0.046]],[[482.36103,369.18569],[-1.09075,-0.0216],[0,-37.77397]]],&quot;closed&quot;:true}]}" fill="#42a47c" stroke-width="0.5"/><path d="M209.5958,178.27052c-3.06828,-0.02205 -6.15604,-0.02276 -9.22822,-0.02209c0,-8.00403 -0.03741,-16.03986 -0.03741,-24.04388c0,-4.57256 -0.73898,-10.03965 -0.03905,-14.53638c0.55087,-3.53908 3.5271,-8.05778 5.71524,-10.7423c1.01359,-0.7806 2.07858,-1.6756 3.16756,-2.54274l0,0.01066c0,17.10737 -1.06149,34.81278 0.42188,51.87674z" data-paper-data="{&quot;noHover&quot;:false,&quot;origItem&quot;:[&quot;Path&quot;,{&quot;applyMatrix&quot;:true,&quot;segments&quot;:[[[448.37934,264.87932],[0,34.21473],[0,0]],[[448.37934,264.85802],[0,0],[-2.27706,1.73427]],[[441.76839,269.94492],[2.11943,-1.56119],[-4.57544,5.36904]],[[429.8596,291.42313],[1.15187,-7.07816],[-1.46356,8.99348]],[[430.00149,320.35963],[0,-9.14512],[0,16.00805]],[[430.00149,368.38378],[0,-16.00805],[6.42398,-0.00136]],[[449.25982,368.42822],[-6.41584,-0.04411],[-3.10175,-34.12791]]],&quot;closed&quot;:true}]}" fill="#42a47c" stroke-width="0.5"/><g stroke-width="0"><path d="M223.10277,146.2569c0,8.23911 -4.5313,14.91825 -10.12095,14.91825c-5.58964,0 -10.12095,-6.67912 -10.12095,-14.91825c0,-8.23911 4.5313,-14.91825 10.12095,-14.91825c5.58964,0 10.12095,6.67912 10.12095,14.91825z" fill="#ffffff"/><path d="M217.43314,149.07744c0,4.98477 -2.0533,9.02573 -4.5862,9.02573c-2.5329,0 -4.5862,-4.04096 -4.5862,-9.02573c0,-4.98477 2.0533,-9.02573 4.5862,-9.02573c2.5329,0 4.5862,4.04096 4.5862,9.02573z" fill="#000000"/></g><g stroke-width="0"><path d="M251.47808,146.59023c0,8.23911 -4.5313,14.91825 -10.12095,14.91825c-5.58964,0 -10.12095,-6.67912 -10.12095,-14.91825c0,-8.23911 4.5313,-14.91825 10.12095,-14.91825c5.58964,0 10.12095,6.67912 10.12095,14.91825z" fill="#ffffff"/><path d="M245.80845,149.41077c0,4.98477 -2.0533,9.02573 -4.5862,9.02573c-2.5329,0 -4.5862,-4.04096 -4.5862,-9.02573c0,-4.98477 2.0533,-9.02573 4.5862,-9.02573c2.5329,0 4.5862,4.04096 4.5862,9.02573z" fill="#000000"/></g></g></g></svg>