<svg version="1.1" xmlns="http://www.w3.org/2000/svg" xmlns:xlink="http://www.w3.org/1999/xlink" width="94.50311" height="96.66666" viewBox="0,0,94.50311,96.66666"><g transform="translate(-190.28477,-131.66667)"><g data-paper-data="{&quot;isPaintingLayer&quot;:true}" fill-rule="nonzero" stroke-linecap="butt" stroke-linejoin="miter" stroke-miterlimit="10" stroke-dasharray="" stroke-dashoffset="0" style="mix-blend-mode: normal"><path d="M246.39734,165.1993c0.56471,-1.42298 1.71883,-2.40787 3.24407,-3.05858c5.59475,-2.38687 16.18301,-0.2774 20.99175,1.19942c3.87166,1.18903 6.79164,4.93625 8.93855,7.83619c6.9316,9.36281 7.84834,24.23123 -2.75605,32.04737c-3.05837,2.25422 -7.42239,1.43116 -11.14018,1.48984c-4.99657,0.07885 -9.62706,0.09467 -14.35802,-0.49695c-2.62014,-0.32765 -7.03912,0.54215 -7.03912,-3.23697c0,-5.47493 8.34512,-2.26036 11.52417,-2.24307c4.70125,0.02557 11.27306,0.02013 16.10507,-0.16565c1.53993,-0.05921 4.15018,-5.70826 4.85343,-6.94858c3.51889,-6.20629 -2.38161,-22.01318 -11.38282,-23.51734c-3.38186,-0.56513 -7.08909,-0.725 -10.53885,-0.6626c-1.03902,0.0188 -4.76597,1.23339 -5.41033,0.79337z" fill="#000000" stroke="none" stroke-width="0.5"/><path d="M263.11811,180c0,25.31305 -15.74465,45.83333 -35.16667,45.83333c-19.42201,0 -35.16667,-20.52028 -35.16667,-45.83333c0,-25.31305 15.74465,-45.83333 35.16667,-45.83333c19.42201,0 35.16667,20.52028 35.16667,45.83333z" fill="#d4d4d4" stroke="#000000" stroke-width="5"/><g stroke="none" stroke-width="0"><path d="M221.04621,170.58489c0,8.23911 -4.73752,14.91825 -10.58155,14.91825c-5.84402,0 -10.58155,-6.67912 -10.58155,-14.91825c0,-8.23911 4.73752,-14.91825 10.58155,-14.91825c5.84402,0 10.58155,6.67912 10.58155,14.91825z" fill="#ffffff"/><path d="M215.11856,173.40543c0,4.98477 -2.14675,9.02573 -4.79492,9.02573c-2.64817,0 -4.79492,-4.04096 -4.79492,-9.02573c0,-4.98477 2.14675,-9.02573 4.79492,-9.02573c2.64817,0 4.79492,4.04096 4.79492,9.02573z" fill="#000000"/></g><g stroke="none" stroke-width="0"><path d="M253.62954,171.00155c0,8.23911 -4.73752,14.91825 -10.58155,14.91825c-5.84402,0 -10.58155,-6.67912 -10.58155,-14.91825c0,-8.23911 4.73752,-14.91825 10.58155,-14.91825c5.84402,0 10.58155,6.67912 10.58155,14.91825z" fill="#ffffff"/><path d="M247.70189,173.82209c0,4.98477 -2.14675,9.02573 -4.79492,9.02573c-2.64817,0 -4.79492,-4.04096 -4.79492,-9.02573c0,-4.98477 2.14675,-9.02573 4.79492,-9.02573c2.64817,0 4.79492,4.04096 4.79492,9.02573z" fill="#000000"/></g></g></g></svg>