<svg version="1.1" xmlns="http://www.w3.org/2000/svg" xmlns:xlink="http://www.w3.org/1999/xlink" width="63.15409" height="131.33564" viewBox="0,0,63.15409,131.33564"><g transform="translate(-208.42296,-114.16032)"><g data-paper-data="{&quot;isPaintingLayer&quot;:true}" fill-rule="nonzero" stroke-linejoin="miter" stroke-miterlimit="10" stroke-dasharray="" stroke-dashoffset="0" style="mix-blend-mode: normal"><path d="M239.60391,242.24596v-33.33754" fill="none" stroke="#000000" stroke-width="6.5" stroke-linecap="round"/><path d="M269.57704,179.14881c0,17.24245 -13.24209,31.22021 -29.57704,31.22021c-16.33495,0 -29.57704,-13.97777 -29.57704,-31.22021c0,-17.24245 30.17456,-61.39477 30.17456,-61.39477c0,0 28.97953,44.15232 28.97953,61.39477z" fill="#66ff68" stroke="#000000" stroke-width="4" stroke-linecap="butt"/><path d="M236.96184,164.18462c0,5.46289 -3.14118,9.89145 -7.01603,9.89145c-3.87484,0 -7.01603,-4.42855 -7.01603,-9.89145c0,-5.46289 3.14118,-9.89145 7.01603,-9.89145c3.87484,0 7.01603,4.42855 7.01603,9.89145z" fill="#ffffff" stroke="none" stroke-width="0" stroke-linecap="butt"/><path d="M256.54894,164.50927c0,5.4629 -3.14118,9.89145 -7.01602,9.89145c-3.87484,0 -7.01603,-4.42855 -7.01603,-9.89145c0,-5.4629 3.14118,-9.89145 7.01603,-9.89145c3.87484,0 7.01602,4.42855 7.01602,9.89145z" fill="#ffffff" stroke="none" stroke-width="0" stroke-linecap="butt"/><path d="M233.03155,165.72143c0,3.30512 -1.42339,5.98445 -3.17924,5.98445c-1.75585,0 -3.17924,-2.67933 -3.17924,-5.98445c0,-3.30512 1.42339,-5.98445 3.17924,-5.98445c1.75585,0 3.17924,2.67933 3.17924,5.98445z" fill="#000000" stroke="none" stroke-width="0" stroke-linecap="butt"/><path d="M252.61864,166.37941c0,3.30512 -1.42339,5.98445 -3.17924,5.98445c-1.75584,0 -3.17924,-2.67933 -3.17924,-5.98445c0,-3.30512 1.42339,-5.98445 3.17924,-5.98445c1.75584,0 3.17924,2.67933 3.17924,5.98445z" fill="#000000" stroke="none" stroke-width="0" stroke-linecap="butt"/></g></g></svg>