<svg version="1.1" xmlns="http://www.w3.org/2000/svg" xmlns:xlink="http://www.w3.org/1999/xlink" width="113.95023" height="133.13888" viewBox="0,0,113.95023,133.13888"><g transform="translate(-178.50365,-112.35708)"><g data-paper-data="{&quot;isPaintingLayer&quot;:true}" fill-rule="nonzero" stroke-linejoin="miter" stroke-miterlimit="10" stroke-dasharray="" stroke-dashoffset="0" style="mix-blend-mode: normal"><path d="M239.77058,242.24596v-30.55941" fill="none" stroke="#000000" stroke-width="6.5" stroke-linecap="round"/><path d="M204.56481,199.18171c-2.99894,-0.04452 -4.86431,0.35256 -7.21715,-2.31238c-2.13385,-2.4169 -2.40658,-5.99444 -3.53562,-8.82837c-0.71908,-1.80491 -2.1516,-3.34829 -2.51929,-5.25606c-0.84479,-4.38317 1.15336,-8.28704 3.653,-11.67036c-5.00646,-0.73947 -10.18233,-1.70397 -13.43172,-5.77853c-4.78742,-6.00315 -3.54104,-15.22448 1.4565,-20.7928c2.74326,-3.05658 6.64321,-3.73793 10.35549,-4.88826c2.23642,-0.693 6.09068,-1.79633 9.02184,-1.3781c-2.15515,-1.66634 -4.13685,-5.20827 -4.6602,-6.91215c-1.90137,-6.19034 1.39855,-16.60317 8.05012,-18.73341c2.17724,-0.69728 5.45853,0.08979 7.58397,0.64747c6.78207,1.77952 13.77931,5.84553 18.74204,10.82688c0.07672,0.077 0.62298,0.78331 1.3025,1.68821c0.64272,-2.72163 1.47553,-5.45991 2.86152,-7.15987c4.35831,-5.34559 10.68585,-4.39633 16.42727,-2.68855c7.45718,1.70536 12.08523,6.2963 14.12784,13.74607c0.39976,1.458 1.04393,4.6112 0.92613,6.66933c0.2938,-0.02128 0.58044,-0.06276 0.83083,-0.18735c0.88262,-0.43918 1.39364,-1.52632 2.33701,-1.81258c1.34327,-0.40761 2.80576,-0.24493 4.20769,-0.17339c4.99361,0.25483 5.72561,2.66489 8.8912,5.83006c1.46413,1.46394 3.13979,2.75037 4.36359,4.42043c0,0 0.75053,1.05074 0.57745,2.26591c0.98545,2.44703 2.50169,5.19228 3.16717,7.58568c1.26319,4.54312 -0.92444,9.94813 -3.30512,13.84711c-0.98831,1.61862 -3.40654,3.91103 -4.98016,5.15124c3.78905,2.76411 7.10823,6.55649 7.42949,11.45644c0.68014,10.37365 -13.2463,18.26413 -22.16258,17.80312c-3.50347,-0.18114 -6.47356,-1.62564 -9.4388,-3.34083c0.22994,3.91196 -0.10675,7.68127 -2.08282,11.25655c-1.10139,0.92405 -2.0314,2.10357 -3.30417,2.77215c-4.07995,2.14318 -12.08429,2.40381 -16.61151,1.58879c-0.88112,-0.15863 -1.60763,-0.82804 -2.47897,-1.03369c-2.11697,-0.49965 -4.43003,-0.2757 -6.42436,-1.14395c-6.27203,-2.73057 -10.44239,-8.5495 -11.13823,-14.72158c-4.06585,1.51838 -9.20784,1.31341 -13.0219,1.25679z" fill="#ff4444" stroke="none" stroke-width="0.5" stroke-linecap="butt"/><path d="M266.23148,165.84838c0,11.59798 -11.64059,21 -26,21c-14.35941,0 -26,-9.40202 -26,-21c0,-11.59798 11.64059,-21 26,-21c14.35941,0 26,9.40202 26,21z" fill="#fff91f" stroke="#ffb71f" stroke-width="6.5" stroke-linecap="butt"/><path d="M236.96184,164.18462c0,5.46289 -3.14118,9.89145 -7.01603,9.89145c-3.87484,0 -7.01603,-4.42855 -7.01603,-9.89145c0,-5.46289 3.14118,-9.89145 7.01603,-9.89145c3.87484,0 7.01603,4.42855 7.01603,9.89145z" fill="#ffffff" stroke="none" stroke-width="0" stroke-linecap="butt"/><path d="M256.54894,164.50927c0,5.4629 -3.14118,9.89145 -7.01602,9.89145c-3.87484,0 -7.01603,-4.42855 -7.01603,-9.89145c0,-5.4629 3.14118,-9.89145 7.01603,-9.89145c3.87484,0 7.01602,4.42855 7.01602,9.89145z" fill="#ffffff" stroke="none" stroke-width="0" stroke-linecap="butt"/><path d="M233.03155,166.05476c0,3.30512 -1.42339,5.98445 -3.17924,5.98445c-1.75585,0 -3.17924,-2.67933 -3.17924,-5.98445c0,-3.30512 1.42339,-5.98445 3.17924,-5.98445c1.75585,0 3.17924,2.67933 3.17924,5.98445z" fill="#000000" stroke="none" stroke-width="0" stroke-linecap="butt"/><path d="M252.61864,166.37941c0,3.30512 -1.42339,5.98445 -3.17924,5.98445c-1.75584,0 -3.17924,-2.67933 -3.17924,-5.98445c0,-3.30512 1.42339,-5.98445 3.17924,-5.98445c1.75584,0 3.17924,2.67933 3.17924,5.98445z" fill="#000000" stroke="none" stroke-width="0" stroke-linecap="butt"/></g></g></svg>