<svg version="1.1" xmlns="http://www.w3.org/2000/svg" xmlns:xlink="http://www.w3.org/1999/xlink" width="154.01339" height="91.29896" viewBox="0,0,154.01339,91.29896"><g transform="translate(-162.9933,-134.35052)"><g data-paper-data="{&quot;isPaintingLayer&quot;:true}" fill-rule="nonzero" stroke="none" stroke-linecap="butt" stroke-linejoin="miter" stroke-miterlimit="10" stroke-dasharray="" stroke-dashoffset="0" style="mix-blend-mode: normal"><g stroke-width="0.5"><path d="M279.69859,216.15678c-0.02478,-0.53053 0.04988,-0.96022 0.18508,-1.30817c-2.395,-1.47348 -4.73266,-3.23404 -6.81035,-4.7503c-1.38754,-1.41176 -3.23272,-2.40782 -4.16261,-4.23527c-0.32224,-0.63326 -0.59217,-1.2911 -0.80999,-1.96382c-0.13316,-0.04899 -0.26225,-0.11183 -0.3862,-0.19181c-2.87876,-1.85756 -3.63004,-5.62235 -2.62064,-8.76388c-0.26938,-0.95542 0.06808,-1.90603 0.06808,-1.90603c1.5239,-4.2334 1.27014,-4.58053 3.95374,-7.9913c1.17377,-1.49182 2.06848,-3.6696 3.77208,-4.20805c1.38168,-0.43671 2.91187,0.71405 4.01638,1.74635c1.21983,1.14008 2.14183,2.98048 2.78217,5.02182c1.73145,-0.08512 3.44071,-0.13886 4.9871,-0.30657c7.22279,0.63538 15.31764,0.60442 22.1129,3.86672c1.55445,0.74627 2.87826,1.99534 4.30865,3.00878c2.26274,1.60316 4.29401,2.91439 5.22493,6.31241c1.63183,5.95648 0.19469,7.01515 -2.61352,10.74578c-0.68272,0.90697 -1.24825,1.99448 -2.1414,2.62818c-1.17767,0.83556 -2.59803,1.12576 -3.90572,1.6623c-5.18699,2.1282 -10.27116,1.77869 -15.7298,1.78364c-0.26184,0.00024 -0.52503,0.00934 -0.78914,0.02434c-1.10147,0.32597 -2.36527,0.56266 -4.194,1.03694l-4.77764,0.29288c0,0 -2.34657,0.13916 -2.47008,-2.50494zM298.42487,212.17334c1.57099,-0.00094 3.1271,-0.08742 4.61393,-0.38253c3.52167,-0.699 10.63434,-4.05142 8.83959,-9.57224c-0.35793,-1.10103 -1.25219,-1.8861 -2.00207,-2.69909c-3.47259,-3.76483 -8.96435,-4.90829 -13.50966,-5.87292c-1.4728,-0.31257 -2.9992,-0.48755 -4.54028,-0.60613c0.93809,0.97978 1.76905,2.10386 2.67473,3.12424c2.91326,3.28218 7.30564,8.67006 5.13947,14.07708c-0.28927,0.72205 -0.71886,1.35508 -1.21572,1.93159zM273.65043,204.06263c0.67887,0.6694 1.54191,1.15587 2.24499,1.80122c2.9366,2.13881 6.4913,4.88117 9.82271,6.21901c1.23911,0.4976 2.5752,0.33444 3.91579,0.14919c2.28298,-0.73178 4.6407,-1.88013 5.66476,-4.01682c0.21965,-0.4583 -0.03532,-1.04868 -0.14906,-1.55353c-0.26674,-1.18395 -0.38868,-2.47328 -0.98755,-3.49147c-0.7655,-1.30149 -2.00437,-2.15693 -2.98411,-3.26108c-2.89203,-3.25928 -4.37951,-4.67012 -8.65934,-5.44611c-0.56903,-0.10317 -1.14403,-0.12287 -1.72134,-0.10762c0.0124,0.51879 0.00481,1.01155 -0.02244,1.46789c-0.07926,1.32758 -0.1103,2.81019 -0.8029,3.88788c-2.4109,3.75136 -3.76651,4.32776 -6.32151,4.35144zM272.67897,188.54448c0.52828,-0.15897 1.07768,-0.28956 1.64228,-0.39787c-0.20761,-0.5358 -0.4207,-1.09602 -0.63149,-1.69897c-0.0057,-0.01632 -0.00721,-0.03619 -0.0055,-0.0584c-0.28377,0.65431 -0.53068,1.33192 -0.88231,1.94174c-0.04101,0.07111 -0.082,0.14228 -0.12298,0.2135zM276.05361,194.56829c-2.22446,0.1665 -3.65726,0.83711 -3.75898,4.21656c1.58125,0.19121 2.25243,0.48147 3.62949,-1.76426c0.26133,-0.42619 0.16491,-1.02542 0.16113,-1.54342c-0.0023,-0.31453 -0.0131,-0.61689 -0.03164,-0.90888z" fill="#d6c742"/><path d="M281.58862,183.12954c-1.66157,-1.87225 0,-3.7445 0,-3.7445l0.3217,-0.21033c0.90369,-1.85229 1.65633,-3.80797 2.24374,-5.81541c0,0 0.74308,-2.51188 2.97232,-1.67459c2.22924,0.83729 1.48616,3.34918 1.48616,3.34918c-0.68688,2.30008 -1.55052,4.54278 -2.57641,6.67659l-1.12435,1.41906c0,0 -1.66157,1.87225 -3.32315,0z" fill="#d6d095"/><path d="M301.35123,193.44901c-1.66157,-1.87225 0,-3.7445 0,-3.7445l1.01837,-0.99534c0.98357,-0.59463 1.90991,-1.32944 2.9507,-1.78389c0.50712,-0.22143 1.18887,0.16039 1.6207,-0.21215c0.47711,-0.4116 0.49305,-1.23529 0.76014,-1.8418c1.06884,-2.42718 1.15925,-3.91253 1.15609,-6.60126c0,0 0,-2.64776 2.34982,-2.64776c2.34982,0 2.34982,2.64776 2.34982,2.64776c-0.00458,4.35057 -0.57509,9.70811 -3.86795,12.73901c-0.72953,0.6715 -1.84624,0.47038 -2.71743,0.87411c-0.82965,0.38447 -1.56764,0.98326 -2.35146,1.47489l0.05434,0.09092c0,0 -1.66157,1.87225 -3.32315,0z" fill="#d6d095"/><g><path d="M193.85692,211.75798c-0.56356,0.62448 -1.14919,1.22145 -1.77073,1.77378c-2.39951,2.13234 -5.72885,2.59652 -8.65712,2.07919c-3.73657,-0.66013 -7.65619,-6.63684 -10.13063,-9.30211c-1.6903,-4.35672 -3.89912,-9.00632 -4.43779,-13.80832c-0.32437,-2.89162 -0.12111,-6.02204 0.57372,-9.03687c-0.87021,-1.17536 -1.73468,-2.37767 -2.29331,-3.76281c-0.76172,-1.88869 -1.45647,-3.93621 -1.43294,-6.0106c0.04672,-4.11813 5.08742,-6.74871 7.87896,-7.71405c4.33216,-1.49811 5.61355,-1.15976 10.02192,-1.19984c2.42831,-0.01568 4.85743,0.03756 7.2839,0.14499c1.28463,0.05688 2.63541,-0.24946 3.85196,0.21899c0.31064,0.11962 1.43323,0.86571 2.72354,1.74948c0.96473,0.0357 1.90369,0.13965 2.78999,0.35202c0.47987,0.11498 0.95873,0.24074 1.43618,0.37692c2.43354,-0.42676 5.01335,-0.53528 7.39445,-0.21717c3.98248,-2.73227 9.09354,-3.70119 13.45137,-3.84819c7.28789,-0.20859 14.38266,0.54978 21.1228,3.69362c2.4789,1.15625 3.84856,1.598 5.19525,2.68658c1.29022,0.26195 2.57156,0.5772 3.84301,0.93983c0.7696,-0.37272 1.54888,-0.70845 2.3656,-0.90105c0.25683,-0.06057 0.51686,-0.11516 0.77974,-0.16426c0.59479,-0.29719 1.23819,-0.52195 1.92505,-0.66199c4.2946,-0.87559 8.47357,-0.51655 12.55101,0.52087c5.98238,-0.02319 12.65604,-0.06366 18.35764,1.97269c3.73645,1.33449 6.31601,2.60442 9.04408,5.8899c0.82655,0.99544 1.78502,2.15921 1.84669,3.52063c0.04978,1.09887 -0.26147,2.1037 -0.77794,3.01202c1.13034,0.76719 2.17657,1.62697 2.89667,2.8392c2.52905,4.25747 3.67761,8.17036 1.22932,13.05191c-0.25398,0.5064 -0.58048,0.94625 -0.95022,1.34642c0.40914,1.44828 0.54056,3.03406 0.9126,4.50071c-1.38463,1.61654 -2.52392,3.5557 -4.15388,4.84961c-1.39558,1.10785 -3.15273,1.4768 -4.73284,2.20492c-0.77426,0.35678 -1.55309,0.70154 -2.33589,1.03483c1.16904,1.18012 2.1468,2.60606 2.13488,4.52779c-0.03163,5.10045 -4.47594,5.89169 -7.71224,6.55929c-4.204,0.86722 -9.11082,0.33129 -13.40026,0.47731c-4.339,0.00028 -8.9213,0.445 -13.24378,-0.00872c-4.68888,-0.49217 -9.45297,-1.76611 -14.09959,-2.63874c-4.64385,-0.87211 -9.46771,-1.44451 -14.05241,-2.64436c-1.2012,-0.31436 -2.39568,-0.65886 -3.5839,-1.02942c-0.46508,0.53503 -0.97236,1.04339 -1.52409,1.52166c-1.47363,1.27744 -3.35578,1.85013 -5.13874,2.44414c-1.68224,0.56045 -3.4345,0.935 -5.18789,0.99627c-1.80925,0.06322 -3.65849,-0.07736 -5.40184,-0.62621c-2.77534,-0.87373 -6.40906,-3.77894 -8.80276,-5.52201c-2.48123,-1.80681 -5.35769,-3.87842 -7.78953,-6.18884zM173.46571,188.0597c-0.1029,1.30743 -0.08581,2.58144 0.0552,3.75672c0.47076,3.92358 2.31158,7.85028 3.62952,11.45869c2.01189,2.07477 3.91882,4.28342 6.01293,6.25218c0.3971,0.37333 0.80516,0.84633 1.31789,0.92256c3.07972,0.45787 4.41724,-0.72867 6.00054,-2.64683c-1.05219,-1.70807 -2.18726,-4.14347 -3.10273,-6.16236c-0.0474,-0.06372 -0.09515,-0.12684 -0.14334,-0.18923c-0.00627,-0.00585 -0.01254,-0.01172 -0.01882,-0.01759c-1.7029,-1.59339 -3.15206,-3.9428 -4.43761,-6.1773c-0.00217,-0.00156 -0.00433,-0.00312 -0.00649,-0.00468c-3.08032,-2.21828 -6.41189,-4.4745 -9.30709,-7.19217zM210.30655,195.26278c-0.75592,0.44892 -1.49887,0.83016 -2.23614,1.13073c1.30327,3.40186 4.55629,6.42216 7.05173,8.21263c1.16927,0.83895 2.54782,1.23169 3.82173,1.84753c2.81298,0.80855 5.47782,1.54512 8.29506,2.0212c0.27764,-2.1144 0.20006,-4.35964 -0.11987,-6.569c-0.82258,-1.36494 -1.50065,-2.80168 -1.99214,-4.30594c-0.34111,-1.044 -0.4811,-1.95672 -0.48771,-2.81387c-2.35719,0.12719 -4.68085,0.13655 -6.69253,0.25626c-2.43414,0.1415 -5.02876,0.24951 -7.64014,0.22046zM248.02528,212.08542c3.57977,1.5197 7.30635,2.71419 11.12516,3.19947c7.41742,0.94257 14.80745,-0.77845 21.89697,-3.06047c-1.45709,-0.83136 -2.95558,-1.57652 -4.5483,-2.35102c-2.76846,-0.0488 -5.57468,0.33006 -8.30267,-0.1996c-0.23637,-0.04589 -8.92327,-2.89055 -9.32958,-3.02325c-2.10611,-0.68787 -4.22048,-1.41463 -6.3307,-2.18645c0.30653,0.94984 0.40926,1.98963 0.23783,3.12985c-0.39363,2.61813 -2.56223,3.80955 -4.74873,4.49147zM277.51203,204.59976c3.70245,0.08675 8.06098,0.18065 11.57766,-0.8971c2.15919,-0.66172 4.03713,-2.14849 6.00657,-3.37151c-1.34387,-1.16658 -2.86864,-2.11651 -4.46312,-3.20406c-2.2689,-1.54756 -4.50527,-2.72573 -6.81355,-3.78786c-2.27079,0.57327 -4.58882,0.91569 -6.89602,1.08328c-0.15456,0.98847 -0.38197,1.86089 -0.68269,2.51927c-1.08091,2.36651 -2.69269,3.84211 -4.56198,4.78207c1.65103,0.82723 3.30611,1.64843 4.96877,2.45638c0.2909,0.14136 0.57895,0.28103 0.86436,0.41952zM240.06555,213.89755c-3.17789,0.48127 -6.30869,0.53152 -9.42886,0.26429c-0.00313,0.00824 -0.00626,0.01648 -0.0094,0.02471c5.08048,1.36514 10.23716,2.41149 15.48339,3.39673c1.12223,0.21075 2.25149,0.44636 3.38494,0.68889c-1.70416,-0.61384 -3.38156,-1.31354 -5.02605,-2.07014c-1.41131,-0.64932 -2.90027,-1.41961 -4.40403,-2.30448zM270.98433,220.17873c0.54533,-0.01204 1.08768,-0.01948 1.62597,-0.01944c4.18912,-0.1433 8.59312,0.13846 12.74918,-0.41502c1.16305,-0.15489 2.29537,-0.53972 3.41889,-0.91221c0.13719,-0.04548 0.37592,-0.17963 0.31659,-0.32625c-0.27334,-0.67545 -2.23954,-2.1578 -2.47455,-2.36186c-0.07647,-0.0664 -0.15286,-0.13213 -0.22919,-0.19721c-0.48343,0.1728 -0.96784,0.34184 -1.45311,0.50724c-4.54444,1.54898 -9.21679,2.94242 -13.95377,3.72475zM299.04928,196.93407c2.0305,-3.97594 -1.12745,-6.89603 -3.96795,-9.04008c-0.48531,0.36215 -0.94453,0.68327 -1.33716,0.96272c-1.08585,0.77283 -2.21241,1.45113 -3.37022,2.04405c0.89723,0.52152 1.79303,1.0825 2.69268,1.69601c1.66011,1.1321 4.08452,2.61085 5.98265,4.33731zM284.17722,187.80523c1.13448,-0.38389 2.23038,-0.81305 3.26462,-1.27194c1.54609,-0.68599 2.50977,-1.23267 3.35572,-1.83119c-3.23881,-2.25016 -6.49226,-3.72896 -10.15306,-5.46714c-4.00501,-1.90161 -7.76983,-3.49285 -11.75395,-4.37113c-1.33448,0.05497 -2.66013,0.11191 -3.95446,0.11591c-0.56413,0.00174 -1.11723,-0.00116 -1.66167,-0.00371c3.21412,1.54755 5.65217,2.50957 8.52507,4.92616c1.51806,1.27694 3.26795,2.449 4.21131,4.3001c0.03819,0.07493 0.07543,0.15269 0.11174,0.23315c1.25092,0.5091 2.49891,1.02394 3.74402,1.54285c1.47927,0.6165 2.91016,1.21065 4.31065,1.82694zM226.70129,171.59256c1.40478,-1.17795 3.1753,-1.91332 4.81419,-2.37265c-2.90284,-0.38281 -5.85576,-0.46881 -8.84893,-0.37293c-3.45706,0.09116 -4.58876,-0.18971 -7.44683,0.88379c1.00813,0.79733 1.91957,1.77966 2.84837,2.69013c0.09839,0.09645 0.19847,0.19499 0.29998,0.29554c1.10009,-0.43931 2.20667,-0.84838 3.35277,-1.07336c1.63544,-0.32104 3.31999,-0.03674 4.98002,-0.05051c0.00015,0 0.00029,0 0.00044,0zM286.50815,209.6017c0.24236,0.17059 0.48438,0.34541 0.72622,0.52492c3.89261,-1.38576 7.80168,-3.02092 11.08942,-5.61702c-0.01735,-0.03631 -0.03481,-0.07242 -0.05237,-0.10833c-2.59441,1.51724 -5.03304,3.5027 -7.84631,4.37862c-1.23818,0.38551 -2.55898,0.64701 -3.91696,0.82181zM254.58613,186.18097c-0.24064,0.52023 -0.55018,1.01802 -0.9377,1.48575c-0.08849,0.10681 -0.18261,0.21047 -0.28188,0.31107c0.4745,1.9281 1.08441,3.88994 1.96078,5.61283c3.08599,1.46333 6.14566,2.98781 9.20162,4.52739c0.50256,-0.03526 1.00359,-0.08607 1.5013,-0.17168c1.99194,-0.34263 4.74822,-0.83104 5.90717,-3.15597c-0.3327,-0.00395 -0.66486,-0.02417 -0.99626,-0.06734c-0.2507,-0.03265 -8.95531,-2.85287 -9.41315,-3.00061c-2.46922,-0.88847 -4.99851,-3.05031 -6.94187,-5.54144zM224.06515,176.8797c-0.62807,0.03178 -1.25719,0.07497 -1.88739,0.13012c0.56686,0.77009 1.08255,1.5702 1.50054,2.38376c0.28748,-0.00445 0.5747,-0.00453 0.8614,-0.00003c-0.26956,-0.49859 -0.44431,-1.03773 -0.47333,-1.63552c-0.01469,-0.30251 -0.01477,-0.59518 -0.00121,-0.87833zM192.70978,180.41582c-0.10987,-0.0459 -0.21989,-0.08993 -0.32989,-0.13185c0.12242,1.01152 0.21639,2.02949 0.41464,3.02443c0.26875,0.3876 0.49727,0.82191 0.744,1.23508c-0.24886,-1.1119 -0.45396,-2.17968 -0.63468,-3.13669c-0.06226,-0.32973 -0.12836,-0.66004 -0.19407,-0.99097zM213.90538,181.00897c0.39996,-0.1212 0.80661,-0.23775 1.21897,-0.34888c-1.51533,-1.29268 -3.12356,-2.4667 -4.79184,-3.50967c0.23884,0.41827 0.4525,0.85912 0.63772,1.3261c0.60111,0.43447 1.16422,0.88194 1.67915,1.33915c0.43373,0.38511 0.85746,0.78096 1.25599,1.19329zM188.59702,174.06104c-1.01559,-0.42285 -2.0558,-0.78384 -3.11462,-1.08142c-2.1542,0.37863 -4.22241,1.11374 -6.22495,2.56018c-0.97862,0.70686 -1.84059,1.64161 -2.58138,2.72845c1.4876,0.92161 2.97123,1.79635 4.48937,2.61567c0.42476,-0.11315 0.87517,-0.14478 1.34049,-0.10369c0.04017,-0.26233 0.10992,-0.51532 0.22328,-0.75437c0.8833,-1.86273 2.21018,-3.5502 3.79837,-4.67173c0.38135,-0.2693 0.80982,-0.40106 1.25968,-0.46501c0.00498,-0.00636 0.01001,-0.01269 0.01509,-0.01899c0.24112,-0.2991 0.50764,-0.56805 0.79467,-0.80909zM187.23048,183.37232c0.24308,0.24272 0.48203,0.49236 0.71971,0.74343c0.09897,0.0443 0.19805,0.0886 0.29723,0.13288c-0.27107,-1.07345 -0.53053,-2.11265 -0.69168,-3.18874c-0.16969,0.25155 -0.31958,0.54536 -0.44658,0.8857c-0.16497,0.44211 0.03215,0.9395 0.12132,1.42672zM198.25586,183.89456c0.11353,0.39762 0.23218,0.78903 0.3549,1.17275c0.0244,0.07628 0.11114,0.33364 0.24405,0.7007c0.52167,0.03606 0.95822,-0.00318 0.83558,-0.40347c-0.21342,-0.69664 -0.82455,-1.08922 -1.43453,-1.46999zM247.947,185.21653c-0.25035,-1.42145 -0.51426,-3.3294 -0.58865,-5.18867c-6.14055,-1.71751 -12.33663,-2.96341 -18.62938,-3.18185c-0.0171,0.12619 -0.01331,0.25677 0.01431,0.39177c0.23122,1.13043 1.66922,1.35849 2.49796,2.04677c4.41957,3.67052 7.9327,6.99989 13.71234,6.39703c0.53195,-0.05549 1.79934,-0.13977 2.99342,-0.46506zM272.40272,189.55898c-0.04136,-0.36172 -0.1021,-0.70449 -0.18069,-1.0301c-4.42552,-1.71532 -8.86816,-3.30817 -13.36824,-4.85135c1.16145,1.45977 2.57127,2.59951 3.96807,2.95401c2.88923,0.93231 5.67348,2.44214 8.65896,2.831c0.30412,0.03961 0.61158,0.07165 0.9219,0.09644zM253.11499,198.98527c-0.32253,-0.41 -0.62456,-0.83281 -0.90797,-1.26733c-1.03656,-0.46633 -2.07809,-0.91846 -3.1257,-1.35312c-3.28067,-1.36116 -6.41121,-2.65069 -9.60448,-3.43517c0.10791,0.05143 0.21616,0.10253 0.32478,0.15331c4.46172,2.08566 8.83507,4.10783 13.31337,5.90231zM229.83747,187.26766c0.65993,-0.24768 1.32925,-0.45062 2.0172,-0.56477c-0.25724,-0.19769 -0.51168,-0.40097 -0.76321,-0.60958c-0.98696,-0.49042 -1.99617,-0.95554 -3.05675,-1.13802c-0.73318,-0.12615 -1.48425,-0.20694 -2.24641,-0.24801c0.62618,0.37149 1.26655,0.72008 1.87434,1.12183c0.73263,0.48426 1.45586,0.96459 2.17483,1.43856zM241.02745,208.33915c0.71518,-0.14074 1.43625,-0.30264 2.16603,-0.48586c1.34107,-0.33669 2.69324,-0.6174 4.02986,-0.97587c0.32467,-0.08707 0.94941,0.01663 0.94906,-0.35943c-0.00052,-0.55331 -0.56857,-0.92046 -0.95059,-1.26811c-1.00318,-0.91291 -2.04908,-1.78265 -3.17658,-2.48769c-2.64124,-1.6516 -5.46505,-2.91204 -8.27098,-4.1725c-1.65335,-0.7427 -3.34061,-1.50471 -5.05216,-2.24505c0.28313,1.04881 0.52795,2.12124 0.72723,3.20628c0.41555,0.48102 0.90869,0.95185 1.57579,1.66405c2.62134,2.79861 5.14486,5.1565 8.00235,7.12417zM172.61397,175.64581c0.40565,-0.64167 0.84162,-1.25389 1.30729,-1.83066c-1.03548,0.21261 -2.04154,0.49587 -2.99071,0.8839c-0.21225,0.08677 0.43354,0.15363 0.63162,0.27575c0.35348,0.21792 0.70343,0.44289 1.0518,0.67101zM222.07971,217.18394c-4.50494,-1.70737 -8.92784,-3.70598 -13.2949,-5.76402c-3.79743,-1.31354 -7.44269,-2.71673 -11.15018,-4.28657c-0.19817,0.24372 -0.39493,0.48917 -0.59096,0.73547c2.22929,2.10303 4.88552,3.97788 7.15409,5.63074c1.75107,1.27581 5.40758,4.17794 7.53666,4.87561c1.27037,0.41628 2.6289,0.48833 3.9508,0.42764c1.26521,-0.05809 4.43632,-0.73712 6.39449,-1.61886zM233.2707,209.04253c-0.44257,-0.38562 -0.87702,-0.78168 -1.30135,-1.18799c-0.02752,0.38135 -0.06302,0.76078 -0.10685,1.13782c0.47187,0.02559 0.941,0.04232 1.4082,0.05017zM208.08009,205.07614c-1.52782,-1.67743 -2.87768,-3.58049 -3.83398,-5.61679c-0.46397,0.58379 -0.93923,1.15857 -1.42193,1.7273c1.67925,1.56053 3.43193,2.80401 5.25591,3.88949zM178.19258,185.21889c0.00046,-0.01585 0.00101,-0.03166 0.00166,-0.04745c-0.05209,-0.02974 -0.10414,-0.05952 -0.15613,-0.08934c0.05146,0.04572 0.10295,0.09131 0.15447,0.13678zM195.18555,192.89309c0.01306,-0.03462 0.02635,-0.06911 0.03987,-0.10346c-0.04455,-0.01437 -0.08911,-0.02879 -0.13367,-0.04325c0.03133,0.04882 0.0626,0.09772 0.0938,0.14671zM249.05707,190.2391c-0.23604,0.06864 -0.47209,0.13207 -0.70638,0.19059c0.28784,0.12347 0.57532,0.24775 0.86245,0.3728c-0.05322,-0.18697 -0.10522,-0.37478 -0.15606,-0.56339zM288.17516,177.15181c1.40583,0.74087 2.7787,1.52621 4.14273,2.4159c-1.34868,-1.03122 -2.62664,-1.84509 -4.14273,-2.4159zM188.09384,192.7535c0.67477,0.46821 1.39345,0.96187 2.06634,1.41469c-0.73793,-0.99831 -1.51519,-1.9605 -2.34584,-2.90849c0.07921,0.50452 0.17148,1.00357 0.2795,1.49381z" fill="#ded059"/><path d="M177.30968,196.9536c1.73538,-1.78521 3.31972,0.17021 3.31972,0.17021l1.50326,1.92136c1.13587,0.64228 2.1901,1.51624 3.4076,1.92684c1.55102,0.52308 3.52595,0.47989 5.36663,0.187c-5.47625,-1.99665 -10.99028,-5.27301 -15.17917,-9.15436c-2.95201,-2.73528 -5.92439,-6.96598 -8.48196,-10.169c-2.17391,-2.72254 -6.1711,-8.83893 -3.18336,-12.57648c2.8481,-3.56287 6.26485,-0.98912 9.20116,0.13951c0.25866,0.09942 0.52018,0.19201 0.78232,0.28337c-0.27205,-0.87779 -0.52696,-1.76447 -0.76283,-2.66095c-0.75656,-2.87552 -1.98989,-8.78076 -0.77664,-11.77145c0.7419,-1.82879 2.29395,-2.68771 3.9876,-2.88945c0.018,-0.09971 0.03692,-0.2004 0.05678,-0.30213c0.60415,-3.09446 2.82675,-8.66491 5.71548,-10.14734c1.61311,-0.82781 3.54963,-0.4099 5.31402,-0.21887c1.82629,0.19774 3.71089,0.48577 5.36705,1.37533c1.58068,0.84902 2.73737,2.46154 4.09541,3.70715c2.7958,2.56436 6.72742,5.78485 8.44275,9.48295c1.93241,4.16609 3.46842,8.93926 3.68696,13.71702c1.02579,1.26007 1.82923,2.82073 2.45661,4.48922c4.21935,-0.33124 5.06635,0.59304 9.24966,2.44958c4.74975,2.10793 10.37293,4.45531 13.31767,9.3746c1.22451,-2.96685 2.64803,-6.05598 4.16077,-8.6043c3.60844,-6.07866 7.35172,-11.9512 12.4803,-16.41802c1.96862,-1.71461 3.7226,-3.81378 5.92869,-5.11039c2.60569,-1.53147 7.95771,-4.05634 11.01393,-2.82177c1.8125,0.73217 2.74749,3.04177 4.0715,4.61701c0.13098,0.15583 0.2678,0.30804 0.40683,0.45908c0.47677,-0.52252 1.00773,-1.00063 1.59893,-1.42619c1.97557,-1.42208 8.15659,-0.95699 9.83603,-0.15648c1.29115,0.61543 2.30046,1.77585 3.3127,2.90644c0.17344,-0.48827 0.36529,-0.96964 0.57727,-1.44326c1.62381,-3.62793 2.22783,-4.86444 5.19382,-4.9502c-0.25375,-3.16587 -0.64801,-8.13341 -0.65486,-8.28047c-0.08997,-1.93121 -0.4365,-3.9046 -0.09835,-5.80056c0.2983,-1.67248 0.50714,-4.12601 1.95664,-4.61853c4.21214,-1.43123 7.9148,2.78367 10.68643,5.20644c3.81461,3.33446 7.68413,7.21392 9.68945,12.28283c0.68025,1.71949 0.9421,3.61247 1.40497,5.42137c1.12527,4.39759 1.84937,9.94368 -0.66972,14.0387c-0.79257,1.28841 -1.70982,2.31477 -2.7188,3.13705c0.01423,0.07354 0.02834,0.14772 0.04233,0.22255c0.43921,2.34848 1.16755,8.99483 -0.00355,11.3528c-0.58012,1.16804 -1.98859,1.57522 -3.14226,1.89422c-5.02916,1.39061 -7.99988,-4.9724 -9.73175,-9.06472c-0.01093,-0.02583 -0.10496,-0.29901 -0.25553,-0.74062c-0.31255,0.02637 -0.6233,0.0532 -0.93173,0.08141c-0.14219,-0.02524 -0.28427,-0.05086 -0.42624,-0.07686c0.00931,0.40098 0.00328,0.80675 -0.01906,1.21738c-0.01858,0.34151 -2.83303,9.92114 -3.50063,10.4587c-1.28345,1.03345 -2.51535,1.48658 -3.62402,1.44735c-1.65866,2.06298 -3.6449,3.4558 -5.78479,5.24255c-2.7831,2.25431 -5.8192,3.43873 -8.97804,4.01416c-0.47265,0.58407 -0.99806,1.12935 -1.5813,1.62894c-2.95508,2.53126 -6.54681,2.75725 -9.99758,3.39474c-2.67008,0.49327 -5.31239,1.28554 -8.014,1.45384c-10.35605,0.64516 -20.64785,-1.16903 -30.61961,-4.16278c-0.00197,-0.00059 -0.00394,-0.00118 -0.0059,-0.00177c-8.91041,2.34939 -18.23771,1.61798 -27.18304,0.04061c-2.33719,3.09559 -6.93121,3.4782 -10.4067,3.31429c-1.30709,-0.06164 -2.66399,0.08024 -3.9114,-0.36403c-1.77564,-0.63241 -3.33292,-1.87307 -4.99938,-2.80961l-2.14013,-2.57539c0,0 -1.58433,-1.95542 0.15105,-3.74063zM194.86312,186.6984c0.04835,-0.81409 0.26578,-1.62714 0.7109,-2.41661c0.76743,-1.36111 2.64138,-1.34239 4.05609,-1.5859c0.45846,-0.07891 0.92189,-0.13671 1.3894,-0.17528c0.01857,-0.07331 0.03779,-0.14613 0.05766,-0.21846c-2.75181,-2.74866 -2.03989,-10.46104 0.17902,-12.87405c0.78521,-0.85389 1.78516,-1.89439 2.83366,-2.19152c-0.47622,-2.80942 -1.44766,-5.57576 -2.62183,-8.23158c-1.39649,-3.15867 -5.07524,-5.93983 -7.4144,-8.14433c-1.06034,-0.9993 -1.91962,-2.33625 -3.15767,-3.0291c-1.16305,-0.65088 -2.53253,-0.66472 -3.81771,-0.87452c-0.95231,-0.15546 -1.9931,-0.63889 -2.88023,-0.21887c-0.80743,0.38229 -1.19301,1.47283 -1.60613,2.34299c-0.6594,1.38887 -1.07896,2.82713 -1.3229,4.29501c0.23102,0.13759 0.44633,0.2858 0.64239,0.44298c6.18558,4.9589 7.65388,14.30764 8.69865,22.14832l-0.03734,0.18693l0.04448,-0.00039l0.02585,3.72122c0.00006,0.00806 0.0001,0.01614 0.0001,0.02422c0,0.72294 -0.25713,1.37821 -0.67397,1.85602c0.53726,0.53812 1.0662,1.07611 1.58615,1.61106c1.08461,1.11589 2.25048,2.1737 3.30782,3.33185zM201.12021,188.0029c-0.34305,0.00498 -0.68557,-0.00314 -1.02702,-0.03726c-0.29332,-0.02931 -0.57202,-0.75117 -0.76406,-0.49964c-0.19109,0.25028 0.39105,0.49263 0.56944,0.75455c0.65753,0.96545 1.26792,1.97139 1.93744,2.92632c0.44051,0.62829 1.12873,0.91893 1.9109,0.95164c-0.31648,-0.27271 -0.64779,-0.55676 -0.99846,-0.85406c-0.44731,-1.10562 -1.1595,-2.14157 -1.62824,-3.24156zM208.60607,196.04827c-2.94326,1.61919 -6.51874,1.82703 -9.05227,-0.14126c0.15959,0.72537 0.35415,1.4507 0.44943,2.17612c2.09274,0.45373 4.18407,0.91855 6.30135,1.17285c2.62579,0.31538 5.4042,0.27491 8.16877,0.03401c-1.05404,-0.45958 -2.08832,-0.96261 -3.09344,-1.52283c-1.07065,-0.59675 -1.96438,-1.15666 -2.77383,-1.71889zM279.02091,194.52062c1.11833,-0.50303 2.18753,-1.16323 3.1873,-2.02286c1.61074,-1.32841 3.3087,-2.51136 4.69593,-4.09442c-0.10475,-0.232 -0.20224,-0.47549 -0.29204,-0.73c-0.66669,-1.88937 -0.55104,-4.0188 -0.82656,-6.0282c-0.01773,-2.09843 -0.12713,-4.27869 -0.21115,-6.48293c-3.12511,-1.0566 -6.2073,-2.27278 -9.26018,-3.6198c0.01306,0.06899 0.02509,0.13234 0.03605,0.18966c0.2303,1.2049 0.42093,2.39591 0.57863,3.58193c1.02001,1.83761 1.86309,3.83805 2.77399,5.67535c0.35853,4.21481 0.45655,9.16665 -0.68196,13.53127zM268.36524,169.05164c0.03973,-0.40076 0.0857,-0.80095 0.13877,-1.1994c-2.12586,-0.96824 -7.71913,-3.79595 -6.0474,-6.69008c0.99572,-1.7238 2.36519,-2.51976 3.90686,-2.73825c-0.07573,-0.05084 -0.15531,-0.09601 -0.23927,-0.13477c-1.02011,-0.47095 -2.19835,0.31471 -3.25125,0.68278c-3.82146,1.33588 -6.03525,3.78776 -9.17005,6.49081c-1.15772,0.99827 -2.45403,1.81764 -3.48032,2.98426c-2.05569,2.33675 -3.4511,5.30866 -5.18859,7.95307c-3.04825,4.63933 -5.69461,9.69867 -7.72937,15.0248c-0.60417,1.58147 -0.75334,3.37894 -1.50078,4.88066c-0.00885,0.01778 -0.01775,0.03552 -0.0267,0.05322l0.0073,0.00329l-0.9437,2.65839c-0.11224,0.33871 -0.28427,0.64458 -0.50162,0.9013c7.14913,1.63855 14.4293,2.49028 21.75085,2.04914c1.97824,-0.11919 3.92003,-0.61553 5.86846,-1.04621c-0.71297,-0.01407 -1.42225,-0.05591 -2.11127,-0.24501c-1.64247,-0.45077 -3.15413,-1.37204 -4.72707,-2.06994c-4.74014,-2.10315 -10.81474,-4.04601 -10.36643,-11.26797c0.42723,-6.88243 4.92224,-10.57611 9.5932,-13.80507c1.14583,-0.79209 2.19503,-1.81535 3.45459,-2.34457c1.5945,-0.66994 3.32667,-0.81031 4.99209,-1.20436c1.71947,-0.40684 3.69142,-0.92776 5.57171,-0.93609zM285.63241,166.57265c0.02543,-0.30698 0.05442,-0.61293 0.0873,-0.91769c-0.33696,-0.35185 -0.6616,-0.69273 -0.96761,-1.02244c-0.94119,-1.01408 -1.7197,-2.34072 -2.90911,-2.93811c-1.09901,-0.55198 -2.39495,-0.29634 -3.59782,-0.33002c-0.59272,-0.0166 -1.27598,-0.20631 -1.80403,0.05576c0.64469,0.31039 1.23517,0.58715 1.75097,0.79466c2.44061,0.98188 5.04912,2.46986 7.4403,4.35783zM293.43231,158.54791c-0.27374,-0.10385 -0.55482,-0.21931 -0.74439,-0.02795c-0.51037,0.51521 -0.62239,1.3778 -0.8812,2.09273c-0.36427,1.00625 -0.79814,1.99433 -1.11357,3.02033c2.4395,2.68969 4.77556,5.73732 6.10477,9.20804c0.21599,0.04489 0.43242,0.08899 0.6493,0.1323c-0.71147,-2.10541 -1.33748,-3.96077 -1.36704,-4.04829c-0.8058,-3.37244 -1.93684,-6.88975 -2.64787,-10.37715zM310.68311,169.36257c0.1736,-0.22059 0.33898,-0.45549 0.49539,-0.70571c1.70024,-2.72003 0.79501,-6.77694 0.06626,-9.64299c-0.40278,-1.58405 -0.61443,-3.24358 -1.19209,-4.75736c-1.61851,-4.24137 -5.16309,-7.45853 -8.28281,-10.24042c-1.63317,-1.45631 -3.69137,-3.51656 -5.63134,-4.67176c-0.22909,-0.13642 0.50615,0.3385 0.54224,0.62763c0.19734,1.58098 0.04671,3.19372 0.13364,4.78725c0.09458,1.73368 0.27545,3.46 0.41065,5.19026c0.11345,1.45191 0.28415,2.8697 0.49739,4.26735c3.48259,1.53635 5.65731,4.89365 8.33287,8.44317c2.03498,2.69969 3.52207,4.43378 4.6278,6.70258zM268.12857,174.33933c-1.45133,0.0436 -3.19405,0.56189 -4.38287,0.83409c-5.83354,1.33567 -13.16638,4.93601 -14.30117,12.49144c-0.5753,3.83035 5.3753,5.11258 7.40341,6.02021c1.34079,0.60004 2.61369,1.43248 4.0139,1.82395c1.01495,0.28376 2.08923,0.10922 3.13335,0.17428c3.03829,0.18934 6.31115,0.50156 9.46895,0.20842c0.60077,-1.0929 1.02517,-2.35881 1.31794,-3.69785c-0.58174,0.07976 -1.29286,-0.0733 -2.16508,-0.55265c-1.94894,-1.07106 -2.23437,-4.19122 -3.24339,-6.35388c-1.46753,-3.14541 -1.17352,-4.35264 -1.22905,-8.47852c-0.01066,-0.79181 -0.01916,-1.61925 -0.016,-2.46951zM231.38119,192.13646c-0.43837,-2.36709 -2.63335,-4.88259 -3.77925,-6.05527c-1.51286,-1.54821 -3.681,-2.00359 -5.54723,-2.94215c-2.98922,-1.50334 -5.79052,-3.05431 -8.98411,-3.31937c0.21298,1.15508 0.36584,2.26624 0.47356,3.27125c0.05647,0.52689 0.12028,1.05876 0.17757,1.59252c1.58051,0.5149 3.11715,1.05807 4.57553,1.55709c3.49878,1.19986 8.32337,2.36227 11.46666,4.52895c0.57645,0.39735 1.10667,0.86685 1.61727,1.36698zM190.17611,195.2824c1.61496,0.70012 3.24198,1.28087 4.83148,1.71392c-0.0347,-0.12939 -0.06689,-0.25906 -0.0937,-0.38933c-2.10071,-4.75407 -5.44846,-8.69757 -9.18161,-12.13949c1.40559,2.72916 2.86809,5.43643 4.33496,8.19109c0,0 0.73095,1.37271 0.10887,2.62381zM181.15617,160.28672c0.14361,1.50385 0.36327,3.00694 0.59582,4.48982c0.23915,1.52494 0.48934,3.06392 0.96581,4.51644c0.61284,1.86823 1.85402,3.53291 2.95945,5.28051c-0.69654,-4.89462 -1.68394,-9.89561 -4.31253,-13.97735c-0.06012,-0.09336 -0.13005,-0.19748 -0.20855,-0.30941zM213.51305,190.15722c-0.23966,0.81534 -0.59388,1.58154 -1.03825,2.28746c0.3038,0.18646 0.61439,0.36843 0.93336,0.54551c3.91827,2.17521 8.32188,3.41514 12.55241,4.66849c1.01663,-0.17657 2.02913,-0.43276 2.90776,-0.87511c-3.65111,-2.88965 -7.56681,-3.97743 -11.93943,-5.47696c-1.11758,-0.38415 -2.25935,-0.77492 -3.41585,-1.14939zM299.24084,161.81861c0.42116,1.8044 0.86907,3.61853 1.31019,5.47427c0.62485,1.84286 1.18352,3.71701 1.78884,5.56903c1.531,-0.14044 3.08813,-0.36051 4.51922,-0.86328c-0.04225,-0.11677 -0.08602,-0.23321 -0.13138,-0.34931c-0.2444,-0.62555 -0.81999,-1.00773 -1.21603,-1.52543c-2.0097,-2.62704 -3.85204,-5.42119 -5.96916,-7.93883c-0.10126,-0.12042 -0.20164,-0.2429 -0.30168,-0.36645zM307.9473,177.05768c-1.20535,0.38612 -2.45959,0.64278 -3.72889,0.82954c0.46944,1.06773 0.98831,2.10993 1.59785,3.08026c0.52126,0.82981 1.17308,1.57198 1.90452,2.16721c0.16592,0.13502 0.40125,-0.15967 0.60373,-0.12604c0.10887,0.01808 0.23203,0.38883 0.23185,0.26483c-0.00118,-0.82076 -0.15128,-1.63269 -0.23498,-2.44801c-0.12894,-1.25605 -0.2273,-2.51748 -0.37408,-3.76779zM184.32203,192.18349c-2.61028,-4.85278 -5.23009,-9.72468 -7.42106,-14.82695c-1.65442,-1.16418 -3.38731,-2.20167 -5.20902,-2.96722c-1.34103,-0.56355 -2.59854,-2.12571 -3.99512,-1.77285c-0.10144,0.02563 0.23036,0.06188 0.27377,0.16831c0.5081,1.24571 0.75439,2.62638 1.35298,3.81997c1.10013,2.19367 3.02305,3.71382 4.5416,5.56342c1.58501,1.93054 3.01983,4.04935 4.82103,5.72193c1.65829,1.53987 3.57876,2.99493 5.63583,4.29339zM208.5522,180.45664c-1.05923,0.47071 -1.95759,1.20943 -2.53286,2.28089c1.02323,0.1527 2.05063,0.36152 3.07374,0.60864c-0.12274,-0.95456 -0.3051,-1.92811 -0.54088,-2.88953zM207.03002,188.3965c0.50394,0.40585 0.99718,0.80603 1.48876,1.19812c0.17177,-0.24574 0.31517,-0.5024 0.4236,-0.76656c-0.63724,-0.15853 -1.27519,-0.30359 -1.91236,-0.43156zM290.43082,171.25524c0.0646,0.01881 0.12922,0.03755 0.19387,0.05621c-0.06416,-0.09213 -0.12904,-0.18384 -0.1946,-0.27513c0.00025,0.07297 0.00049,0.14594 0.00073,0.21892z" fill="#a89e43"/><path d="M180.43846,160.5878c1.95517,1.46871 0.65172,3.67178 0.65172,3.67178l-0.17016,0.04265c-2.37786,9.2192 4.54211,14.93122 9.65778,20.68684c0.92927,1.04552 1.39397,2.69623 2.56223,3.37201c0.96443,0.55788 2.16817,-0.00572 3.25225,-0.00859c3.23161,0.189 5.49886,0.56301 8.68967,-0.16083c2.26921,-0.51478 4.26805,-2.02105 6.41382,-2.99927c1.5705,-0.71596 3.19405,-1.53672 4.59883,-2.68417c-2.38078,0.60684 -4.93953,0.6932 -7.50729,0.58091c-1.57592,-0.06892 -3.24644,0.21313 -4.71571,-0.43271c-1.68052,-0.7387 -2.92524,-2.37929 -4.38786,-3.56893c-3.53314,-3.21148 -4.97817,-3.82536 -7.05604,-8.67893c-1.92889,-4.50557 -1.16729,-9.57889 2.01344,-13.12373c0.96571,-1.07625 2.35755,-1.63366 3.68432,-1.96137c1.68125,-0.41526 3.43955,-0.15627 5.15969,-0.22307c2.11883,-0.08229 7.12705,-0.34034 8.84701,0.27551c2.21089,0.79163 4.29369,2.21989 6.09851,4.0724c1.02915,-2.31394 2.39834,-4.60636 3.64329,-4.19181c2.17101,0.72291 3.21851,3.7411 4.12709,6.0775c0.55996,1.43993 0.06297,3.14357 0.07016,4.71565c0.01648,3.60413 0.344,6.87595 -1.59258,10.14671c-0.005,0.00845 -0.01001,0.01689 -0.01502,0.02532c-0.12666,1.40137 -0.42241,2.78635 -0.90862,4.12467c-0.50272,1.38377 -1.47943,2.45558 -2.41716,3.54979c0.23206,1.30813 0.64727,2.56681 1.40563,3.76782c0,0 1.30345,2.20307 -0.65172,3.67178c-1.95517,1.46871 -3.25862,-0.73436 -3.25862,-0.73436c-0.46771,-0.82579 -0.84185,-1.638 -1.14271,-2.44694c-1.32562,0.8001 -2.80799,1.27059 -4.19811,1.93128c-2.3484,1.11615 -4.58475,2.67554 -7.08259,3.24673c-3.99981,0.91465 -6.07394,0.52972 -10.05459,0.30881c-1.66544,-0.15941 -3.49324,0.34553 -4.99632,-0.47823c-1.63844,-0.89795 -2.52636,-2.96114 -3.85108,-4.37062c-5.74439,-6.11193 -12.31906,-12.47956 -11.7191,-22.42411c0.07171,-1.18865 0.53157,-2.30628 0.79736,-3.45942l0.79387,-1.58674c0,0 1.30345,-2.20307 3.25862,-0.73436zM216.06148,177.08347c-0.18044,-3.85088 -0.52753,-8.3816 0.30104,-12.26121c-1.52871,-2.01476 -3.53643,-3.64814 -5.63467,-4.39276c-1.24203,-0.44077 -2.60206,-0.14438 -3.90422,-0.15077c-3.33164,-0.01636 -11.63297,-1.4506 -10.65286,5.19554c0.13844,0.93875 0.17981,1.93222 0.55253,2.78616c0.57666,1.3212 1.34094,2.55763 2.24421,3.62152c0.99607,1.17319 2.26195,2.012 3.39293,3.018c1.04386,0.92856 1.89826,2.22489 3.13157,2.78569c1.00122,0.45527 2.15796,0.0936 3.23753,0.11042c2.66479,0.04149 5.13557,0.10782 7.33195,-0.71259z" fill="#d6c742"/><path d="M200.7482,191.95013c-2.25941,0.7274 -2.90496,-1.81849 -2.90496,-1.81849l-0.23756,-1.26609c-2.52888,-4.78992 -4.23714,-9.84109 -6.95088,-14.59498c0,0 -1.27068,-2.22724 0.70594,-3.65903c1.97662,-1.4318 3.2473,0.79544 3.2473,0.79544c1.49341,2.61906 3.33202,5.67274 4.49966,8.4805c0.86256,2.07414 1.47429,4.29465 2.52789,6.25355l0.72647,2.53582c0,0 0.64555,2.54588 -1.61386,3.27328z" fill="#d6d095"/></g></g><g stroke-width="0"><path d="M222.04621,183.58489c0,8.23911 -4.73752,14.91825 -10.58155,14.91825c-5.84402,0 -10.58155,-6.67912 -10.58155,-14.91825c0,-8.23911 4.73752,-14.91825 10.58155,-14.91825c5.84402,0 10.58155,6.67912 10.58155,14.91825z" fill="#ffffff"/><path d="M216.11856,186.40543c0,4.98477 -2.14675,9.02573 -4.79492,9.02573c-2.64817,0 -4.79492,-4.04096 -4.79492,-9.02573c0,-4.98477 2.14675,-9.02573 4.79492,-9.02573c2.64817,0 4.79492,4.04096 4.79492,9.02573z" fill="#000000"/></g><g stroke-width="0"><path d="M283.04621,184.58489c0,8.23911 -4.73752,14.91825 -10.58155,14.91825c-5.84402,0 -10.58155,-6.67912 -10.58155,-14.91825c0,-8.23911 4.73752,-14.91825 10.58155,-14.91825c5.84402,0 10.58155,6.67912 10.58155,14.91825z" fill="#ffffff"/><path d="M277.11856,187.40543c0,4.98477 -2.14675,9.02573 -4.79492,9.02573c-2.64817,0 -4.79492,-4.04096 -4.79492,-9.02573c0,-4.98477 2.14675,-9.02573 4.79492,-9.02573c2.64817,0 4.79492,4.04096 4.79492,9.02573z" fill="#000000"/></g></g></g></svg>