<svg version="1.1" xmlns="http://www.w3.org/2000/svg" xmlns:xlink="http://www.w3.org/1999/xlink" width="103.32248" height="142.16822" viewBox="0,0,103.32248,142.16822"><defs><linearGradient x1="214.32104" y1="159.35602" x2="214.32104" y2="210.00993" gradientUnits="userSpaceOnUse" id="color-1"><stop offset="0" stop-color="#ffffff"/><stop offset="1" stop-color="#ffffff"/></linearGradient><linearGradient x1="266.46644" y1="159.73178" x2="266.46644" y2="210.38573" gradientUnits="userSpaceOnUse" id="color-2"><stop offset="0" stop-color="#ffffff"/><stop offset="1" stop-color="#ffffff"/></linearGradient></defs><g transform="translate(-188.33876,-108.91589)"><g data-paper-data="{&quot;isPaintingLayer&quot;:true}" fill-rule="nonzero" stroke-linecap="butt" stroke-linejoin="miter" stroke-miterlimit="10" stroke-dasharray="" stroke-dashoffset="0" style="mix-blend-mode: normal"><path d="M193.82831,213.47551c-1.63942,-0.63906 -1.63942,-3.0744 -1.63942,-3.0744c0,-22.33829 -2.28043,-44.08474 -2.18394,-66.44281c0.37324,-1.66211 0.28839,-3.62855 1.11969,-4.98634c2.91847,-4.76678 11.63826,-4.58233 15.76425,-4.58604c10.92149,-0.00983 22.13421,1.01609 33.02278,0.00812c4.91586,-0.45507 9.62125,-1.04058 14.57722,-1.04058c7.05958,0 13.82443,0.43404 20.77801,1.84391c2.58634,0.52439 6.656,-0.92908 8.9787,0.46661c3.27086,1.96544 4.55093,7.18399 5.27996,11.29327c0.82875,4.67137 0.46333,9.64497 0.46333,14.4018c0,5.95226 0.47483,12.00074 -0.85784,17.72567c-0.71957,7.12703 -2.14508,13.61645 -1.94354,20.88437c0.04677,1.68663 0.57431,8.30388 0.12315,9.33012c-2.65911,6.04856 -10.43794,4.58646 -14.82176,4.58646c-12.74038,0 -25.61384,0.70506 -38.33183,-0.28666c-6.53684,-1.79118 -12.50065,-0.51483 -19.02182,0.27096c-5.83757,0.70342 -11.97591,0.0157 -17.84634,0.0157h-2.2c0,0 -0.63207,0 -1.26058,-0.41017z" fill="#d4d4d4" stroke="none" stroke-width="0.5"/><path d="" fill="#da7a00" stroke="none" stroke-width="0.5"/><path d="M188.93345,155.52927c-0.28337,-1.31275 -0.85161,-2.65046 -0.46316,-3.90433c0.67467,-2.1778 2.57928,-3.76418 3.74274,-5.72489c1.57241,-2.64992 2.39143,-5.69062 3.85993,-8.39952c2.63354,-4.85799 6.06779,-7.60931 9.84711,-11.38877c4.87122,-4.8714 9.9357,-9.70593 16.27479,-12.55973c0.35781,-0.7839 0.85629,-1.2824 0.85629,-1.2824l1.71651,-1.06209c2.51393,-0.49677 4.96308,-1.32832 7.40171,-2.23242c1.37522,0.13126 2.75715,0.19564 4.13609,0.19064c4.1072,0 8.97238,-0.58631 13.0343,0.03731c4.32192,0.66354 8.0846,2.16683 11.53964,4.17851c3.85695,1.26304 7.52779,3.20261 11.0742,6.15173c1.95615,2.42968 3.8204,4.86781 5.65203,7.31833c3.89382,3.35398 7.49179,6.38314 10.11566,11.30674c0.75564,1.4179 1.25123,2.94599 1.6735,4.50447c0.48335,0.64382 0.96258,1.29498 1.42999,1.9546c0,0.41029 0,0.80692 0,1.12473c0,0 0,0.61697 0.34887,1.15318c-0.34887,0.53621 -0.34887,1.15318 -0.34887,1.15318c0.00616,1.3876 -0.11022,2.75539 -0.26221,4.11998c-0.81439,1.58363 -1.65686,3.2673 -2.45066,4.88959c-2.29513,1.30205 -4.36351,2.41702 -6.1009,3.19722c-10.38028,4.66142 -22.25185,2.57593 -33.40367,3.11731c-13.49588,0.65518 -40.94873,-4.24278 -56.1417,-1.53604c-0.67511,-0.71617 -1.35612,-1.42516 -2.0337,-2.11825c-0.11272,-0.6817 -0.38488,-1.42125 -0.85238,-2.23186c-0.20364,-0.3531 -0.53619,-0.64436 -0.8695,-0.93047c0.0784,-0.34291 0.15736,-0.68591 0.2234,-1.02675z" fill="#da7a00" stroke="none" stroke-width="0.5"/><path d="M282.61376,228.61438c-0.83804,1.12516 -1.67994,2.21392 -2.50853,3.2596c0,0 -0.21539,0.26925 -0.59789,0.58239c-2.55808,3.5297 -3.07637,5.75234 -7.42061,7.76693c-1.03061,0.47795 -2.10821,0.83858 -3.22121,1.10151c-0.26451,0.65343 -0.60146,1.07465 -0.60146,1.07465l-3.21869,3.87957c-6.09313,3.09877 -12.65679,4.7468 -19.52309,4.80502c-0.00462,0.00006 -0.00699,0.00006 -0.00699,0.00006c-3.06993,0 -7.45556,0 -10.52549,0c0,0 -0.26579,0 -0.65785,-0.06976c-0.39206,0.06976 -0.65783,0.06976 -0.65783,0.06976l-4.36815,-0.02305c-5.283,-1.17868 -11.40156,-2.60949 -15.81978,-6.09772c-2.88514,-2.27788 -4.89453,-5.25121 -6.89828,-8.17981c-2.56492,-1.13361 -4.97563,-2.57701 -7.09821,-4.47576c-6.19198,-5.53896 -8.40862,-12.50595 -9.60528,-19.92736c0.65453,-1.37051 1.53781,-2.56856 2.9908,-3.34407c0,0 0.13118,-0.07496 0.29916,-0.21963c0.48772,-0.00148 0.98142,-0.00207 1.48192,-0.00207c5.56735,0 11.12022,-3.26249 16.65118,-3.38539c3.16196,-0.07027 21.0887,-0.63497 30.10697,-0.65785c14.45146,-0.03665 32.95253,-0.3276 47.16363,4.6049c1.02072,0.35427 2.01085,0.78701 2.98349,1.25617c0.30883,3.62715 -0.02434,5.80259 -2.08171,9.39198l-0.17553,0.07938c0,0 -0.83875,0.83875 -0.5434,1.85862c-2.01312,2.21227 -4.15576,4.38819 -6.14712,6.65191z" fill="#da7a00" stroke="none" stroke-width="0.5"/><path d="M214.26293,234.32209c5.88006,3.48462 16.69502,-3.91716 21.73678,0.08661c2.45455,1.9492 0.2838,6.33957 -2.45169,6.97262c-6.41684,1.485 -15.18189,1.88634 -21.51366,0.36623c-5.26359,-1.26366 -8.85396,-6.34183 -11.51194,-10.56914c-0.86186,-1.37074 -2.88278,-5.80504 -0.96661,-6.89999c0.67131,-1.13745 1.9095,-1.90051 3.32589,-1.90051c2.00351,0 3.65043,1.52675 3.84079,3.48025c2.2953,2.89661 4.02546,6.38089 7.54044,8.46392z" fill="#da7a00" stroke="none" stroke-width="0.5"/><path d="M287.14199,221.25891c-0.1882,0 -0.45231,-0.08757 -0.75789,-0.24268c-1.4045,-0.27968 -2.53422,-1.32164 -2.93972,-2.67639c-0.73076,-1.1337 -0.91178,-2.3336 0.37173,-3.06704c0.67131,-1.13745 1.9095,-1.9005 3.32589,-1.9005c2.00462,0 3.65226,1.52844 3.84111,3.48352c-0.34188,0.97178 -0.83035,1.99457 -1.5033,3.16862l-0.17553,0.07938c0,0 -0.421,0.421 -0.56143,1.02915c-0.45357,0.08178 -0.98429,0.12593 -1.60086,0.12593z" fill="#da7a00" stroke="none" stroke-width="0.5"/><path d="M291.30377,211.94798c0,0 0,-0.41893 0.30864,-0.63951c0.20849,3.23395 -0.20625,5.35517 -2.1326,8.71599l-0.17553,0.07938c0,0 -0.63173,0.63173 -0.60563,1.46534c-0.97541,1.25159 -2.00386,2.47309 -2.94224,3.72427c-0.36548,0.4873 -0.74757,0.99037 -1.14206,1.50141c-0.04838,0.09748 -0.10077,0.19262 -0.15693,0.28522c-0.84539,1.67994 -2.5372,3.58164 -4.60541,5.41414c-0.12984,0.13964 -0.25937,0.27732 -0.38846,0.41284c-0.71751,2.49847 -4.7388,7.41579 -7.481,8.68098c-0.62924,0.50185 -1.31983,0.94744 -2.04886,1.3177c-0.4261,0.42653 -0.93049,0.80017 -1.48135,1.12209c-0.54,0.43835 -1.09327,0.80775 -1.71662,1.10366c-0.02314,0.03302 -0.03918,0.05136 -0.03918,0.05136c-0.30271,0.32093 -0.59289,0.54555 -0.88617,0.70257c-0.04443,0.02817 -0.09191,0.05193 -0.14186,0.07065c-0.72376,0.33403 -1.48152,0.28826 -2.50506,0.28826l-0.73406,-0.08575c0,0 -0.76587,-0.09574 -0.67014,-0.86161c0.07959,-0.63668 0.62231,-0.67792 0.80312,-0.67372c0.1,-0.38244 0.51657,-0.52131 0.51657,-0.52131l0.41935,-0.11673c0.10923,-0.008 0.2286,-0.02783 0.35662,-0.05773c-0.12105,-0.02379 -0.24158,-0.05063 -0.36151,-0.08063c-4.07118,-1.0178 -3.37859,-4.31085 -1.19628,-6.35834c-0.27564,-1.11798 -0.17315,-2.3071 0.45217,-3.10594c2.49436,-3.18651 7.02461,-4.39782 10.57543,-6.56168c0.28757,-0.36954 0.64087,-0.6854 1.04234,-0.93001c0.50093,-0.49701 1.05783,-0.8959 1.63017,-1.19277c0.71788,-0.97478 2.02078,-3.79829 3.05974,-3.85601c0.60405,-0.39214 1.32468,-0.61989 2.09852,-0.61989c1.73543,0 3.20332,1.14551 3.68879,2.72165c2.78639,-3.59981 6.48407,-7.0919 6.45951,-11.99589z" fill="#da7a00" stroke="none" stroke-width="0.5"/><path d="M261.96172,141.47225c-0.54578,-0.54578 0,-1.09154 0,-1.09154l0.29103,-0.13547c0.78065,-3.04154 0.35333,-6.998 -0.25508,-10.03629c0,0 -0.15136,-0.75684 0.60547,-0.90821c0.75684,-0.15137 0.90821,0.60547 0.90821,0.60547c0.65581,3.28297 1.04376,7.42161 0.23896,10.71341l-0.69706,0.85261c0,0 -0.54578,0.54578 -1.09154,0z" fill="#844b00" stroke="none" stroke-width="0.5"/><path d="M251.30635,138.23531c-0.76711,-0.08524 -0.68187,-0.85235 -0.68187,-0.85235l0.07655,-0.68895c0.22504,-1.98 -0.08039,-3.90385 -0.08127,-5.89535c0,0 0,-0.77183 0.77183,-0.77183c0.77183,0 0.77183,0.77183 0.77183,0.77183c-0.00094,2.05357 0.2945,4.01948 0.07184,6.06583l-0.07655,0.68895c0,0 -0.08524,0.76712 -0.85235,0.68188z" fill="#844b00" stroke="none" stroke-width="0.5"/><path d="M250.12571,140.67945c0,-0.22537 0.0966,-0.42818 0.25064,-0.56929c0.03784,-0.39095 0.36733,-0.69658 0.7682,-0.69658c0.42627,0 0.77183,0.34556 0.77183,0.77183c0,0.22537 -0.09659,0.42818 -0.25064,0.56929c-0.03784,0.39095 -0.36733,0.69658 -0.76822,0.69658c-0.42627,0 -0.77183,-0.34556 -0.77183,-0.77183z" fill="#844b00" stroke="none" stroke-width="0.5"/><path d="M236.57038,140.21618c-0.77183,0 -0.77183,-0.77183 -0.77183,-0.77183l0.02604,-0.44584c0.89531,-3.25827 -0.01934,-7.10505 -0.02604,-10.42304c0,0 0,-0.77183 0.77183,-0.77183c0.77183,0 0.77183,0.77183 0.77183,0.77183c-0.00786,3.50105 0.87157,7.3684 -0.02604,10.8207l0.02604,0.04818c0,0 0,0.77183 -0.77183,0.77183z" fill="#844b00" stroke="none" stroke-width="0.5"/><path d="M230.14786,141.45128c-0.77183,0 -0.77183,-0.77183 -0.77183,-0.77183v-1.2351c0,-2.45654 0.25805,-5.07666 -0.22846,-7.48861c-0.01215,-0.0544 -0.01855,-0.11096 -0.01855,-0.16902c0,-0.04356 0.00361,-0.08628 0.01054,-0.12786c0.02918,-0.2272 0.15244,-0.52556 0.58148,-0.62291c0.01713,-0.00409 0.03447,-0.00761 0.05202,-0.01053c0.43704,-0.07783 0.66691,0.15156 0.78159,0.35091c0.05201,0.08268 0.08876,0.1759 0.10633,0.27574c0.49465,2.52702 0.25872,5.22084 0.25872,7.79228v1.2351c0,0 0,0.77183 -0.77183,0.77183z" fill="#844b00" stroke="none" stroke-width="0.5"/><path d="M242.25185,151.82614c-0.77183,0 -0.77183,-0.77183 -0.77183,-0.77183v-0.98808c0,-1.31017 0.42858,-3.19484 -0.36441,-4.26525c0,0 -0.42814,-0.6422 0.21408,-1.07033c0.6422,-0.42814 1.07035,0.21406 1.07035,0.21406c0.96251,1.54107 0.62367,3.33984 0.62367,5.12152v0.98808c0,0 0,0.77183 -0.77183,0.77183z" fill="#844b00" stroke="none" stroke-width="0.5"/><path d="M259.05216,154.75077c-0.73222,-0.24407 -0.48815,-0.97631 -0.48815,-0.97631l0.22224,-0.64752c0.10273,-1.48944 0.47922,-2.78355 0.47922,-4.29583c0,0 0,-0.77183 0.77183,-0.77183c0.77183,0 0.77183,0.77183 0.77183,0.77183c0,1.61412 -0.39322,3.0101 -0.50885,4.59689l-0.27181,0.83461c0,0 -0.24407,0.73222 -0.97629,0.48815z" fill="#844b00" stroke="none" stroke-width="0.5"/><path d="M278.21864,152.48572c-0.69034,-0.34518 -0.34518,-1.03552 -0.34518,-1.03552l0.18041,-0.29964c0.55388,-2.78049 0.97322,-5.40988 0.97322,-8.2479c0,0 0,-0.77183 0.77183,-0.77183c0.77183,0 0.77183,0.77183 0.77183,0.77183c0,2.9396 -0.4296,5.67059 -1.00295,8.54946l-0.31363,0.68844c0,0 -0.34516,0.69034 -1.03552,0.34518z" fill="#844b00" stroke="none" stroke-width="0.5"/><path d="M250.65053,153.80229c-0.77183,0 -0.77183,-0.77183 -0.77183,-0.77183v-0.24702c0.00415,-1.33933 -0.24462,-2.60036 -0.24702,-3.95234c0,0 0,-0.77183 0.77183,-0.77183c0.77183,0 0.77183,0.77183 0.77183,0.77183c-0.00262,1.35091 0.24337,2.60938 0.24702,3.95234v0.24702c0,0 0,0.77183 -0.77183,0.77183z" fill="#844b00" stroke="none" stroke-width="0.5"/><path d="M216.56175,145.40362c-0.77183,0 -0.77183,-0.77183 -0.77183,-0.77183v-0.49403c0,-2.44864 0.06442,-4.88168 -0.24106,-7.31487c0,0 -0.09574,-0.76587 0.67014,-0.86161c0.76587,-0.09574 0.8616,0.67014 0.8616,0.67014c0.311,2.49833 0.25298,4.9926 0.25298,7.50634v0.49403c0,0 0,0.77183 -0.77183,0.77183z" fill="#844b00" stroke="none" stroke-width="0.5"/><path d="M223.44754,151.54834c0,-0.61032 0.48261,-0.73803 0.68458,-0.76476c0.34703,-1.47514 0.15853,-3.32261 -0.38237,-4.63005c0,0 -0.28666,-0.71663 0.42997,-1.00327c0.71663,-0.28664 1.00327,0.42999 1.00327,0.42999c0.72412,1.86101 0.8848,4.27475 0.26261,6.21218l-1.22627,0.52776c0,0 -0.77183,0 -0.77183,-0.77183z" fill="#844b00" stroke="none" stroke-width="0.5"/><path d="M207.12427,149.42332c-0.34516,0.69034 -1.03552,0.34518 -1.03552,0.34518l-0.9207,-0.93737c0.02059,-2.29623 0.49403,-4.54381 0.49403,-6.91656c0,0 0,-0.77183 0.77183,-0.77183c0.77183,0 0.77183,0.77183 0.77183,0.77183c0,2.34234 -0.52004,4.66128 -0.49403,6.91657l0.06738,-0.44332c0,0 0.69034,0.34516 0.34516,1.03552z" fill="#844b00" stroke="none" stroke-width="0.5"/><path d="M231.60242,154.70605c0.01678,-1.58902 0.08194,-3.17527 -0.23525,-4.73547c0,0 -0.15136,-0.75684 0.60547,-0.90821c0.75684,-0.15137 0.90821,0.60547 0.90821,0.60547c0.36455,1.84983 0.26201,3.70512 0.26201,5.58581l-0.77183,-0.24702l-0.77183,0.24702c0,-0.1644 0.00105,-0.32882 0.00266,-0.49319l-0.00266,-0.00085c0,0 0,-0.02001 0.00321,-0.05355z" fill="#844b00" stroke="none" stroke-width="0.5"/><path d="M245.36496,125.3135c-0.69034,-0.34518 -0.34518,-1.03552 -0.34518,-1.03552l0.20514,-0.39294c0.78052,-2.34158 1.19549,-4.17726 1.19549,-6.67249c0,0 0,-0.77183 0.77183,-0.77183c0.77183,0 0.77183,0.77183 0.77183,0.77183c0,2.64658 -0.44643,4.67579 -1.27471,7.16064l-0.2889,0.59514c0,0 -0.34518,0.69034 -1.03552,0.34518z" fill="#844b00" stroke="none" stroke-width="0.5"/><path d="M234.3472,123.66584c-0.77183,0 -0.77183,-0.77183 -0.77183,-0.77183v-0.24702c0.00059,-2.62181 0.74105,-5.02121 0.74105,-7.65762c0,0 0,-0.77183 0.77183,-0.77183c0.77183,0 0.77183,0.77183 0.77183,0.77183c0,2.63738 -0.74167,5.04659 -0.74105,7.65762v0.24702c0,0 0,0.77183 -0.77183,0.77183z" fill="#844b00" stroke="none" stroke-width="0.5"/><path d="M221.99619,127.61816c-0.77183,0 -0.77183,-0.77183 -0.77183,-0.77183l0.06527,-0.80467c0.72438,-1.62129 0.92783,-3.3571 0.92282,-5.12381c0,0 0,-0.77183 0.77183,-0.77183c0.77183,0 0.77183,0.77183 0.77183,0.77183c-0.00511,1.99792 -0.25504,3.90386 -1.05335,5.74507l0.06527,0.1834c0,0 0,0.77183 -0.77183,0.77183z" fill="#844b00" stroke="none" stroke-width="0.5"/><path d="M195.81207,154.54336c-0.77183,0 -0.77183,-0.77183 -0.77183,-0.77183v-0.24702c0,-1.43267 0.26878,-3.08977 -0.20742,-4.44932c0,0 -0.24408,-0.73222 0.48815,-0.97629c0.73222,-0.24407 0.97631,0.48815 0.97631,0.48815c0.50436,1.57051 0.28663,3.29686 0.28663,4.93746v0.24702c0,0 0,0.77183 -0.77183,0.77183z" fill="#844b00" stroke="none" stroke-width="0.5"/><path d="M270.41214,143.92149c-0.77183,0 -0.77183,-0.77183 -0.77183,-0.77183l0.02064,-1.41244c0.94253,-1.88506 1.22141,-5.09059 1.21445,-7.23327c0,0 0,-0.77183 0.77183,-0.77183c0.77183,0 0.77183,0.77183 0.77183,0.77183c-0.00634,2.21104 -0.27885,5.63413 -1.25576,7.58794l0.02065,1.05776c0,0 0,0.77183 -0.77183,0.77183z" fill="#844b00" stroke="none" stroke-width="0.5"/><path d="M267.20087,156.02548c-0.77183,0 -0.77183,-0.77183 -0.77183,-0.77183l0.08149,-0.5922c0.63829,-1.2707 1.18881,-2.96644 1.15361,-4.34821c0,0 0,-0.77183 0.77183,-0.77183c0.77183,0 0.77183,0.77183 0.77183,0.77183c-0.02958,1.66989 -0.55873,3.51648 -1.31658,5.03857l0.08149,-0.09816c0,0 0,0.77183 -0.77183,0.77183z" fill="#844b00" stroke="none" stroke-width="0.5"/><path d="M257.07305,128.35922c-0.77183,0 -0.77183,-0.77183 -0.77183,-0.77183v-0.24702c0,-1.96652 0.00408,-3.87773 -0.24106,-5.83275c0,0 -0.09574,-0.76587 0.67014,-0.86161c0.76587,-0.09574 0.86161,0.67014 0.86161,0.67014c0.25165,2.01925 0.25298,3.9936 0.25298,6.02423v0.24702c0,0 0,0.77183 -0.77183,0.77183z" fill="#844b00" stroke="none" stroke-width="0.5"/><path d="M211.22546,136.67642c-0.69034,0.34518 -1.03552,-0.34518 -1.03552,-0.34518l-0.32851,-0.83921c0,-1.89381 0,-3.78764 0,-5.68146c0,0 0,-0.77183 0.77183,-0.77183c0.77183,0 0.77183,0.77183 0.77183,0.77183c0,1.89381 0,3.78764 0,5.68146l0.16554,0.14887c0,0 0.34518,0.69034 -0.34516,1.03552z" fill="#844b00" stroke="none" stroke-width="0.5"/><path d="M212.1154,154.79038c-0.77183,0 -0.77183,-0.77183 -0.77183,-0.77183c0,-1.48212 0,-3.21127 0,-4.69339c0,0 0,-0.77183 0.77183,-0.77183c0.77183,0 0.77183,0.77183 0.77183,0.77183c0,1.48212 0,2.96425 0,4.44637v0.24703c0,0 0,0.77183 -0.77183,0.77183z" fill="#844b00" stroke="none" stroke-width="0.5"/><path d="M252.13264,223.709c-0.77183,0 -0.77183,-0.77183 -0.77183,-0.77183v-0.24703c0,-2.25693 1.04609,-4.75126 0.28664,-6.9195c0,0 -0.24408,-0.73222 0.48815,-0.97631c0.73222,-0.24408 0.97629,0.48815 0.97629,0.48815c0.78934,2.45791 -0.20742,4.90368 -0.20742,7.40766v0.24703c0,0 0,0.77183 -0.77183,0.77183z" fill="#844b00" stroke="none" stroke-width="0.5"/><path d="M244.228,235.81299c-0.77183,0 -0.77183,-0.77183 -0.77183,-0.77183v-0.24702c0,-2.49319 -0.81028,-4.79883 -1.2246,-7.28372c0,0 -0.12687,-0.76134 0.63445,-0.88822c0.76132,-0.12689 0.88821,0.63445 0.88821,0.63445c0.42905,2.57539 1.24561,4.94065 1.24561,7.53749v0.24702c0,0 0,0.77183 -0.77183,0.77183z" fill="#844b00" stroke="none" stroke-width="0.5"/><path d="M257.10511,235.03529c0.20575,-0.07164 0.48324,-0.07633 0.76073,0.20114c0.54578,0.54578 0,1.09154 0,1.09154l-0.27848,0.07516l-0.24493,1.4696c-0.05526,0.37204 -0.37601,0.65746 -0.7634,0.65746c-0.36731,0 -0.6747,-0.25659 -0.75271,-0.6003l-0.24311,-0.97242l0.03543,-0.00885l-0.0527,-0.08404c-0.01062,-1.76053 -0.00577,-3.52116 -0.00577,-5.28174c0,0 0,-0.77183 0.77183,-0.77183c0.77183,0 0.77183,0.77183 0.77183,0.77183c0,1.15079 0.0032,2.30163 0.00128,3.45242z" fill="#844b00" stroke="none" stroke-width="0.5"/><path d="M271.64724,224.9441c-0.77183,0 -0.77183,-0.77183 -0.77183,-0.77183v-0.49403c0,-2.76237 0.15452,-5.55171 -0.23927,-8.28954c0,0 -0.10915,-0.76408 0.65493,-0.87324c0.76408,-0.10915 0.87324,0.65491 0.87324,0.65491c0.39938,2.81379 0.25478,5.66972 0.25478,8.50784v0.49403c0,0 0,0.77183 -0.77183,0.77183z" fill="#844b00" stroke="none" stroke-width="0.5"/><path d="M263.07378,228.81232c0.20555,0.22788 0.20555,0.54737 0.20555,0.54737l-1.50405,0.49109c-0.69965,-2.17865 -0.03614,-4.76288 -1.39209,-6.73251c0,0 -0.42814,-0.6422 0.21408,-1.07035c0.6422,-0.42814 1.07035,0.21408 1.07035,0.21408c1.34257,2.06301 0.84372,4.35745 1.40619,6.55032z" fill="#844b00" stroke="none" stroke-width="0.5"/><path d="M243.5851,221.15731c-0.69034,0.34516 -1.03552,-0.34518 -1.03552,-0.34518l-0.32851,-0.83921c0,-1.87493 0.44258,-5.80677 -0.61143,-7.22949c0,0 -0.42814,-0.6422 0.21408,-1.07035c0.6422,-0.42814 1.07035,0.21408 1.07035,0.21408c1.23217,1.97282 0.87069,5.71205 0.87069,8.08576l0.16554,0.14886c0,0 0.34518,0.69036 -0.34516,1.03552z" fill="#844b00" stroke="none" stroke-width="0.5"/><path d="M234.84125,235.56597c-0.77183,0 -0.77183,-0.77183 -0.77183,-0.77183v-0.92654c0.00241,-1.35788 -0.14185,-2.51359 -0.471,-3.82668c0,0 -0.1872,-0.74879 0.56158,-0.93599c0.74879,-0.1872 0.93599,0.56158 0.93599,0.56158c0.35767,1.43422 0.51467,2.71992 0.5171,4.20107v0.92654c0,0 0,0.77183 -0.77183,0.77183z" fill="#844b00" stroke="none" stroke-width="0.5"/><path d="M234.06941,237.75838c0,-0.42627 0.34556,-0.77183 0.77183,-0.77183c0.42627,0 0.77183,0.34556 0.77183,0.77183c0,0.42627 -0.34556,0.77183 -0.77183,0.77183c-0.42627,0 -0.77183,-0.34556 -0.77183,-0.77183z" fill="#844b00" stroke="none" stroke-width="0.5"/><path d="M250.15649,245.6938c-0.77183,0 -0.77183,-0.77183 -0.77183,-0.77183c0,-1.81149 0,-4.36403 0,-6.1755c0,0 0,-0.77183 0.77183,-0.77183c0.77183,0 0.77183,0.77183 0.77183,0.77183c0,1.81149 0,3.62296 0,5.43444v0.74107c0,0 0,0.77183 -0.77183,0.77183z" fill="#844b00" stroke="none" stroke-width="0.5"/><path d="M224.90973,235.38632c-0.34516,0.69034 -1.03552,0.34518 -1.03552,0.34518l-0.9207,-0.93737c0,-3.54062 0,-7.08123 0,-10.62186c0,0 0,-0.77183 0.77183,-0.77183c0.77183,0 0.77183,0.77183 0.77183,0.77183c0,3.54062 0,7.08123 0,10.62186l0.06738,-0.44332c0,0 0.69034,0.34516 0.34518,1.03552z" fill="#844b00" stroke="none" stroke-width="0.5"/><path d="M232.37104,223.46198c-0.77183,0 -0.77183,-0.77183 -0.77183,-0.77183v-0.98807c0,-2.36625 0.06209,-4.64434 -0.70146,-6.9195c0,0 -0.24407,-0.73222 0.48815,-0.97629c0.73222,-0.24408 0.97629,0.48814 0.97629,0.48814c0.80903,2.44175 0.78068,4.8693 0.78068,7.40767v0.98807c0,0 0,0.77183 -0.77183,0.77183z" fill="#844b00" stroke="none" stroke-width="0.5"/><path d="M216.98988,221.10917c-0.6422,0.42814 -1.07035,-0.21406 -1.07035,-0.21406l-0.59054,-0.94554c-0.06415,-2.34774 0.46716,-4.55543 0.46092,-6.89322c0,0 0,-0.77183 0.77183,-0.77183c0.77183,0 0.77183,0.77183 0.77183,0.77183c-0.00525,2.1801 -0.43309,4.27465 -0.52716,6.44588l0.39754,0.53659c0,0 0.42814,0.6422 -0.21408,1.07033z" fill="#844b00" stroke="none" stroke-width="0.5"/><path d="M213.60046,237.00848c-0.73222,-0.24408 -0.48815,-0.97629 -0.48815,-0.97629l0.21738,-0.62063c-0.01973,-1.71134 0.28311,-3.20278 -0.64104,-4.66668c0,0 -0.39711,-0.66185 0.26474,-1.05895c0.66183,-0.39711 1.05895,0.26474 1.05895,0.26474c1.08853,1.8862 0.86019,3.57678 0.84108,5.70816l-0.27667,0.8615c0,0 -0.24407,0.73222 -0.97629,0.48815z" fill="#844b00" stroke="none" stroke-width="0.5"/><path d="M207.66903,221.73283c-0.77183,0 -0.77183,-0.77183 -0.77183,-0.77183v-0.98807c0.00815,-2.31037 0.49403,-4.58598 0.49403,-6.91656c0,0 0,-0.77183 0.77183,-0.77183c0.77183,0 0.77183,0.77183 0.77183,0.77183c0,2.32755 -0.50353,4.61338 -0.49403,6.91657v0.98807c0,0 0,0.77183 -0.77183,0.77183z" fill="#844b00" stroke="none" stroke-width="0.5"/><path d="M201.18059,225.55553c-0.64221,0.42814 -1.07035,-0.21408 -1.07035,-0.21408l-0.54519,-0.83009c-0.65379,-1.98193 -0.03356,-4.07027 -0.54948,-6.0804c0,0 -0.1872,-0.74879 0.56158,-0.93599c0.74879,-0.1872 0.93599,0.56158 0.93599,0.56158c0.45808,1.87368 -0.17042,3.98336 0.4386,5.77658l0.44289,0.65203c0,0 0.42814,0.64221 -0.21408,1.07035z" fill="#844b00" stroke="none" stroke-width="0.5"/><path d="M266.70684,239.51828c-0.77183,0 -0.77183,-0.77183 -0.77183,-0.77183c0,-2.05851 0,-4.61105 0,-6.66954c0,0 0,-0.77183 0.77183,-0.77183c0.77183,0 0.77183,0.77183 0.77183,0.77183c0,2.05851 0,4.117 0,6.1755v0.49403c0,0 0,0.77183 -0.77183,0.77183z" fill="#844b00" stroke="none" stroke-width="0.5"/><path d="M278.78005,226.14842c0,-0.02831 0.00153,-0.05628 0.00449,-0.08381l0.03512,-0.65431c0.63701,-1.52637 0.20741,-4.40685 0.20741,-6.17845c0,0 0,-0.77183 0.77183,-0.77183c0.77183,0 0.77183,0.77183 0.77183,0.77183c0,2.15457 0.28598,4.69856 -0.28663,6.66661l0.00159,0.01005c0.02467,0.07552 0.03802,0.15616 0.03802,0.23992c0,0.09754 -0.01809,0.19087 -0.05113,0.27679c-0.07522,0.22141 -0.26116,0.49504 -0.72071,0.49504c-0.45955,0 -0.64548,-0.27361 -0.72071,-0.49504c-0.03302,-0.08592 -0.05113,-0.17925 -0.05113,-0.27679z" fill="#844b00" stroke="none" stroke-width="0.5"/><path d="M228.17169,245.94082c-0.77183,0 -0.77183,-0.77183 -0.77183,-0.77183v-0.49403c0.00858,-1.32758 -0.24702,-2.60189 -0.24702,-3.95232c0,0 0,-0.77183 0.77183,-0.77183c0.77183,0 0.77183,0.77183 0.77183,0.77183c0,1.35654 0.23985,2.61054 0.24702,3.95232v0.49403c0,0 0,0.77183 -0.77183,0.77183z" fill="#844b00" stroke="none" stroke-width="0.5"/><path d="M233.95654,184.68295c0,13.98769 -8.7911,25.32696 -19.63551,25.32696c-10.84439,0 -19.63551,-11.33926 -19.63551,-25.32696c0,-13.98769 8.7911,-25.32696 19.63551,-25.32696c10.84439,0 19.63551,11.33926 19.63551,25.32696z" fill="#ffffff" stroke="url(#color-1)" stroke-width="2"/><path d="M221.83291,186.37447c0,8.90126 -3.82884,16.11715 -8.55196,16.11715c-4.72312,0 -8.55196,-7.21589 -8.55196,-16.11715c0,-8.90126 3.82884,-16.11715 8.55196,-16.11715c4.72312,0 8.55196,7.21589 8.55196,16.11715z" fill="#000000" stroke="#000000" stroke-width="0.5"/><path d="M286.10194,185.05877c0,13.98769 -8.7911,25.32696 -19.63551,25.32696c-10.84439,0 -19.63551,-11.33926 -19.63551,-25.32696c0,-13.98769 8.7911,-25.32696 19.63551,-25.32696c10.84439,0 19.63551,11.33926 19.63551,25.32696z" fill="#ffffff" stroke="url(#color-2)" stroke-width="2"/><path d="M273.62671,187.51435c0,8.90126 -3.82884,16.11715 -8.55196,16.11715c-4.72312,0 -8.55196,-7.21589 -8.55196,-16.11715c0,-8.90126 3.82884,-16.11715 8.55196,-16.11715c4.72312,0 8.55196,7.21589 8.55196,16.11715z" fill="#000000" stroke="#000000" stroke-width="0.5"/></g></g></svg>