<svg version="1.1" xmlns="http://www.w3.org/2000/svg" xmlns:xlink="http://www.w3.org/1999/xlink" width="147.91405" height="134.91622" viewBox="0,0,147.91405,134.91622"><g transform="translate(-166.04298,-112.54189)"><g data-paper-data="{&quot;isPaintingLayer&quot;:true}" fill-rule="nonzero" stroke-linecap="butt" stroke-linejoin="miter" stroke-miterlimit="10" stroke-dasharray="" stroke-dashoffset="0" style="mix-blend-mode: normal"><path d="M218.01396,167.55591c0.57409,-2.76607 -0.09632,-5.49024 1.21615,-8.03484c1.51283,-2.9331 4.13449,-3.83009 6.29193,-5.79727l0.47186,-0.38072c0,0 1.2911,-1.03142 2.25105,0.43325c3.3816,0.50572 6.4299,-0.79093 9.81388,-0.76157c3.50097,0.03036 6.83196,0.81087 10.30815,-0.14055c6.31904,-1.72948 12.6433,-3.94693 18.87351,0.02349c3.50168,1.94583 6.53008,5.01324 10.03352,6.92709c2.25038,1.22932 4.50824,1.8393 6.67943,3.34936c2.93941,2.04435 4.94697,5.04517 7.38567,7.79077c4.04122,4.54978 7.9131,10.14591 7.58214,17.19162c-0.05017,1.06809 -0.97617,4.74058 -1.23895,5.83887c-3.62698,6.81451 -9.9845,9.63646 -15.94179,12.7704c-0.8275,0.43532 -1.55901,1.12097 -2.42449,1.44481c-2.78085,1.0405 -6.40232,0.93134 -9.3137,1.34096c-3.40718,0.47937 -6.95584,1.33348 -10.41796,1.17588c-3.59812,-0.16379 -7.11188,-1.39411 -10.67647,-1.93486c-3.40445,-0.60819 -6.99859,-1.40222 -10.12635,-3.29929c-2.16132,-1.31091 -4.13811,-3.12083 -6.38049,-4.2778c-5.35938,-2.76521 -12.62151,-4.2631 -15.85729,-10.78587c-0.76328,-1.53864 -0.87938,-2.76298 -1.30856,-4.39658c-0.25321,-0.96379 -0.82282,-1.87426 -0.81021,-2.87373c0.01417,-1.12339 0.59092,-2.11197 0.88637,-3.16797l0.40354,-0.76496c0,0 0.12085,-0.19033 0.33551,-0.3859c-0.45227,-4.40234 1.10042,-7.12603 1.96352,-11.2846z" data-paper-data="{&quot;index&quot;:null}" fill="#9e9e9e" stroke="none" stroke-width="0.5"/><path d="M243.94159,155.13545c3.33572,0 3.33572,3.60651 3.33572,3.60651v0.73836c0,0.59553 0.01512,4.41503 -0.05352,4.82756c-0.32914,1.97782 -1.19553,4.09914 -1.62921,6.09204c-0.13372,0.61447 -0.91292,4.53675 -1.03856,4.88179c-0.9869,2.71005 -2.59655,4.12752 -4.20431,6.2051c-1.94038,2.50739 -3.47727,5.42914 -6.01112,7.4539c-2.18555,1.74646 -4.85616,1.9728 -6.70696,4.10112c0,0 -2.35872,2.55018 -4.71741,0c-2.35872,-2.55018 0,-5.10036 0,-5.10036c2.28898,-2.38983 5.02632,-2.78077 7.40687,-4.75926c2.10621,-1.75049 3.28377,-4.20497 4.91573,-6.32892c1.15199,-1.49927 2.39496,-2.18577 3.08023,-4.13201c0.44616,-1.26714 0.49533,-2.65879 0.78257,-3.97859c0.72449,-3.3288 1.50426,-5.85716 1.50426,-9.26238v-0.73836c0,0 0,-3.60651 3.33572,-3.60651z" data-paper-data="{&quot;index&quot;:null}" fill="#696969" stroke="none" stroke-width="0.5"/><path d="M260.1042,154.15096c3.33572,0 3.33572,3.60651 3.33572,3.60651l-0.01656,1.58946c-0.30977,3.28446 -0.38959,6.6141 -0.9371,9.81759c-0.87572,5.12396 -3.13931,9.66304 -5.00887,14.38404c-1.40558,3.54937 -2.71023,7.23731 -5.18288,10.14727c-2.5413,2.99076 -5.97978,5.07234 -9.20205,7.06468c0,0 -2.89622,1.78932 -4.55119,-1.34199c-1.65497,-3.13132 1.24124,-4.92065 1.24124,-4.92065c2.64994,-1.63578 5.52394,-3.30658 7.6435,-5.73365c1.93367,-2.21422 2.84641,-5.35281 3.92283,-8.06573c1.64558,-4.14739 3.8089,-8.18187 4.55212,-12.68936c0.50625,-3.0703 0.59784,-6.23184 0.88405,-9.3799l-0.01656,-0.87174c0,0 0,-3.60651 3.33572,-3.60651z" data-paper-data="{&quot;index&quot;:null}" fill="#696969" stroke="none" stroke-width="0.5"/><path d="M275.58388,160.304c3.33572,0 3.33572,3.60651 3.33572,3.60651c0,1.64081 0,4.01999 0,5.6608c-0.0203,2.35677 -0.58072,4.32598 -0.68936,6.62327c-0.40892,8.64604 -2.30695,16.66816 -7.29059,23.63867c-2.32198,3.2477 -5.46206,5.13137 -8.02145,7.97589c0,0 -2.35871,2.55018 -4.71741,0c-2.35872,-2.55018 0,-5.10036 0,-5.10036c2.43436,-2.58357 5.34029,-4.28868 7.45825,-7.28365c2.06326,-2.91762 2.97414,-5.3661 4.02515,-8.76997c0.32366,-1.04823 1.28133,-2.82199 1.49646,-4.03944c0.39656,-2.24421 0.25524,-4.60738 0.39107,-6.86933c0.13127,-2.18596 0.70357,-3.98433 0.67648,-6.17507c0,-1.64081 0,-3.28162 0,-4.92243v-0.73836c0,0 0,-3.60651 3.33572,-3.60651z" data-paper-data="{&quot;index&quot;:null}" fill="#696969" stroke="none" stroke-width="0.5"/><path d="M289.69772,176.79416c3.33572,0 3.33572,3.60651 3.33572,3.60651v1.72285c-0.0993,4.84688 -1.88805,10.07689 -3.70214,14.50919c0,0 -1.35477,3.29567 -4.40298,1.83093c-3.04822,-1.46474 -1.69345,-4.76041 -1.69345,-4.76041c1.3709,-3.31823 3.27372,-7.94999 3.12714,-11.57972v-1.72285c0,0 0,-3.60651 3.33572,-3.60651z" data-paper-data="{&quot;index&quot;:null}" fill="#696969" stroke="none" stroke-width="0.5"/><g data-paper-data="{&quot;index&quot;:null}" fill="#9e9e9e" stroke="none" stroke-width="0.5"><path d="M284.46195,244.4196c-0.99043,-0.02358 -2.0915,0.26308 -2.96329,-0.24563c-4.37545,-2.5532 -4.22609,-9.36108 -0.56909,-12.57199c0.48162,-0.42288 0.89378,-0.74771 1.26384,-0.9949c-0.6319,-1.37487 -1.28907,-2.72065 -1.84423,-4.15033c-0.57786,-1.48818 -0.54475,-3.1741 -0.85113,-4.75374c-0.86833,-4.47706 -4.22866,-10.13117 -8.41407,-11.38427l-1.48087,-0.8981c0,0 -2.48333,-1.78995 -0.82778,-4.47486c1.65555,-2.68492 4.13888,-0.89497 4.13888,-0.89497l-0.11501,0.08638c1.43024,0.48767 2.71787,1.17248 3.88093,2.01624c0.33328,-0.58172 0.91161,-1.1 1.89857,-1.33712c0.12163,-0.02922 0.23932,-0.05174 0.35317,-0.06805c0.07537,-0.22876 0.18809,-0.42785 0.34524,-0.58889c1.199,-1.2287 3.16748,-1.52494 4.90123,-1.2091c0.24461,-0.66518 0.75865,-1.31163 1.7677,-1.70834c2.80489,-1.10277 3.82487,1.92982 3.82487,1.92982c1.19553,3.82154 4.18427,6.5739 4.71018,10.79948c0.2757,2.21517 0.02236,4.80233 0.02236,7.03955c0,6.17971 -0.14601,12.08403 -0.76099,18.20784l-0.26505,0.33777l0.15307,0.06206l-0.65846,1.89844c-0.40628,1.26016 -1.51498,2.16438 -2.81903,2.16438c-0.264,0 -0.51997,-0.03706 -0.76375,-0.10662c-1.44368,0.93143 -3.49969,0.87897 -4.9273,0.84498z"/><path d="M262.62516,245.68697c-1.43897,0.18604 -2.9576,-0.34962 -4.421,-2.02013c-0.87406,-0.99778 -0.69445,-2.65488 -0.85231,-4.01851c-0.37628,-3.25018 1.22837,-5.8768 1.90322,-8.82628c0.24717,-1.08024 0.93751,-2.02212 0.83064,-3.19559c-0.44092,-4.8418 -1.23795,-9.72088 -1.80482,-14.58361c0,0 -0.37019,-3.20194 2.59134,-3.60219c0.9574,-0.12939 1.64397,0.11768 2.13479,0.51132c0.2709,-0.86119 0.91588,-1.78504 2.41806,-1.98806c2.96154,-0.40024 3.33173,2.8017 3.33173,2.8017c0.48317,4.2935 2.50482,8.01511 2.96003,12.31206c0.21378,2.0179 -0.24501,4.14749 0,6.15305c0.34653,2.83659 0.44269,5.60482 0.46852,8.4428c0.46441,0.86282 0.46441,1.79635 0.46441,1.79635l-0.08911,1.521l-0.44015,1.90349c-0.21525,1.02552 -0.88227,1.86552 -1.76287,2.26249c-1.8335,2.53875 -5.12154,3.33959 -7.7325,0.53012z"/><path d="M271.32434,242.63586c0.25475,5.8826 -9.77798,5.43542 -12.06241,1.99257c-1.44285,-2.1745 -1.71107,-7.48075 2.11042,-7.48075c3.21695,0 2.27312,1.40765 2.94358,3.04949c0.48039,1.17641 1.95876,-0.06405 2.38229,-0.08949c0.46717,-0.32789 1.02448,-0.51833 1.62295,-0.51833c1.46575,0 2.68471,1.14235 2.93679,2.64852c0.03738,0.12506 0.06031,0.25732 0.06639,0.39797z"/><path d="M283.92464,241.12585c0.4316,-0.81663 0.57984,-1.94172 1.18233,-2.57233c0.09189,-0.09617 0.19434,-0.18085 0.30997,-0.25117c0.07469,-0.04543 0.15358,-0.07934 0.23567,-0.10425c0.38193,-0.19195 0.8077,-0.2991 1.25663,-0.2991c0.30244,0 0.59437,0.04864 0.86948,0.13906c0.05476,-0.03306 0.10684,-0.07276 0.15581,-0.12019c1.30686,-1.26601 5.82158,-2.53838 5.53917,1.43112c-0.16005,2.24972 -1.41799,3.36429 -3.07511,4.53136c-0.80437,0.5665 -1.61036,0.55042 -2.62074,0.47239c-0.59127,-0.04565 -2.05666,0.17226 -2.38338,-0.4459z"/><g><path d="M211.25603,239.21125c-0.41638,-0.26569 -0.76789,-0.63757 -1.02264,-1.08119c-0.1383,-0.15639 -0.26642,-0.3223 -0.37958,-0.5022c-1.29923,-2.06524 -1.71508,-4.94025 -1.24727,-7.52248c0.68631,-0.44923 1.43779,-0.74915 2.14259,-1.07934c2.93829,-0.0808 6.53476,-3.55369 6.04599,-6.50831c0.14322,-0.51185 0.2743,-1.01402 0.39136,-1.49494c0.7505,-3.08321 0.16743,-7.02049 0.16743,-10.19049c0,-6.11402 0.96306,-12.50907 -1.96613,-17.97479l0.03046,0.22388c0,0 -0.60829,-0.65766 -0.92585,-1.64899c-0.78029,-0.1717 -1.62655,-0.71285 -2.06514,-2.13545c-0.94381,-3.06128 1.88762,-4.08169 1.88762,-4.08169l4.90101,0.96806c0.15418,0.29194 0.31,0.5829 0.46727,0.87293c0.46725,0.3022 0.7478,0.60553 0.7478,0.60553l1.11185,1.39308c1.13469,2.17011 1.84277,4.3681 2.28026,6.59984c1.59954,-0.41273 2.60145,0.77526 3.00572,1.40213c3.35003,-0.60235 6.82197,2.60214 7.33856,5.91513c0.22853,1.46557 -1.1567,2.70064 -1.62582,4.09768c-0.50826,1.51362 -1.02442,3.29937 -1.68004,5.0209c-0.30808,2.80132 -1.30421,4.80652 -2.42898,7.38556c-2.06008,4.72361 -2.5074,9.10323 -5.74443,13.25155c-1.11227,1.20514 -2.22507,2.40969 -3.33854,3.61355l-2.1628,2.33837c-0.64143,0.6935 -1.52757,1.12244 -2.50635,1.12244c-0.40795,0 -0.79983,-0.07452 -1.16458,-0.21165c-0.95681,0.38812 -1.85412,0.3884 -2.25976,-0.3791z"/><path d="M231.60979,245.578c-1.16128,-0.34777 -4.2411,-3.26815 -3.50244,-5.1344c-0.46729,-3.43416 1.79187,-6.12256 5.05194,-7.04594c1.05163,-0.29786 2.0082,-0.25191 2.95916,-0.08059c0.77935,-1.64139 1.41877,-3.37587 2.10641,-5.17304c1.00723,-2.63243 3.1373,-5.14948 3.72939,-7.9052c0.99679,-4.63927 1.27919,-9.2501 1.27919,-13.99537c0,0 0,-3.22687 2.98459,-3.22687c2.02193,0 2.67408,1.48094 2.88443,2.4363c0.54112,-0.59243 1.29276,-0.95957 2.12369,-0.95957c1.53649,0 2.80181,1.25531 2.96646,2.86909l0.22274,1.92651l-0.08346,0.01127l0.10073,0.18846c0.02774,10.43686 -4.06072,20.54484 -10.56356,28.21929c-1.55889,1.83976 -2.91837,3.53789 -4.87001,4.93656c-0.64147,0.45972 -1.20998,1.19281 -1.93427,1.41163c-1.79245,1.18411 -3.92858,1.979 -5.45499,1.52188z"/><path d="M217.78467,212.75762c0.15723,-0.10817 0.31067,-0.20727 0.46036,-0.29754c0.53074,-0.52453 1.23735,-0.8445 2.01308,-0.8445c1.64835,0 2.98459,1.44472 2.98459,3.22687c0,0.48509 -0.09901,0.94518 -0.27635,1.35794c0.0054,0.37903 -0.00521,0.77499 -0.03154,1.18494c0.71025,0.85849 0.61418,2.0068 0.46392,3.1577c-0.42944,3.28941 -2.27637,9.2657 -5.11903,10.8024c-0.33579,0.50662 -0.80387,0.9038 -1.34965,1.13244c-0.11368,0.77007 -0.34905,1.59789 -0.56648,2.06254c0.11078,0.33698 0.16671,0.69106 0.17234,1.04666c0.00078,0.03053 0.00119,0.06119 0.00119,0.09193c0,0.20868 -0.01833,0.41276 -0.05333,0.61043c0.035,0.19767 0.05333,0.40172 0.05333,0.61043c0,1.78214 -1.33624,3.22687 -2.98459,3.22687c-1.64835,0 -2.98459,-1.44472 -2.98459,-3.22687c0,-0.15137 0.00964,-0.3003 0.0283,-0.44612c-0.01549,-0.02947 -0.03055,-0.05897 -0.04514,-0.08846c-4.75051,-1.18674 -2.22868,-9.02758 1.08546,-8.8912c1.20445,-1.40523 3.05082,-2.43521 3.74109,-4.23697c1.18736,-3.09924 0.99043,-7.92688 2.3677,-10.26689z"/></g></g><path d="M281.33345,168.13347c0,-1.00515 0.42507,-1.90296 1.09145,-2.49476c0.16854,-0.22184 0.36392,-0.41896 0.58077,-0.58553l0.05825,-0.07346l0.04549,-0.00274c0.46717,-0.32789 1.02448,-0.51833 1.62295,-0.51833c0.7864,0 1.50177,0.32883 2.03488,0.86626l0.05211,0.03381l0.37204,0.10056l0.11323,0.21424l0.17359,0.11261l0.18245,0.09863l0.63559,0.1718l0.05017,0.09492l0.11309,0.04366l0.41431,0.29864l0.18724,0.22267l0.32061,0.17332l0.14319,0.13271l0.17761,0.06858l0.25971,0.1872l0.04629,0.02502l0.63722,0.17224l0.66944,0.16085l0.07438,0.04021l0.08315,0.02248l0.01663,0.03147l0.02075,0.01121l0.00881,0.00191h0.20025l0.02789,-0.0201l0.08368,0.0201h0.08315l0.55243,0.14932h0.13811l0.242,0.06541l0.24866,-0.0215l0.585,0.10541h0.38689l0.02789,-0.0201l0.08368,0.0201h0.08315l0.66531,0.17983l0.66944,0.16085l0.07438,0.04021l0.08315,0.02248l0.00632,0.01195l0.02699,0.00973l0.08478,0.02292h0.32311l0.242,0.06541l0.24866,-0.0215l0.82863,0.14932l0.2171,0.10205l0.04034,0.00336h0.08052l0.03579,0.00967l0.07939,0.00661l0.01767,0.00637l0.07409,-0.04005l0.63313,0.24448l0.65222,0.17629l0.05017,0.09492l0.11309,0.04366l0.10062,0.07253l0.21021,0.04546l0.17045,0.08729l0.18805,0.01564l0.41431,0.14932l0.33632,0.23139l0.37542,0.14497l0.25971,0.1872l0.19651,0.10623l0.21309,0.0768l0.18123,0.12469l0.2097,0.05039l0.5356,0.28954l0.23458,0.0634l0.01496,0.00863l0.05257,-0.0155l0.63564,0.41235l0.65407,0.37716l0.01475,0.05672l0.01455,0.00943l0.34527,0.37329l0.01396,0.00906l0.38427,0.20774l0.36428,0.33758l0.4114,0.26688l1.79538,1.94111l0.15295,0.27561l0.21996,0.21619l1.38105,2.23976l0.06344,0.19202l0.12274,0.15482l0.82863,1.7918l0.02748,0.13367l0.07415,0.111l0.23011,0.62196l0.08259,0.17858l0.0713,0.34691l0.15468,0.31356l0.08898,0.38482l0.36179,0.97788l0.10383,0.16839l0.04038,0.12227l0.0878,0.05424l0.16307,0.70516l0.22612,0.68453l-0.04523,0.09779l0.02913,0.12596v0.0507l0.04899,0.21188v0.07869l0.03115,0.0711l0.12417,0.67128l0.04143,0.17914l0.12969,0.28044l0.08647,0.42074l0.17066,0.38952l0.13811,0.74658l-0.01414,0.32104l0.0721,0.31181v0.0507l0.04899,0.21188v0.39725l0.08911,0.38539v0.34934l0.04899,0.21188v0.39725l0.08911,0.38539v0.27447l0.06275,0.1696l0.07637,0.60553l0.1371,0.59289v1.82338l0.09749,0.63248l-0.01989,0.26885l0.0605,0.26166v0.20002l0.04899,0.21188v0.39725l0.08911,0.38539v11.94536l-0.1428,0.6176l0.06006,0.23805l-0.19732,0.35554l-0.09301,0.40224l-0.18165,0.11223l-0.01274,0.04135l-0.11534,0.19595l-0.0466,0.22673l-0.04325,0.09352l-0.00945,0.03065l0.00883,0.03498l-0.04411,0.07948l-0.0263,0.0853l-0.36818,0.62553l-0.35283,0.63578l-0.05881,0.06358l-0.04601,0.07819l-0.00577,0.00124l-0.06892,0.11177l-0.21996,0.21619l-0.15295,0.27561l-0.82863,0.8959l-0.4114,0.26688l-0.36428,0.33758l-0.2762,0.14932l-0.17483,0.042l-0.0923,0.05987l-0.01219,-0.00359l-0.11162,0.07679l-0.41431,0.14932l-0.47836,0.03979l-0.46546,0.12581h-1.38105l-0.35646,-0.09634h-0.36743l-0.55243,-0.14932l-0.01496,-0.00863l-0.05257,0.0155l-0.63564,-0.41235l-0.37094,-0.2139l-0.09826,0.02898l-0.32885,-0.21332l-0.37204,-0.10056l-0.11323,-0.21424l-0.50489,-0.32753l-0.41472,-0.44839l-0.03287,-0.0071l-0.04601,-0.07819l-0.05881,-0.06358l-0.35283,-0.63578l-0.36818,-0.62553l-0.0263,-0.0853l-0.01985,-0.03576l-0.36818,-0.62553l-0.0263,-0.0853l-0.04411,-0.07948l0.00883,-0.03498l-0.00945,-0.03065l-0.04325,-0.09352l-0.10407,-0.50637l-0.18102,-0.48038l-0.04201,-0.31803l-0.02922,-0.01805l-0.16307,-0.70516l-0.22612,-0.68453l0.04523,-0.09779l-0.02913,-0.12596v-0.87501l-0.08015,-0.43326l0.01414,-0.32104l-0.0721,-0.31181v-0.12843l-0.08015,-0.43326l0.01414,-0.32104l-0.0721,-0.31181v-1.58022l-0.02174,-0.30561l-0.11636,-0.50322v-0.08992l-0.10988,-0.53462l-0.16632,-0.71931v-0.08992l-0.01859,-0.09047l0.01859,-0.03016v-0.28811l-0.04899,-0.21188v-0.39725l-0.08911,-0.38539v-0.67739l-0.08015,-0.18293l-0.13811,-0.74658l0.01414,-0.32104l-0.0721,-0.31181v-0.27447l-0.06275,-0.1696l-0.07637,-0.60553l-0.1371,-0.59289v-0.27774l-0.08015,-0.43326l0.01414,-0.32104l-0.0721,-0.31181v-0.38569l-0.02174,-0.30561l-0.11636,-0.50322v-0.26444l-0.02327,-0.04362l-0.2762,-1.04522l-0.01387,-0.44984l-0.10097,-0.43664v-0.12843l-0.08015,-0.43326l0.01414,-0.32104l-0.0721,-0.31181v-0.53501l-0.00932,-0.13093l-0.11778,-0.21224l-0.00494,-0.01754l-0.04731,-0.02923l-0.17978,-0.77752l-0.21583,-0.76673l0.01758,-0.0339l-0.02747,-0.13363l-0.15468,-0.31356l-0.24841,-1.07431l-0.37808,-1.22628l-0.0368,-0.51719l-0.11636,-0.50322v-0.04006l-0.33157,-0.59745l0.01435,-0.05683l-0.00798,-0.01618l-0.05864,-0.25363l-0.04659,-0.10075l-0.17315,-0.28079l-0.06344,-0.19202l-0.12274,-0.15482l-0.13811,-0.29864l-0.0466,-0.22673l-0.11534,-0.19595l-0.14091,-0.45704l-0.24959,-0.31481l-0.29841,-0.64526l-0.20595,-0.20243l-0.31081,-0.50408l-0.08795,-0.11094l-0.44919,-0.41628l-0.00521,-0.10114l-0.69554,-0.75201l-0.38273,-0.31036l-0.13547,-0.18026l-0.1842,-0.11949l-0.06724,-0.07271l-0.16842,-0.12139l-0.17193,-0.20447l-0.38542,-0.26518l-0.58805,-0.38147l-0.05881,-0.06358l-0.04781,-0.03289l-0.08445,-0.04565l-0.36428,-0.33758l-0.08009,-0.05196l-0.19457,-0.10518l-0.02835,-0.01022l-0.03234,0.00954l-0.07351,-0.04768l-0.07891,-0.02843l-0.57856,-0.39807l-0.25674,-0.16655l-0.09123,-0.04932l-0.23458,-0.0634l-0.29002,-0.16723l-0.32086,-0.07709l-0.55243,-0.29864l-0.36428,-0.33758l-0.4114,-0.26688l-0.0164,-0.01774l-0.17041,-0.11054l-0.46849,-0.20261l-0.10267,-0.08017l-0.12363,-0.02971l-0.55243,-0.29864l-0.36428,-0.33758l-0.08009,-0.05196l-0.38427,-0.20774l-0.14319,-0.13271l-0.17761,-0.06858l-0.21986,-0.15848l-0.58756,-0.21175l-0.15817,-0.10882c-0.03717,-0.01155 -0.07402,-0.02385 -0.11059,-0.0369l-0.12218,-0.02936l-0.21838,-0.11805c-0.46436,-0.23799 -0.86283,-0.60177 -1.1578,-1.05062l-0.06795,-0.06298l-0.00252,-0.04918c-0.30326,-0.50508 -0.47941,-1.10765 -0.47941,-1.75469z" data-paper-data="{&quot;index&quot;:null}" fill="#7d7d7d" stroke="none" stroke-width="0.5"/><g><path d="M169.44224,132.53264c-0.43918,-1.38727 -0.92512,-2.77097 -1.16755,-4.21723c-0.21029,-1.25454 0.08818,-2.58697 -0.19836,-3.82255c-0.46741,-2.01553 -1.75388,-4.64828 -1.77818,-6.7177c-0.00089,-0.07563 -0.00088,-0.1512 -0.00006,-0.2267l-0.02879,0.00268l-0.2188,-2.93135c-0.00498,-0.05917 -0.00752,-0.11913 -0.00752,-0.17975c0,-1.04832 0.76116,-1.89816 1.70012,-1.89816c0.37024,0 0.71281,0.13213 0.99201,0.35647l2.14227,1.67429c3.40397,2.2451 5.51011,6.07301 8.38162,9.05793c0.94567,0.98302 2.46435,3.10602 3.78027,3.52585c2.48273,0.79209 5.64441,0.3989 8.19709,0.40181c2.71328,-0.33448 5.33977,-1.41123 8.04264,-1.71153c5.01432,-0.5571 10.19868,0.6405 15.20184,-0.09098c3.12399,-0.45674 3.3786,-0.89176 6.51746,-1.61382c1.16597,-0.26822 2.79325,-0.24387 3.9184,-0.65588c2.49133,-0.91229 4.90219,-3.39887 7.24555,-4.7946c0.88558,-0.52746 1.71711,-1.44383 2.72082,-1.44029c0.15617,0.00055 0.31095,0.01143 0.46457,0.03101l0.00457,-0.05614l2.40759,0.24437c0.87505,0.0777 1.56345,0.89515 1.56345,1.89211c0,0.52416 -0.19029,0.9987 -0.49796,1.3422v0l-1.21935,1.36139c-0.67666,1.22498 -1.25794,2.51718 -1.78092,3.8326c-1.61681,3.01648 -4.41126,6.60835 -5.13605,10.10189c-0.37673,1.81588 -0.18447,4.38607 -0.18341,6.25124c0.00248,4.34815 0,8.6963 0,13.04444c0,0.10108 0.00781,5.50284 -0.02196,5.71874c-0.51066,3.70371 -1.68841,7.37676 -2.53829,11.02149c-2.64667,4.81718 -4.52122,10.59609 -8.70751,14.07222c-3.83546,3.18481 -8.4105,2.83542 -12.9174,2.83542c-5.67264,0 -11.29225,0.12704 -16.9374,-0.54669c-4.95207,-2.17518 -12.32796,-3.96662 -14.789,-9.86703c-1.29557,-3.10615 -0.83556,-7.36132 -0.83556,-10.68194c0,-5.31278 -0.44088,-10.43135 -0.44088,-15.7518c0,0 0,-0.113 0.0247,-0.28386c-1.32342,-2.54687 -0.90646,-6.7811 -0.90646,-9.56101v-1.96897c0,-0.18479 0.02366,-0.36343 0.06776,-0.53231c-1.01914,-2.41568 -2.28981,-4.78075 -3.06133,-7.21786z" data-paper-data="{&quot;index&quot;:null}" fill="#9e9e9e" stroke="none" stroke-width="0.5"/><g data-paper-data="{&quot;index&quot;:null}" stroke="none" stroke-width="0"><path d="M220.5472,132.48913c3.9742,0 7.19592,5.07122 7.19592,11.32688c0,6.25567 -3.22173,11.32688 -7.19592,11.32688c-3.9742,0 -7.19592,-5.07122 -7.19592,-11.32688c0,-6.25567 3.22173,-11.32688 7.19592,-11.32688z" fill="#ffffff"/><path d="M220.64311,139.10463c1.80087,0 3.26075,3.06815 3.26075,6.85291c0,3.78475 -1.45989,6.85291 -3.26075,6.85291c-1.80087,0 -3.26075,-3.06815 -3.26075,-6.85291c0,-3.78475 1.45988,-6.85291 3.26075,-6.85291z" fill="#000000"/></g><g data-paper-data="{&quot;index&quot;:null}" stroke="none" stroke-width="0"><path d="M182.80755,136.36903c3.04179,0 5.50766,3.88146 5.50766,8.66946c0,4.78802 -2.46587,8.66946 -5.50766,8.66946c-3.04179,0 -5.50766,-3.88146 -5.50766,-8.66946c0,-4.78802 2.46587,-8.66946 5.50766,-8.66946z" fill="#ffffff"/><path d="M182.88095,141.43245c1.37836,0 2.49573,2.34834 2.49573,5.24514c0,2.89681 -1.11738,5.24514 -2.49573,5.24514c-1.37836,0 -2.49573,-2.34834 -2.49573,-5.24514c0,-2.89681 1.11737,-5.24514 2.49573,-5.24514z" fill="#000000"/></g><path d="M201.74357,150.45658c1.13443,0 2.09861,0.81386 2.44972,1.94715c0.18478,-0.04669 0.37703,-0.07133 0.57445,-0.07133c1.43123,0 2.59147,1.29539 2.59147,2.89335c0,1.18012 -0.6328,2.19522 -1.54022,2.6454c0.1264,0.34079 0.19615,0.71441 0.19615,1.10623c0,1.59795 -1.16022,2.89335 -2.59146,2.89335c-0.29402,0 -0.57661,-0.05467 -0.84004,-0.1554c-0.26344,0.10073 -0.54603,0.1554 -0.84005,0.1554c-0.17245,0 -0.34099,-0.01881 -0.50403,-0.05469c-0.16303,0.03589 -0.33157,0.05469 -0.50403,0.05469c-1.43123,0 -2.59147,-1.29539 -2.59147,-2.89335c0,-0.25951 0.0306,-0.51103 0.08799,-0.75032c-0.02181,-0.09091 -0.03975,-0.1836 -0.05361,-0.27782c-0.99963,-0.40131 -1.71448,-1.4692 -1.71448,-2.72348c0,-1.59795 1.16023,-2.89335 2.59146,-2.89335c0.08666,0 0.17233,0.00475 0.25679,0.01402c0.36545,-1.10332 1.31613,-1.88984 2.43135,-1.88984z" data-paper-data="{&quot;index&quot;:null}" fill="#b0ad96" stroke="#ffffff" stroke-width="1"/><path d="M222.60297,161.51654c2.58505,1.4431 1.29253,4.32931 1.29253,4.32931l-0.80565,1.60718c-1.08878,1.38266 -2.47179,2.49542 -3.93079,3.3533c-3.31791,1.38328 -6.99058,2.52751 -10.57364,2.23304c-0.93041,-0.07647 -1.88939,-0.08716 -2.77334,-0.42016c-0.81655,-0.30762 -1.52457,-0.90835 -2.2281,-1.46403c-0.16883,-0.13334 -0.1467,-0.61569 -0.34977,-0.57208c-0.39166,0.0841 -0.55037,0.69636 -0.926,0.84603c-0.62178,0.24776 -1.32132,0.12545 -1.96173,0.30465c-4.4271,1.23878 -9.24355,3.04101 -13.80582,1.09344c-2.00209,-0.85466 -2.42503,-1.61519 -3.86722,-3.18925c0,0 -2.04367,-2.28174 0,-4.56348c2.04367,-2.28174 4.08734,0 4.08734,0c3.42634,3.95939 9.76622,1.46942 13.87238,0.17781c0.89475,-0.28146 1.67231,-1.16698 2.60105,-1.12294c1.65296,0.07837 2.93179,1.73181 4.47625,2.39408c2.51113,1.07679 6.82213,-0.65717 9.13809,-1.63284c0.69613,-0.34437 1.34562,-0.88757 1.8007,-1.56913l0.07612,-0.3618c0,0 1.29254,-2.8862 3.87758,-1.4431z" data-paper-data="{&quot;index&quot;:null}" fill="#7d7d7d" stroke="#ffffff" stroke-width="0.5"/></g></g></g></svg>