<svg version="1.1" xmlns="http://www.w3.org/2000/svg" xmlns:xlink="http://www.w3.org/1999/xlink" width="124.52421" height="109.82384" viewBox="0,0,124.52421,109.82384"><g transform="translate(-177.73789,-125.08808)"><g data-paper-data="{&quot;isPaintingLayer&quot;:true}" fill-rule="nonzero" stroke="none" stroke-linecap="butt" stroke-linejoin="miter" stroke-miterlimit="10" stroke-dasharray="" stroke-dashoffset="0" style="mix-blend-mode: normal"><path d="M182.91211,217.28281c-1.52113,-3.07049 -2.36233,-5.05402 -3.72339,-10.34838c-1.88848,-7.34599 -1.39182,-16.09915 -1.39182,-23.64041c0,-6.108 -0.18216,-12.36685 0.9411,-18.407c0.41176,-2.21419 1.57054,-4.22164 2.35176,-6.33396c1.67966,-4.54163 1.60813,-9.21131 3.86392,-13.7112c0.84561,-3.05334 1.38143,-6.30704 2.51629,-9.26662c0.61882,-1.61381 1.21321,-3.26266 2.13221,-4.72647c0.84834,-1.35125 1.80169,-2.72881 3.11611,-3.63316c9.77277,-6.72388 18.5479,3.98392 22.95371,11.40071c1.22982,2.0703 1.63945,4.54024 2.71748,6.69348c0.5161,1.03085 1.42662,1.84695 1.86224,2.91431c0.43849,1.07441 0.39167,4.38683 1.36761,5.5339c0.72581,0.85307 2.23564,-0.16386 3.35565,-0.17438c0.68173,-0.00641 8.03179,0.00578 8.34385,0.00621c6.8554,0.70112 13.24483,2.89093 20.05593,3.87842c2.88832,0.41876 6.46289,1.05625 9.21487,-0.27034c1.4528,-0.70032 1.1172,-1.35246 1.90662,-2.76424c1.45223,-2.59716 2.82842,-5.23765 4.33786,-7.80199c2.60175,-4.42001 6.45869,-12.19239 11.92645,-13.42037c0.42525,-0.09551 7.88611,1.64118 8.70665,1.987c4.02508,1.6964 4.30009,2.5174 7.24006,5.46288c1.46925,2.58906 3.61451,4.86108 4.54064,7.69025c1.74858,5.34161 0.81907,12.9449 0.28005,18.36879c-0.15892,1.59919 -0.1721,3.23601 -0.60883,4.7826c-0.34519,1.22241 -1.33427,2.19317 -1.70416,3.40833c-1.29159,4.24309 -0.72055,9.51879 -1.09043,13.90773c-0.69654,8.26511 -2.87225,16.05355 -3.02981,24.24682c-1.92272,6.06091 -0.75649,13.33071 -6.77392,17.36808c-6.40636,4.29832 -15.8778,4.2987 -23.29795,4.2987c-13.10178,0 -26.49877,0.76422 -39.50648,-0.86174c-4.57482,0.00273 -8.86123,-0.66041 -13.27146,-1.33302c-4.74111,-0.72308 -10.15195,1.16987 -14.83325,-0.06919c-3.62606,-0.95976 -6.11197,-3.6752 -9.09901,-5.69521c-1.31578,-0.88981 -3.06157,-1.30898 -3.99916,-2.59114c-0.96231,-1.31595 -0.89071,-3.13651 -1.33606,-4.70476l-0.06803,-2.10012c0,0 0,-0.03331 0.00272,-0.0945z" fill="#ffd478" stroke-width="0.5"/><path d="M200.97373,158.46793c-0.71788,2.04436 -1.33273,4.11417 -1.626,6.28647c-0.06609,0.48955 -0.35103,2.94277 1.13881,2.48701c0.92304,-0.28237 0.68078,-1.38775 0.69489,-2.04733c0.05045,-2.35838 0.29195,-4.58684 -0.2077,-6.72615zM199.19262,151.84872c0.11966,-0.1283 0.26009,-0.25463 0.42404,-0.37759c2,-1.5 3.5,0.5 3.5,0.5l1.51419,2.08613c0.49173,1.0333 1.20025,1.98908 1.47518,3.0999c0.51925,2.09798 0.32099,6.2734 0.05836,8.44933c-0.14757,1.22261 -0.06711,2.59797 -0.76127,3.61518c-3.08343,4.51841 -8.87902,3.58577 -10.90595,-1.2897c-1.71766,-4.13157 1.61642,-10.79132 3.00054,-14.48656c0,0 0.48488,-1.29302 1.6949,-1.59669z" fill="#ffffff" stroke-width="0.5"/><path d="M201.19954,165.24069c-0.01411,0.65957 0.21237,1.7683 -0.71067,2.05067c-1.48984,0.45576 -1.22959,-2.00268 -1.16349,-2.49223c0.29327,-2.1723 0.93819,-4.33624 1.65608,-6.38059c0.49965,2.13931 0.26853,4.46378 0.21809,6.82215z" data-paper-data="{&quot;noHover&quot;:false,&quot;origItem&quot;:[&quot;Path&quot;,{&quot;applyMatrix&quot;:true,&quot;segments&quot;:[[[202.23525,155.30381],[0.49965,2.13931],[-0.71788,2.04436]],[[200.60926,161.59028],[0.29327,-2.1723],[-0.06609,0.48955]],[[201.74807,164.07729],[-1.48984,0.45576],[0.92304,-0.28237]],[[202.44295,162.02996],[-0.01411,0.65957],[0.05045,-2.35838]]],&quot;closed&quot;:true}]}" fill="#ffffff" stroke-width="0.5"/><path d="M283.25071,163.85912c-0.05193,0.07788 -0.08612,0.12061 -0.08612,0.12061c-1.74615,2.16938 -2.99016,4.1278 -3.81228,6.80597c-0.3378,1.10044 -1.79518,2.82944 -0.77623,3.36498c0.33939,0.17838 0.75522,-0.15082 1.13837,-0.16481c0.44614,-0.0163 2.49091,0.32604 2.98252,-0.38323c1.58195,-2.28235 -0.18302,-7.02284 0.55373,-9.74352zM280.48138,159.99454c0.84167,-1.15769 2.42016,-0.89461 2.42016,-0.89461l3.91302,1.12426c1.14063,4.08512 2.87686,12.81015 -0.27004,16.57163c-1.96213,2.34533 -8.76503,3.469 -11.21659,1.15612c-1.13717,-1.07284 -1.58505,-2.80394 -1.72617,-4.36093c-0.39845,-4.39615 3.12183,-9.54706 5.65848,-12.73475c0,0 0.47189,-0.58987 1.22114,-0.86172z" fill="#ffffff" stroke-width="0.5"/><path d="M282.71614,173.64882c-0.49161,0.70927 -2.56625,0.36959 -3.01239,0.38589c-0.38316,0.014 -0.8082,0.34021 -1.1476,0.16183c-1.01895,-0.53554 0.42652,-2.27184 0.76433,-3.37228c0.82213,-2.67818 2.11915,-4.72044 3.8653,-6.88982c0,0 0.0344,-0.04263 0.08633,-0.12051c-0.73676,2.72068 1.02597,7.55253 -0.55598,9.83488z" data-paper-data="{&quot;noHover&quot;:false,&quot;origItem&quot;:[&quot;Path&quot;,{&quot;applyMatrix&quot;:true,&quot;segments&quot;:[[[284.51223,160.695],[-0.73676,2.72068],[-0.05193,0.07788]],[[284.42611,160.81561],[0,0],[-1.74615,2.16938]],[[280.61382,167.62158],[0.82213,-2.67818],[-0.3378,1.10044]],[[279.8376,170.98657],[-1.01895,-0.53554],[0.33939,0.17838]],[[280.97597,170.82175],[-0.38316,0.014],[0.44614,-0.0163]],[[283.95849,170.43852],[-0.49161,0.70927],[1.58195,-2.28235]]],&quot;closed&quot;:true}]}" fill="#ffffff" stroke-width="0.5"/><text transform="translate(190.12429,210.34248) scale(0.5,0.5)" font-size="40" xml:space="preserve" fill="#d4003d" fill-rule="nonzero" stroke="none" stroke-width="1" stroke-linecap="butt" stroke-linejoin="miter" stroke-miterlimit="10" stroke-dasharray="" stroke-dashoffset="0" font-family="Sans Serif" font-weight="normal" text-anchor="start" style="mix-blend-mode: normal"><tspan x="0" dy="0">Сушки</tspan></text><g stroke-width="0"><path d="M211.42811,161.91822c0,8.23911 -4.73752,14.91825 -10.58155,14.91825c-5.84402,0 -10.58155,-6.67912 -10.58155,-14.91825c0,-8.23911 4.73752,-14.91825 10.58155,-14.91825c5.84402,0 10.58155,6.67912 10.58155,14.91825z" fill="#ffffff"/><path d="M205.50046,164.73876c0,4.98477 -2.14675,9.02573 -4.79492,9.02573c-2.64817,0 -4.79492,-4.04096 -4.79492,-9.02573c0,-4.98477 2.14675,-9.02573 4.79492,-9.02573c2.64817,0 4.79492,4.04096 4.79492,9.02573z" fill="#000000"/></g><g stroke-width="0"><path d="M293.25934,168.52846c0,8.23911 -4.73751,14.91825 -10.58155,14.91825c-5.84402,0 -10.58156,-6.67912 -10.58156,-14.91825c0,-8.23911 4.73752,-14.91825 10.58156,-14.91825c5.84402,0 10.58155,6.67912 10.58155,14.91825z" fill="#ffffff"/><path d="M287.33169,171.349c0,4.98477 -2.14675,9.02572 -4.79492,9.02572c-2.64817,0 -4.79492,-4.04095 -4.79492,-9.02572c0,-4.98477 2.14675,-9.02573 4.79492,-9.02573c2.64816,0 4.79492,4.04096 4.79492,9.02573z" fill="#000000"/></g></g></g></svg>