<svg version="1.1" xmlns="http://www.w3.org/2000/svg" xmlns:xlink="http://www.w3.org/1999/xlink" width="132.28492" height="123.9372" viewBox="0,0,132.28492,123.9372"><g transform="translate(-173.85754,-117.78533)"><g data-paper-data="{&quot;isPaintingLayer&quot;:true}" fill-rule="nonzero" stroke-linecap="butt" stroke-linejoin="miter" stroke-miterlimit="10" stroke-dasharray="" stroke-dashoffset="0" style="mix-blend-mode: normal"><path d="M192.14596,239.46511c-1.0253,-0.00083 -3.76626,0.07605 -4.67052,-0.28737c-4.867,-1.95608 -3.65103,-8.06067 -3.65103,-12.59112c0,-4.63627 -0.26681,-9.45021 0.36565,-14.05257c0.67857,-4.93783 2.29265,-9.96462 2.55518,-14.89039c0,0 0.08351,-1.39289 1.15675,-1.77568c0.69484,-1.26389 2.06843,-0.75475 2.06843,-0.75475l0.80772,0.33261c1.14949,0.69742 2.30768,1.37781 3.47849,2.02992c7.78177,3.67718 3.55054,12.99162 4.9703,20.10777c0.63148,3.16505 2.7614,5.50153 4.11257,8.21704c0.65688,1.93972 -0.14907,3.72337 0.54451,5.94029c0,0.30397 0.03684,0.61268 0.12072,0.902l0.03624,0.08274c0.01,0.13974 0.0209,0.27958 0.03216,0.41955c-0.01691,0.20841 -0.04099,0.41387 -0.06828,0.61794c-1.75671,4.50205 -7.50846,5.70203 -11.85886,5.70203z" fill="#f8aeae" stroke="#000000" stroke-width="1"/><path d="M206.6081,200.72076c0.56971,-1.90051 2.27882,-1.26701 2.27882,-1.26701l1.44852,0.54016c1.88102,0.57913 3.40515,0.68773 5.33431,0.69245c0.55567,-0.09808 0.96829,0.09031 1.26474,0.356c0.32342,0.23085 0.61706,0.61147 0.70619,1.23899l0.15299,0.53038c0.80672,3.92163 0.34469,8.01211 1.49696,11.8338c1.21615,4.0335 3.63888,5.74059 5.59566,9.01837c4.23711,7.09757 -2.24559,12.91951 -7.32565,15.67704c-2.91461,0.33625 -6.52423,1.07765 -9.01299,-1.14079c-1.46927,-1.30968 -2.43949,-2.99988 -3.05738,-4.92107c0.0001,-0.01008 0.0002,-0.02015 0.00032,-0.03022c0,0 0,-0.26393 -0.21102,-0.32247c-0.41069,-1.78249 -0.02366,-3.28012 -0.27385,-4.83832c0.03045,-0.05222 0.04814,-0.11452 0.04814,-0.18141v-0.48566c0,-0.55355 0.091,-1.2497 0.00804,-1.84458c-0.00281,-1.248 -0.14606,-2.59135 -0.36895,-3.6515c0.2897,-4.00593 0.87985,-7.92018 0.96636,-10.92351c0.08397,-2.91524 -0.00698,-5.51329 0.3597,-8.40414c0,0 0.0812,-0.63206 0.47283,-1.13157c-0.00065,-0.22324 0.03411,-0.47094 0.11626,-0.74497z" fill="#f8aeae" stroke="#000000" stroke-width="1"/><path d="M226.45436,203.15519c0.12873,0 0.2543,0.01501 0.37538,0.04355l0.14326,-0.27879l0.90079,-0.25042h0.42838l0.01684,-0.01248l0.05052,0.01248h0.0502l0.40159,0.11165l0.40409,0.09986l0.04491,0.02496l0.0502,0.01396l0.00988,0.01924l0.20496,0.07598l0.10939,0.07742l0.12658,0.03128l0.36972,0.20556l0.15423,0.06859h0.08143l0.01684,-0.01248l0.05052,0.01248h0.0502l0.40158,0.11165l0.4041,0.09986l0.0449,0.02496l0.0502,0.01396l0.01003,0.01954l0.21709,0.12071l0.14045,0.05207l0.36962,0.10276l0.00904,0.00536l0.03173,-0.00962l0.38369,0.25599l0.39481,0.23414l0.00891,0.03521l0.00879,0.00586l0.21837,0.24283l0.09232,0.1711l0.13278,0.13422l0.14219,0.23717l0.19865,0.18935l0.13508,0.03004l0.12428,0.21716l0.17576,0.16752l0.00764,0.15295l0.19081,0.33342l0.0687,0.22918l0.16111,0.35831l0.0522,0.26122l0.10301,0.24182l0.10078,0.56033l0.0988,0.4394v0.24662l0.05378,0.23926v0.03914l0.12592,0.42007l0.02221,0.32109l0.07024,0.31242v0.56011l0.18189,0.47195l0.04225,0.2913l0.09238,0.27661l0.10919,1.09271l-0.01358,0.11179l0.02461,0.10944v0.91208l0.18931,1.15782l-0.00533,0.09094l0.027,0.08606l0.10644,1.30194l0.19248,1.71227l0.16196,0.54029l0.02221,0.32109l0.02998,0.13334l0.64099,0.1782l0.06233,0.03696l0.07043,0.00603l0.58947,0.21851l0.80637,0.22416l0.23508,0.13941l0.25487,0.08626l0.3423,0.22838l0.53597,0.17027l0.03476,0.0223l0.04002,0.00342l1.31024,0.48566l0.20301,0.14366l0.2266,0.08999l0.29189,0.21638l0.44984,0.30013l0.37486,0.20843l0.0662,0.0631l0.08294,0.02991l0.87349,0.60707l0.14274,0.1646l0.17634,0.11764l0.65512,0.72848l0.04285,0.07941l0.06725,0.05465l0.54592,0.72848l0.06123,0.14105l0.0996,0.11075l0.32756,0.60707l0.04247,0.15519l0.08541,0.1315l0.21837,0.60707l0.04611,0.37593l0.08275,0.36809v1.57837l-0.08621,0.38342l0.03625,0.14779l-0.1191,0.22073l-0.11956,0.53179l-0.02222,0.32109l-0.21837,0.72848l-0.12918,0.22575l-0.08094,0.25199l-0.15616,0.26046l-0.16821,0.3741l-0.18847,0.24451l-0.149,0.27615l-0.21837,0.24283l-0.15388,0.10267l-0.12069,0.14763l-0.17914,0.13279l-1.18409,1.3167l-0.24833,0.16568l-0.21989,0.20958l-0.83037,0.46168l-0.3392,0.37719l-0.11119,0.07419l-0.08177,0.11191l-0.41423,0.34546l-0.52396,0.4661l-0.02627,0.01339l-0.01822,0.02495l-0.43674,0.36424l-0.04719,0.02209l-0.03442,0.04212l-0.32756,0.24283l-0.10722,0.04258l-0.08644,0.08238l-0.37486,0.20842l-0.84426,0.56329l-0.0005,0.00141l-0.00502,0.00227l-0.18275,0.12193l-0.34152,0.11558l-0.3306,0.14977l-0.21098,0.03352l-0.00518,0.00175l-0.00119,-0.00074l-0.54696,0.0869l-0.12898,-0.01483l-0.1258,0.03497h-1.74697l-0.14608,-0.04061l-0.1501,0.01334l-0.50804,-0.09415h-0.50601l-0.24379,-0.06778l-0.25114,-0.00931l-0.76431,-0.24283l-0.03476,-0.0223l-0.04001,-0.00342l-0.26191,-0.09709l-0.36962,-0.10275l-0.17506,-0.10383l-0.19368,-0.04786l-0.65511,-0.36424l-0.21989,-0.20958l-0.24833,-0.16568l-0.32756,-0.36424l-0.149,-0.27615l-0.18847,-0.24451l-0.10919,-0.24283l-0.01122,-0.05615l-0.21562,-0.20552l-0.00154,-0.03066l-0.20518,-0.34223l-0.08094,-0.25199l-0.12918,-0.22575l-0.0687,-0.22917l-0.11095,-0.24676l-0.15616,-0.26046l-0.02438,-0.07592l-0.053,-0.03368l-0.09843,-0.43778l-0.13649,-0.42497l0.0273,-0.06071l-0.01758,-0.0782v-5.22078l0.05379,-0.23926v-0.24661l0.05539,-0.24641v-0.92977l-0.12374,-0.4816l-0.18414,-0.51193l-0.03294,-0.26863l-0.08489,-0.25415l-0.10231,-1.02381l-0.20722,-1.26733l0.00031,-0.00533l-0.00196,-0.00488l-0.32756,-2.06403l0.00485,-0.07657l-0.02332,-0.07224l-0.20871,-2.3207l-0.41672,-2.20107l0.00353,-0.10462l-0.03227,-0.09835l-0.21269,-2.2468l-0.20945,-1.3974l0.00548,-0.07599l-0.02258,-0.07198l-0.10757,-1.3156l-0.08612,-0.86187l-0.26721,-0.89138l-0.00542,-0.07832l-0.03323,-0.06931l-0.10919,-0.48566v-0.24662l-0.05379,-0.23926v-0.01273l-0.08479,-0.18858l-0.01757,-0.01117l-0.01255,-0.05582l-0.02245,-0.04993l-0.0898,-0.44935l-0.10041,-0.44656v-0.05582l-0.01122,-0.05616l0.01122,-0.01872v-1.08342c0,-0.34146 0.07683,-0.66295 0.21231,-0.9443l0.01289,-0.05735l0.02376,-0.0151c0.31338,-0.59046 0.89141,-0.98657 1.55262,-0.98657z" fill="#f8aeae" stroke="#000000" stroke-width="1"/><path d="M244.5024,198.56637l0.21636,-0.08019l0.2279,-0.12671l0.01055,-0.02051l0.0527,-0.01464l0.04714,-0.02621l0.42421,-0.10483l0.42158,-0.1172h0.0527l0.05303,-0.0131l0.01768,0.0131h2.51289l0.29494,0.082l0.30312,0.02592l0.34386,0.12746l0.11484,0.08126l0.13288,0.03284l0.33826,0.18807l0.14745,0.05465l0.38802,0.10787l0.4514,0.2677l0.14714,0.00909l0.111,0.14401l0.1505,0.08925l0.03041,0.12022l0.52822,0.29369l0.11723,0.11175l0.09421,0.00581l0.24398,0.31651l0.28464,0.2713l0.00489,0.09784l0.09044,0.10056l0.09691,0.17962l0.13938,0.14091l0.11112,0.18535l0.16669,0.12356l0.12671,0.155l0.16153,0.10777l0.22923,0.25491l0.00552,0.01024l0.03325,0.0104l0.22105,0.46088l0.24167,0.44789l-0.00908,0.03704l0.00506,0.01055l0.11463,0.50983v0.25889l0.05646,0.25116v1.88985l0.09562,0.74424l-0.014,0.15056l0.03302,0.14685v5.27241l0.06907,0.38401l0.05335,0.23732l0.02178,0.04843l0.09427,0.47172l0.0353,0.15703l0.01519,0.0169l0.22792,0.20276l0.36774,0.13629l0.0303,0.02145l0.03568,0.00454l0.91698,0.38237l0.04737,0.03633l0.05668,0.01103l1.03159,0.50983l0.0347,0.03015l0.04299,0.01062l0.31249,0.17374l0.83815,0.2796l0.75981,0.10562l0.29862,0.12854l0.31258,0.07724l0.70476,0.39184l2.40445,0.58124l0.18161,0.09981l0.19924,0.04069l1.08116,0.54648l0.83892,0.2073l0.08881,0.04938l0.09899,0.00847l0.34387,0.12746l0.11484,0.08126l0.13288,0.03284l0.22924,0.12746l0.74007,0.70538l0.00414,0.08291l0.06483,0.04121l0.2364,1.05152v2.80405l-0.02329,0.10359l0.01391,0.10567l-0.10524,1.17021v0.39518l0.01178,0.01966l-0.01178,0.05896v0.0586l-0.10539,0.46879l-0.00922,0.04616v0.12233l-0.01845,0.08209l0.02866,0.06373l-0.14329,0.44613l-0.10333,0.45958l-0.05563,0.03535l-0.02559,0.07969l-0.04895,0.08167l-0.09905,0.44058l-0.05563,0.03535l-0.02559,0.07969l-0.08721,0.14546l-0.09037,0.50245l-0.12131,0.28477l0.01619,0.14401l-0.18593,0.25447l-0.12622,0.29631l-0.12382,0.04589l-0.09592,0.13127l-0.07203,0.24028l0.00558,0.0228l-0.02795,0.05179l-0.01666,0.0556l-0.2333,0.40767l-0.22358,0.41435l-0.00036,0.0004l-0.25537,0.66258l-0.08974,0.29939l-0.07308,0.12771l-0.02953,0.14776l-0.5731,1.27456l-0.10049,0.13036l-0.00524,0.10476l-0.28464,0.2713l-0.24398,0.31652l-0.08798,0.00543l-0.18726,0.20823l-0.12537,0.2091l-0.27475,0.27775l-0.24978,0.30553l-0.34386,0.25491l-0.11255,0.04469l-0.09074,0.08649l-0.91698,0.50983l-0.05551,0.01372l-0.04528,0.03827l-0.80235,0.38237l-0.0234,0.0042l-0.0192,0.01543l-0.5731,0.25491l-0.05635,0.00854l-0.04797,0.03395l-0.68773,0.25491l-0.30312,0.02593l-0.29494,0.082h-1.49008l-0.13206,-0.03672l-0.13541,0.01558l-0.80235,-0.12746l-0.06195,-0.02806l-0.06686,0.00252l-1.6047,-0.38237l-0.02953,-0.01611h-0.0329l-0.23261,-0.06466h-0.11104l-0.94562,-0.26289l-0.03705,-0.0721l-0.07456,-0.0046l-0.4229,-0.54864l-0.01057,-0.0033l-0.01321,-0.02754l-0.18766,-0.24346l-0.11463,-0.25491l-0.04518,-0.22609l-0.09802,-0.20436l-0.06427,-0.28586l-0.48026,-1.06808l-0.02515,-0.12588l-0.06433,-0.1073l-0.5731,-1.7844l-0.00203,-0.02288l-0.0111,-0.01941l-0.68773,-2.29423l-0.00412,-0.05958l-0.02629,-0.05211l-0.68047,-2.77445l-0.79431,-2.90214l-0.00019,-0.00431l-0.00198,-0.00371l-0.68773,-2.54914l-0.00327,-0.07814l-0.03146,-0.06995l-0.43294,-2.16642l-0.53351,-1.6611l-0.00423,-0.04777l-0.02232,-0.04109l-0.40396,-1.45989l-0.71444,-1.47542l-0.00725,-0.03171l-0.01914,-0.02484l-0.63507,-1.41237l-0.62242,-1.03817l-0.0096,-0.02991l-0.02056,-0.02204l-0.5731,-1.01965l-0.04544,-0.15579l-0.08912,-0.1304l-0.34387,-0.8922l-0.01278,-0.08811l-0.04308,-0.07529l-0.27821,-0.92811l-0.23705,-0.43932l-0.10288,-0.37592l-0.14089,-0.36035l-0.05558,-0.37087l-0.15911,-0.29489l-0.06064,-0.22157l-0.11182,-0.1954l-0.18674,-0.62296l-0.11394,-0.25342l-0.01844,-0.01172l-0.01318,-0.0586l-0.02358,-0.05241l-0.09427,-0.47171l-0.10539,-0.46879v-0.0586l-0.01179,-0.05896l0.01179,-0.01966v-0.50007c0,-0.35845 0.08064,-0.69597 0.22287,-0.99132l0.01354,-0.06021l0.02493,-0.01584c0.26979,-0.50832 0.72641,-0.87943 1.2648,-0.99652l0.2503,-0.30616l0.3184,-0.41306l0.02895,-0.00179l0.32308,-0.23951l0.23789,-0.09447z" fill="#f8aeae" stroke="#000000" stroke-width="1"/><path d="M257.22576,181.24755c1.23013,4.25909 3.15679,8.87518 5.07036,12.98863c3.73525,11.06099 -10.44757,17.86812 -23.09173,20.80636c-3.5782,0.8315 -8.22231,0.28229 -11.96709,0.28229c-7.97706,0 -18.01295,0.96174 -25.25453,-2.15252c-3.34528,-1.43864 -5.05802,-3.86688 -6.93187,-6.13589c-2.26695,-2.74501 -5.8145,-5.47655 -7.08758,-8.60824c-0.85017,-2.09137 -0.11892,-5.35288 0.30682,-7.45146c1.29844,-2.21131 1.44657,-4.10445 3.3637,-6.2049c3.30977,-3.62623 7.53252,-6.97569 12.36532,-9.57243c1.5158,-0.81445 3.50458,-1.02662 5.16211,-1.67928c6.76161,-2.66244 12.27404,-5.15907 20.08773,-5.30546c0.02612,-0.01497 0.05253,-0.02994 0.07925,-0.04493c1.90118,-1.06712 4.95709,-0.19141 6.90525,0.05508c2.442,0.30897 5.21275,-0.42801 7.63188,0.01811c1.47527,0.27206 2.6188,1.13138 3.98075,1.62501c3.64445,1.32091 7.26726,2.33784 8.2102,5.43044l-0.04219,0.10795h0.04833v1.11807c0.61562,1.43448 0.84717,3.62864 1.1633,4.72317z" fill="#dd9a9a" stroke="#000000" stroke-width="1"/><path d="M302.81116,134.04464c-1.85228,1.33827 -3.77756,2.59129 -5.75679,3.77535c-2.37846,1.97335 -4.7863,3.88967 -7.53516,5.57138c-1.06096,0.42863 -2.12192,0.85726 -3.18287,1.2859l-1.68753,1.02231c0,0 -0.04353,0.02539 -0.1227,0.06412c0.02514,0.59794 0.04712,1.19275 0.07445,1.78112c0.23902,5.14672 0.94721,10.16064 0.69585,15.33072c-0.25328,5.10222 -0.50313,10.2046 -0.75984,15.30668c-0.07485,1.48769 -0.12105,4.77619 -0.77115,6.07215c-2.06559,4.11776 -7.92341,7.82918 -12.59542,9.09541c-4.4131,1.19605 -8.93435,0.83484 -13.44661,0.65385c-6.3497,-0.25467 -12.69942,-0.50936 -19.04912,-0.76403c-4.04439,-0.21753 -6.93859,-1.1697 -8.93162,-3.33137c-0.78087,-0.5484 -1.07147,-1.38051 -1.07147,-1.38051c-0.0096,-0.02752 -0.01918,-0.05503 -0.02874,-0.08256c-0.52328,-0.85253 -0.95983,-1.83816 -1.31774,-2.97232l-0.05896,-1.26923c0,0 0.00525,-0.10584 0.03741,-0.27382c-2.55288,-10.2433 -2.15912,-21.06839 -1.64106,-31.50462c0.07771,-1.56537 0.09458,-3.16069 0.17449,-4.75191c-0.30883,0.03851 -0.51848,0.0301 -0.51848,0.0301l-0.85217,-0.08466c-2.11601,-0.46997 -4.24807,-0.882 -6.38541,-1.2661c-5.19158,-0.68248 -11.29242,-0.58265 -13.81278,-5.91896c-0.62313,-1.31935 -0.63208,-2.89345 -0.28477,-4.29238c0.29402,-1.18427 1.47701,-2.03464 2.1204,-3.10136c2.09835,-3.47896 3.4554,-8.72558 6.60138,-11.53793c1.45559,-1.30123 2.96959,-3.03316 5.01231,-3.21664c0.19368,-0.0174 0.37864,-0.00536 0.55657,0.03058c0.76526,-0.02849 1.38402,0.20232 1.38402,0.20232c4.82753,1.84763 9.04669,5.44627 12.0456,9.54168c1.54842,1.15388 3.15151,2.24277 4.8947,3.16708c1.92422,-0.94506 3.95816,-1.76966 5.96937,-2.64124c9.53599,-1.7912 24.16105,-3.20371 33.52956,1.82431c0.10594,-0.23695 0.20445,-0.38084 0.20445,-0.38084c3.67816,-5.22648 9.20224,-8.25297 15.38186,-8.93937c5.03284,0.49245 9.58313,1.57841 13.34129,4.31587c1.02304,0.74519 0.45008,1.04132 0.52243,2.37979c0.14279,2.64135 -0.88123,4.43815 -2.23451,5.92699c-0.17338,0.10618 -0.34116,0.2164 -0.50128,0.3321z" fill="#f8aeae" stroke="#000000" stroke-width="1"/><g stroke="none" stroke-width="0"><path d="M248.41426,162.76456c0,6.08148 -3.49688,11.01151 -7.81049,11.01151c-4.3136,0 -7.81049,-4.93002 -7.81049,-11.01151c0,-6.08148 3.49688,-11.01151 7.81049,-11.01151c4.3136,0 7.81049,4.93002 7.81049,11.01151z" fill="#ffffff"/><path d="M244.03893,164.84647c0,3.67938 -1.58457,6.6621 -3.53925,6.6621c-1.95468,0 -3.53924,-2.98272 -3.53924,-6.6621c0,-3.67938 1.58457,-6.66211 3.53924,-6.66211c1.95468,0 3.53925,2.98273 3.53925,6.66211z" fill="#000000"/></g><g stroke="none" stroke-width="0"><path d="M275.13759,162.4643c0,6.08148 -3.49688,11.01151 -7.81049,11.01151c-4.31361,0 -7.81049,-4.93002 -7.81049,-11.01151c0,-6.08148 3.49688,-11.01151 7.81049,-11.01151c4.31361,0 7.81049,4.93002 7.81049,11.01151z" fill="#ffffff"/><path d="M270.76225,164.54621c0,3.67938 -1.58457,6.6621 -3.53925,6.6621c-1.95468,0 -3.53924,-2.98272 -3.53924,-6.6621c0,-3.67938 1.58457,-6.66211 3.53924,-6.66211c1.95468,0 3.53925,2.98273 3.53925,6.66211z" fill="#000000"/></g><path d="M257.1371,169.73657c-2.31444,0 -4.58557,-0.36765 -6.83893,-0.44181c0.05061,0.67898 0.06738,1.37474 0.06182,2.10719c-0.00596,0.78385 0.814,1.74853 0.16797,2.34793c-0.50718,0.47058 -3.26624,0.37724 -4.0406,0.37724c-2.78285,0 -5.56909,0.16053 -8.33369,0.13967c-3.10238,0.83048 -7.55046,1.40484 -9.35776,-1.09602l0.10567,-1.23216c0,0 0.06074,-0.18997 0.23861,-0.37145c-0.18407,-1.66047 -0.07968,-3.34343 -0.07968,-5.00999c0,-0.44517 -0.04102,-2.06578 0.19188,-2.31685c2.25748,-2.43362 10.47887,-1.3208 13.84742,-1.31362c1.09299,-0.14243 4.72892,-0.59046 5.63624,0.02868c0.82411,0.56237 0.55009,1.65555 0.81835,2.48469c0.22467,0.69441 0.39231,1.36712 0.51481,2.03859c2.3508,0.07537 4.65271,0.44111 7.06791,0.44111h0.54678c0.00227,-1.29432 0.13525,-2.53488 0.6805,-3.48006c0.98874,-1.71393 2.4581,-1.3647 4.38803,-1.3647c3.79151,0 7.57876,-0.29971 11.32844,-0.29971c0.8774,-0.11434 2.52107,-0.42807 3.24091,0.11157c0.41668,0.31237 0.34028,2.09493 0.34028,2.61053c0,1.70805 -0.03937,3.36657 -0.19656,5.06057c-0.05233,0.564 0.14335,2.24245 -0.23135,2.60222c-0.96841,0.92983 -3.28601,0.66417 -4.60651,0.66417c-3.679,0 -7.35799,0 -11.03701,0c-0.4518,0 -0.90362,0 -1.35542,0h-0.77453c0,0 -0.3563,0 -0.67428,-0.15429c-0.00736,-0.0005 -0.01477,-0.00104 -0.02222,-0.00162c-1.15603,-0.09039 -1.04042,-0.99428 -1.04042,-0.99428c0.10948,-0.84947 0.06155,-1.87364 0.01346,-2.93758zM260.12519,172.00755c0.4518,0 1.01364,0 1.46545,0c3.679,0 7.35799,0 11.03701,0c0.12676,0 2.70748,0.116 2.75148,0.05856c0.36085,-0.47092 -0.28064,-1.08933 -0.23136,-1.63694c0.14861,-1.65119 0.19071,-3.26585 0.19071,-4.93177c0,-0.33026 -0.12655,-0.87833 0.03234,-1.15506c-0.35429,0.09916 -0.84603,0.2107 -1.09832,0.24357c-2.79955,0 -5.58939,0.3059 -8.42198,0.3059c-1.36628,0 -3.78945,-0.32469 -5.11205,-0.08966c-0.79123,0.14061 -0.00259,1.27411 -0.13101,1.90055c-0.35857,1.74919 -0.32753,3.51746 -0.48228,5.30485zM231.37044,172.86055c1.43416,0.80439 5.02325,-0.03405 6.41104,-0.38707c2.26334,-0.01464 4.49281,-0.16313 6.76958,-0.16313c0.64544,0 1.29087,0 1.93632,0c0.46442,0 1.40341,-0.01515 1.9056,0.07788c-0.25026,-0.93078 -0.31249,-3.57108 -0.35259,-3.93933c-0.11279,-1.03576 -0.44397,-1.63196 -0.74741,-2.59139c-0.14861,-0.46987 0.50619,-1.12983 0.04383,-1.45167c-0.19516,-0.13584 -3.56727,0.26918 -4.04535,0.33148c-2.99991,0.00564 -6.00321,0.03292 -9.00288,0.0031c-0.68893,-0.00686 -2.54945,0.06851 -3.09636,0.50007c-0.39767,0.3138 0.19188,0.87498 0.19188,1.31672c0,1.86883 -0.16161,3.77432 0.18196,5.62469c0,0 0.06904,0.37784 -0.19561,0.67866z" fill="#000000" stroke="#ffffff" stroke-width="0.5"/><g fill="#aeaeae" stroke="none" stroke-width="0.5"><path d="M279.53842,137.96227c0.12955,0.51822 0.30216,1.31488 0.44548,2.22895c0.03012,0.04862 0.06012,0.09737 0.08998,0.14625c1.14526,1.87502 3.10221,2.95559 4.071,5.01288c0.222,0.47141 0.35865,1.10249 0.43963,1.80363c1.3924,1.06672 2.19888,5.13621 1.5665,8.10894c0.03913,0.08133 0.06827,0.15525 0.08473,0.21936c0.34338,1.33685 -0.46396,2.22924 -1.73511,2.66115c-0.40224,0.26051 -0.87671,0.40722 -1.43023,0.40722c-0.44565,0 -0.92338,-0.05201 -1.4221,-0.15025c-1.17476,-0.1249 -2.36108,-0.50887 -3.27856,-1.15842c-3.24951,-1.60285 -6.42669,-4.45603 -7.09459,-7.29268c-0.92257,-3.91825 -1.64069,-4.61846 -4.60583,-7.57231c-4.39573,-4.37899 -3.96884,-4.37452 -10.46263,-5.71042c-5.56461,0.8833 -15.10805,1.28996 -17.06743,7.32918c-1.09784,3.3838 -2.23429,6.68775 -4.53853,9.61171c-0.63659,0.8078 -1.38527,4.36095 -3.70443,5.63439c-0.21638,0.38085 -0.5176,0.70123 -0.8759,0.93162c-0.12218,0.09778 -0.27106,0.17404 -0.46551,0.23517c-0.2714,0.10304 -0.5638,0.15917 -0.86855,0.15917c-7.24745,0.78371 -4.96129,-5.6008 -3.27084,-9.74187c0.21786,-0.53366 0.5437,-1.71511 0.93206,-2.79176c0.74381,-4.63925 1.82432,-9.30127 4.34685,-12.32664c2.33932,-2.80564 5.91675,-3.75783 8.94942,-5.32248c6.46661,-3.33634 14.09606,-4.30296 21.20278,-2.92593c6.41678,-1.97741 17.00581,3.75911 18.69183,10.50317z"/><path d="M265.79597,130.44944c0.65344,3.2672 -6.78962,4.04013 -8.35637,2.99564c-1.56204,-0.10604 -2.79623,-1.4067 -2.79623,-2.99564c0,-0.86408 0.36499,-1.6429 0.94921,-2.19072c2.60348,-3.05917 9.43246,-1.66388 10.20339,2.19072z"/></g><path d="M233.23068,138.45583c1.66298,0.69291 0.97007,2.35589 0.97007,2.35589l-0.70795,1.68852c-0.95674,3.60467 -1.97108,7.25812 -3.14933,10.79929c0,0 -0.56971,1.70913 -2.27883,1.13942c-1.70912,-0.56971 -1.13941,-2.27883 -1.13941,-2.27883c1.18474,-3.54742 2.18901,-7.20891 3.15617,-10.81958l0.79336,-1.91463c0,0 0.69291,-1.66298 2.35589,-0.97007z" fill="#cecece" stroke="none" stroke-width="0.5"/><path d="M249.76785,133.46c0.35331,1.76659 -1.41326,2.11991 -1.41326,2.11991l-0.83003,0.16416c-2.77606,0.41705 -5.32468,1.51916 -8.00134,2.34338c0,0 -1.72191,0.52982 -2.25173,-1.19209c-0.52982,-1.72191 1.19209,-2.25173 1.19209,-2.25173c2.85435,-0.87756 5.55279,-1.99621 8.51308,-2.46082l0.67128,-0.13609c0,0 1.76659,-0.35331 2.1199,1.41326z" fill="#cecece" stroke="none" stroke-width="0.5"/><path d="M270.0643,132.01122c-0.14961,1.79535 -1.94495,1.64574 -1.94495,1.64574l-1.72683,-0.14546c-2.20574,0.00183 -4.37696,0.02588 -6.5811,0.14891c0,0 -1.7988,0.09994 -1.89873,-1.69886c-0.09994,-1.7988 1.69887,-1.89873 1.69887,-1.89873c2.32101,-0.12837 4.60782,-0.15313 6.9307,-0.15134l1.87631,0.15479c0,0 1.79535,0.1496 1.64574,1.94495z" fill="#cecece" stroke="none" stroke-width="0.5"/><path d="M280.80269,149.64994c-1.2739,1.2739 -2.54781,0 -2.54781,0l-0.35587,-0.39626c-2.61304,-3.77246 -4.67261,-7.91192 -7.22565,-11.73866c0,0 -0.99933,-1.49899 0.49966,-2.49832c1.49899,-0.99933 2.49832,0.49966 2.49832,0.49966c2.53605,3.80676 4.57927,7.93931 7.18693,11.68178l-0.0556,-0.096c0,0 1.2739,1.2739 0,2.54781z" fill="#cecece" stroke="none" stroke-width="0.5"/><path d="M267.21804,149.59377c0,1.80157 -1.80157,1.80157 -1.80157,1.80157c-1.45127,0 -3.95344,0 -5.40472,0c0,0 -1.80157,0 -1.80157,-1.80157c0,-1.80157 1.80157,-1.80157 1.80157,-1.80157c1.45127,0 2.90253,0 4.3538,0h1.05092c0,0 1.80157,0 1.80157,1.80157z" fill="#cecece" stroke="none" stroke-width="0.5"/><path d="M247.55088,149.29351c0,1.80157 -1.80157,1.80157 -1.80157,1.80157c-1.45127,0 -3.95344,0 -5.40472,0c0,0 -1.80157,0 -1.80157,-1.80157c0,-1.80157 1.80157,-1.80157 1.80157,-1.80157c1.45127,0 2.90253,0 4.3538,0h1.05092c0,0 1.80157,0 1.80157,1.80157z" fill="#cecece" stroke="none" stroke-width="0.5"/><path d="M252.77257,175.48343l0.15474,-0.01004c2.18008,0.03178 4.6411,-0.2865 6.59742,0.97735c5.54703,3.58358 1.45063,8.55893 -3.5911,8.74062c-2.66454,0.09602 -6.53399,0.44295 -8.75822,-1.3669c-5.2306,-4.25611 0.06922,-8.23807 4.53319,-8.57458c0,0 0.55113,-0.03785 1.06396,0.23356z" fill="#cc8f8f" stroke="none" stroke-width="0.5"/><path d="M246.95035,182.33901c0,-0.99498 0.80659,-1.80157 1.80157,-1.80157c0.99498,0 1.80157,0.80659 1.80157,1.80157c0,0.99498 -0.80659,1.80157 -1.80157,1.80157c-0.99498,0 -1.80157,-0.80659 -1.80157,-1.80157z" fill="#000000" stroke="none" stroke-width="0.5"/><path d="M256.25848,182.33901c0,-0.99498 0.8066,-1.80157 1.80157,-1.80157c0.99497,0 1.80157,0.80659 1.80157,1.80157c0,0.99498 -0.8066,1.80157 -1.80157,1.80157c-0.99498,0 -1.80157,-0.80659 -1.80157,-1.80157z" fill="#000000" stroke="none" stroke-width="0.5"/><path d="M174.92371,188.2829c0.90528,-0.90528 1.81056,-0.52392 2.25867,-0.22741c1.64935,0 3.2987,0 4.94806,0c-0.36589,-0.37135 -0.68627,-0.80863 -0.95081,-1.32142c-1.77262,-3.436 0.55259,-8.6703 4.19212,-9.4349c0.98315,-0.20654 2.14564,-0.6938 3.00851,-0.17929c2.51944,1.5023 2.21942,3.57996 2.22996,5.83114c0.00562,1.1991 -0.14482,2.32414 -0.44907,3.34171c1.45613,-0.20003 2.7896,-0.50376 3.45578,-0.61484c0,0 1.77706,-0.29618 2.07324,1.48088c0.29618,1.77706 -1.48088,2.07324 -1.48088,2.07324c-1.76027,0.29326 -4.10151,0.7409 -6.3581,0.72729c-1.19935,1.01323 -2.78495,1.62544 -4.74752,1.69932c-2.20192,0 -4.40385,0 -6.60577,0l-1.57417,-0.82793c0,0 -1.2739,-1.2739 0,-2.54781zM186.27757,186.35526c0.51579,-0.95023 0.72098,-2.18425 0.72948,-3.40423c0.00601,-0.86062 0.55826,-2.12096 -0.17213,-2.5762c-1.68843,-1.05236 -2.85142,3.81605 -2.40778,4.79839c0.29582,0.655 0.9781,1.01338 1.85042,1.18202z" fill="#f8aeae" stroke="#000000" stroke-width="1"/><path d="M185.74885,231.36871c2.581,0.00746 5.15056,0.17198 7.73171,0.17132c3.50138,0 14.99159,-0.90909 10.91849,6.25798c-1.19465,2.10211 -5.90491,3.28938 -8.00965,2.9727c-1.15677,-0.17404 -1.91066,-1.67316 -3.08041,-1.68123c-2.06872,-0.01427 -3.53404,3.29587 -6.29606,2.51333c-3.18322,-0.90188 -3.83673,-5.45194 -3.90665,-8.22617c-0.03877,-0.2333 -0.03034,-0.50336 0.0476,-0.81512c0.12316,-0.49265 0.35047,-0.81172 0.61342,-1.01592c0.26188,-0.20558 0.62655,-0.34871 1.13435,-0.34871c0.34386,0 0.62208,0.06563 0.84721,0.17183z" fill="#b1a07c" stroke="none" stroke-width="0.5"/><path d="M209.48956,240.27191c-0.57193,-0.28597 -1.14385,-0.57193 -1.71578,-0.8579c0,0 -0.91756,-0.45878 -1.0217,-1.37634c-0.18862,-0.25853 -0.31734,-0.61136 -0.31734,-1.09292c0,-0.61993 0.21332,-1.02654 0.49315,-1.29323c-0.16063,-0.97108 0.69773,-1.65777 0.69773,-1.65777c3.96879,-3.12389 8.18723,-3.61242 13.13591,-3.4832c2.2284,0.05819 3.77575,-0.31797 4.96079,2.40852c0.36363,0.83661 -0.12671,1.82179 -0.25884,2.7244c-0.13596,0.92881 0.08624,2.06768 -0.54442,2.76298c-2.13205,2.35057 -4.66898,0.74048 -7.09615,1.47217c-1.85347,0.55874 -5.22189,2.13107 -7.24144,1.28092c-0.43331,-0.1824 -0.76974,-0.51419 -1.08028,-0.88615z" fill="#b1a07c" stroke="none" stroke-width="0.5"/><path d="M227.73496,235.35356c-0.29618,-1.77706 1.48088,-2.07324 1.48088,-2.07324c2.75373,-0.45891 7.11919,-0.05468 9.52292,-1.50147c1.88388,-1.13389 3.55369,-4.17214 6.37226,-3.02577c2.54081,1.03341 3.05464,6.21758 1.66788,8.18702c-1.90557,2.70625 -4.4019,1.17921 -6.47443,2.02042c-0.45833,0.18603 -0.45089,0.94191 -0.87277,1.20015c-2.29598,1.40542 -4.90917,1.32428 -7.43095,1.0566c-0.80572,-0.56351 -1.61145,-1.12702 -2.41717,-1.69052l-0.02496,-0.6634l-0.25019,0.06255l-0.50493,-2.01974c-0.01671,-0.06113 -0.03028,-0.12356 -0.04052,-0.18711c-0.44464,-0.17135 -0.89215,-0.55026 -1.02801,-1.36547z" fill="#b1a07c" stroke="none" stroke-width="0.5"/><path d="M252.41433,234.80649c-0.2696,-0.20363 -0.50353,-0.52552 -0.62913,-1.02794c-0.43694,-1.74778 1.31084,-2.18473 1.31084,-2.18473c4.32293,-1.06986 5.97101,-1.89391 9.42147,-4.46456c0.9536,-0.71046 1.98107,-2.01107 3.1313,-1.70933c2.42615,0.63646 3.10943,6.60727 2.20371,8.36107c-0.73731,1.42769 -2.70099,1.84598 -4.24907,2.27653c-1.05309,0.29289 -1.22856,1.87149 -2.12404,2.49829c-4.15895,2.91111 -7.46019,-0.13717 -9.69767,-3.40656c0.21338,-0.10764 0.42372,-0.22326 0.63259,-0.34278z" fill="#b1a07c" stroke="none" stroke-width="0.5"/></g></g></svg>