<svg version="1.1" xmlns="http://www.w3.org/2000/svg" xmlns:xlink="http://www.w3.org/1999/xlink" width="120.07305" height="139.96883" viewBox="0,0,120.07305,139.96883"><defs><radialGradient cx="242.25015" cy="160.97026" r="52.79511" gradientUnits="userSpaceOnUse" id="color-1"><stop offset="0" stop-color="#fff497"/><stop offset="1" stop-color="#ff97b7"/></radialGradient></defs><g transform="translate(-179.96348,-110.01558)"><g data-paper-data="{&quot;isPaintingLayer&quot;:true}" fill-rule="nonzero" stroke-linecap="butt" stroke-linejoin="miter" stroke-miterlimit="10" stroke-dasharray="" stroke-dashoffset="0" style="mix-blend-mode: normal"><path d="M189.45504,160.97026c0,-28.14149 23.63717,-50.95468 52.79511,-50.95468c29.15793,0 52.79511,22.81319 52.79511,50.95468c0,28.14149 -23.63718,50.95468 -52.79511,50.95468c-29.15794,0 -52.79511,-22.81319 -52.79511,-50.95468zM242.39161,173.04036c7.04163,0 12.75,-5.70837 12.75,-12.75c0,-7.04163 -5.70837,-12.75 -12.75,-12.75c-7.04163,0 -12.75,5.70837 -12.75,12.75c0,7.04163 5.70837,12.75 12.75,12.75z" fill="url(#color-1)" stroke="#e46767" stroke-width="0"/><path d="M256.26023,136.01631c-1.66019,0.5534 -2.21359,-1.1068 -2.21359,-1.1068c-0.24481,-0.73441 -0.73441,-2.20324 -0.97921,-2.93765c0,0 -0.55339,-1.66019 1.1068,-2.21359c1.66019,-0.5534 2.21359,1.1068 2.21359,1.1068c0.24481,0.73441 0.4896,1.46882 0.73441,2.20323l0.2448,0.73441c0,0 0.5534,1.66019 -1.1068,2.21359z" fill="#c996ff" stroke="none" stroke-width="0.5"/><path d="M262.59228,151.23871c-0.48076,-1.68266 1.20191,-2.16343 1.20191,-2.16343l1.71363,-0.4896c0,0 1.68267,-0.48076 2.16343,1.2019c0.48076,1.68267 -1.2019,2.16343 -1.2019,2.16343l-1.71363,0.48961c0,0 -1.68267,0.48076 -2.16343,-1.20191z" fill="#c996ff" stroke="none" stroke-width="0.5"/><path d="M276.27032,167.93057c-1.75,0 -1.75,-1.75 -1.75,-1.75l0.04167,-0.86923c0.29964,-1.3169 0.45495,-2.6763 0.44794,-4.02684c0,0 0,-1.75 1.75,-1.75c1.75,0 1.75,1.75 1.75,1.75c-0.007,1.60514 -0.18977,3.21768 -0.53128,4.78609l0.04167,0.10998c0,0 0,1.75 -1.75,1.75z" fill="#c996ff" stroke="none" stroke-width="0.5"/><path d="M261.8977,180.06555c-1.4,1.05 -2.45,-0.35 -2.45,-0.35l-1.0709,-1.81215c-0.0816,-0.65281 -0.1632,-1.30562 -0.2448,-1.95843c0,0 -0.21706,-1.73648 1.51942,-1.95354c1.73648,-0.21706 1.95355,1.51942 1.95355,1.51942c0.0816,0.65281 0.1632,1.30562 0.2448,1.95843l0.39793,0.14628c0,0 1.05,1.4 -0.35,2.45z" fill="#c996ff" stroke="none" stroke-width="0.5"/><path d="M276.2569,185.04386c-1.23744,-1.23744 0,-2.47487 0,-2.47487l1.46882,-1.46883c0,0 1.23744,-1.23744 2.47487,0c1.23744,1.23744 0,2.47488 0,2.47488l-1.46882,1.46882c0,0 -1.23744,1.23744 -2.47487,0z" fill="#c996ff" stroke="none" stroke-width="0.5"/><path d="M221.23775,186.35088c-1.56525,0.78262 -2.34788,-0.78262 -2.34788,-0.78262l-0.38788,-0.8926c-0.1632,-0.73441 -0.32641,-1.46882 -0.48961,-2.20323c0,0 -0.37963,-1.70833 1.3287,-2.08795c1.70833,-0.37963 2.08795,1.3287 2.08795,1.3287c0.1632,0.73441 0.32641,1.46883 0.48961,2.20324l0.10172,0.08661c0,0 0.78263,1.56525 -0.78262,2.34787z" fill="#c996ff" stroke="none" stroke-width="0.5"/><path d="M236.33098,188.70249c0,-0.9665 0.7835,-1.75 1.75,-1.75c0.9665,0 1.75,0.7835 1.75,1.75c0,0.9665 -0.7835,1.75 -1.75,1.75c-0.9665,0 -1.75,-0.7835 -1.75,-1.75z" fill="#c996ff" stroke="none" stroke-width="0.5"/><path d="M252.84803,197.79201c-1.50062,-0.90037 -0.60025,-2.40098 -0.60025,-2.40098l0.62652,-1.01301c0.45088,-1.04628 0.83917,-2.12254 1.14986,-3.21865c0,0 0.48077,-1.68266 2.16343,-1.2019c1.68266,0.48076 1.20191,2.16343 1.20191,2.16343c-0.35583,1.23672 -0.79335,2.45212 -1.29818,3.63585l-0.84231,1.43502c0,0 -0.90036,1.50062 -2.40098,0.60025z" fill="#c996ff" stroke="none" stroke-width="0.5"/><path d="M231.21374,199.22055c-0.97073,1.45609 -2.42681,0.48536 -2.42681,0.48536l-0.07673,-0.22392c-0.89761,-0.1632 -1.79523,-0.3264 -2.69284,-0.48961c0,0 -1.72177,-0.31305 -1.40872,-2.03482c0.31305,-1.72177 2.03482,-1.40872 2.03482,-1.40872c0.89761,0.1632 1.79523,0.3264 2.69284,0.48961l1.39209,0.75529c0,0 1.45609,0.97073 0.48536,2.42681z" fill="#c996ff" stroke="none" stroke-width="0.5"/><path d="M224.95999,170.09983c-1.71602,0.3432 -2.05922,-1.37281 -2.05922,-1.37281l-0.27879,-1.56722c0,-1.30562 0,-2.61124 0,-3.91686c0,0 0,-1.75 1.75,-1.75c1.75,0 1.75,1.75 1.75,1.75c0,1.30562 0,2.61124 0,3.91686l0.21082,0.88081c0,0 0.3432,1.71602 -1.37281,2.05922z" fill="#c996ff" stroke="none" stroke-width="0.5"/><path d="M203.00891,178.40487c-1.69775,0.42444 -2.12219,-1.27331 -2.12219,-1.27331l-0.48961,-1.95843c0,0 -0.42444,-1.69775 1.27331,-2.12219c1.69775,-0.42444 2.12219,1.27331 2.12219,1.27331l0.48961,1.95843c0,0 0.42444,1.69775 -1.27331,2.12219z" fill="#c996ff" stroke="none" stroke-width="0.5"/><path d="M210.59782,163.47185c-1.69775,0.42444 -2.12219,-1.27331 -2.12219,-1.27331l-0.45028,-1.82418c-0.22816,-0.52765 -0.45633,-1.0553 -0.68449,-1.58295c0,0 -0.68936,-1.6085 0.91915,-2.29786c1.6085,-0.68936 2.29786,0.91915 2.29786,0.91915c0.26144,0.61477 0.52289,1.22953 0.78433,1.8443l0.52893,2.09267c0,0 0.42444,1.69775 -1.27331,2.12219z" fill="#c996ff" stroke="none" stroke-width="0.5"/><path d="M218.21552,151.49236c0,-0.9665 0.7835,-1.75 1.75,-1.75c0.9665,0 1.75,0.7835 1.75,1.75c0,0.9665 -0.7835,1.75 -1.75,1.75c-0.9665,0 -1.75,-0.7835 -1.75,-1.75z" fill="#c996ff" stroke="none" stroke-width="0.5"/><path d="M228.59881,148.04924c-1.69775,-0.42444 -1.27331,-2.12219 -1.27331,-2.12219l0.37731,-1.3374c0.63524,-1.26953 1.30035,-2.52489 2.00425,-3.75767c0,0 0.86824,-1.51943 2.38767,-0.65118c1.51943,0.86824 0.65118,2.38767 0.65118,2.38767c-0.67261,1.1761 -1.30708,2.37443 -1.91261,3.58643l-0.1123,0.62103c0,0 -0.42444,1.69775 -2.12219,1.27331z" fill="#c996ff" stroke="none" stroke-width="0.5"/><path d="M223.39277,129.25162c-1.75,0 -1.75,-1.75 -1.75,-1.75c0,-0.65281 0,-1.55042 0,-2.20323c0,0 0,-1.75 1.75,-1.75c1.75,0 1.75,1.75 1.75,1.75c0,0.65281 0,1.30562 0,1.95843v0.2448c0,0 0,1.75 -1.75,1.75z" fill="#c996ff" stroke="none" stroke-width="0.5"/><path d="M212.60799,142.69285c-1.23744,-1.23744 0,-2.47487 0,-2.47487l1.00112,-0.95306c0.48961,-0.3264 0.97921,-0.65281 1.46882,-0.97921c0,0 1.45609,-0.97073 2.42681,0.48536c0.97073,1.45609 -0.48536,2.42681 -0.48536,2.42681c-0.48961,0.3264 -0.97921,0.65281 -1.46882,0.97921l-0.4677,0.51576c0,0 -1.23744,1.23744 -2.47487,0z" fill="#c996ff" stroke="none" stroke-width="0.5"/><path d="M203.52731,140.96581c0,-0.9665 0.7835,-1.75 1.75,-1.75c0.9665,0 1.75,0.7835 1.75,1.75c0,0.9665 -0.7835,1.75 -1.75,1.75c-0.9665,0 -1.75,-0.7835 -1.75,-1.75z" fill="#c996ff" stroke="none" stroke-width="0.5"/><path d="M193.24556,156.38843c0,-0.9665 0.7835,-1.75 1.75,-1.75c0.9665,0 1.75,0.7835 1.75,1.75c0,0.9665 -0.7835,1.75 -1.75,1.75c-0.9665,0 -1.75,-0.7835 -1.75,-1.75z" fill="#c996ff" stroke="none" stroke-width="0.5"/><path d="M279.43935,149.05774c-1.23744,-1.23744 0,-2.47487 0,-2.47487l0.77879,0.49418c-0.1632,-0.57121 -0.3264,-1.14242 -0.48961,-1.71362c0,0 -0.48076,-1.68267 1.2019,-2.16343c1.68267,-0.48076 2.16343,1.2019 2.16343,1.2019c0.1632,0.57121 0.3264,1.14242 0.48961,1.71362l-1.66925,2.94222c0,0 -1.23744,1.23744 -2.47487,0z" fill="#c996ff" stroke="none" stroke-width="0.5"/><path d="M243.91988,141.70022c0,-0.9665 0.7835,-1.75 1.75,-1.75c0.9665,0 1.75,0.7835 1.75,1.75c0,0.9665 -0.7835,1.75 -1.75,1.75c-0.9665,0 -1.75,-0.7835 -1.75,-1.75z" fill="#c996ff" stroke="none" stroke-width="0.5"/><path d="M240.30636,128.79162c0.16021,0.27897 0.76424,1.513 -0.52025,2.36932c-1.45609,0.97073 -2.42681,-0.48536 -2.42681,-0.48536l-0.64202,-2.39449c0.2448,-0.57121 0.48961,-1.14242 0.73441,-1.71362c0,0 0.68936,-1.6085 2.29786,-0.91915c1.6085,0.68936 0.91915,2.29786 0.91915,2.29786c-0.12078,0.28181 -0.24156,0.56363 -0.36233,0.84544z" fill="#c996ff" stroke="none" stroke-width="0.5"/><path d="M273.77723,136.69903c-1.6085,0.68936 -2.29786,-0.91915 -2.29786,-0.91915l-0.57502,-1.42188c-0.41905,-0.40416 -0.83809,-0.80832 -1.25714,-1.21248c0,0 -1.23744,-1.23744 0,-2.47487c1.23744,-1.23744 2.47487,0 2.47487,0c0.56017,0.57505 1.12033,1.1501 1.6805,1.72516l0.8938,2.00537c0,0 0.68936,1.6085 -0.91915,2.29786z" fill="#c996ff" stroke="none" stroke-width="0.5"/><path d="M245.87831,120.15751c0,-0.9665 0.7835,-1.75 1.75,-1.75c0.9665,0 1.75,0.7835 1.75,1.75c0,0.9665 -0.7835,1.75 -1.75,1.75c-0.9665,0 -1.75,-0.7835 -1.75,-1.75z" fill="#c996ff" stroke="none" stroke-width="0.5"/><path d="M240.28421,203.35432c0.22118,0 0.43278,0.04103 0.6276,0.1159c0.50201,0.17056 1.1224,0.59214 1.1224,1.6341c0,1.04196 -0.62039,1.46353 -1.1224,1.6341c-0.19482,0.07487 -0.40642,0.1159 -0.6276,0.1159c-0.03664,0 -0.07301,-0.00113 -0.10909,-0.00335c-0.62569,0.07821 -1.25139,0.15642 -1.87708,0.23463c0,0 -1.73649,0.21706 -1.95355,-1.51943c-0.21706,-1.73649 1.51943,-1.95355 1.51943,-1.95355c0.65281,-0.0816 1.30562,-0.1632 1.95843,-0.2448l0.35774,-0.01047c0.03445,-0.00202 0.06917,-0.00305 0.10413,-0.00305z" fill="#c996ff" stroke="none" stroke-width="0.5"/><path d="M232.54692,113.98921c0.78262,1.56525 -0.78262,2.34787 -0.78262,2.34787l-0.74467,0.34839c-0.57121,0.40801 -1.14242,0.81601 -1.71362,1.22402c0,0 -1.42403,1.01717 -2.4412,-0.40687c-1.01717,-1.42403 0.40687,-2.4412 0.40687,-2.4412c0.57121,-0.40801 1.14242,-0.81601 1.71362,-1.22402l1.21376,-0.63082c0,0 1.56525,-0.78262 2.34787,0.78262z" fill="#c996ff" stroke="none" stroke-width="0.5"/><path d="M270.18661,120.64712c0,1.75 -1.75,1.75 -1.75,1.75l-1.94994,-0.29391c-2.27438,-1.5313 -3.86831,-1.9283 -6.61818,-1.90932c0,0 -1.75,0 -1.75,-1.75c0,-1.75 1.75,-1.75 1.75,-1.75c3.4288,0.01976 5.70005,0.60644 8.55963,2.49714l0.00849,-0.29391c0,0 1.75,0 1.75,1.75z" fill="#c996ff" stroke="none" stroke-width="0.5"/><path d="M272.25116,193.23975c1.09322,1.36652 -0.2733,2.45974 -0.2733,2.45974l-1.19691,0.95708c-2.28284,1.89553 -4.77821,3.32504 -7.33785,4.81849c0,0 -1.51161,0.88177 -2.39339,-0.62984c-0.88177,-1.51161 0.62984,-2.39339 0.62984,-2.39339c2.38931,-1.39345 4.73672,-2.70684 6.86075,-4.48404l1.25112,-1.00135c0,0 1.36652,-1.09322 2.45974,0.2733z" fill="#c996ff" stroke="none" stroke-width="0.5"/><g stroke="none" stroke-width="0"><path d="M216.46265,155.74222c0,8.23911 -4.73752,14.91825 -10.58155,14.91825c-5.84402,0 -10.58155,-6.67912 -10.58155,-14.91825c0,-8.23911 4.73752,-14.91825 10.58155,-14.91825c5.84402,0 10.58155,6.67912 10.58155,14.91825z" fill="#ffffff"/><path d="M210.535,158.56276c0,4.98477 -2.14675,9.02573 -4.79492,9.02573c-2.64817,0 -4.79492,-4.04096 -4.79492,-9.02573c0,-4.98477 2.14675,-9.02573 4.79492,-9.02573c2.64817,0 4.79492,4.04096 4.79492,9.02573z" fill="#000000"/></g><g stroke="none" stroke-width="0"><path d="M288.78361,156.82537c0,8.23911 -4.73752,14.91825 -10.58155,14.91825c-5.84402,0 -10.58155,-6.67912 -10.58155,-14.91825c0,-8.23911 4.73752,-14.91825 10.58155,-14.91825c5.84402,0 10.58155,6.67912 10.58155,14.91825z" fill="#ffffff"/><path d="M282.85596,159.64591c0,4.98477 -2.14675,9.02573 -4.79492,9.02573c-2.64817,0 -4.79492,-4.04096 -4.79492,-9.02573c0,-4.98477 2.14675,-9.02573 4.79492,-9.02573c2.64817,0 4.79492,4.04096 4.79492,9.02573z" fill="#000000"/></g><path d="M259.62326,245.91968c0,1.51878 -1.23122,2.75 -2.75,2.75c-1.22739,0 -2.26698,-0.8041 -2.6207,-1.91425c-0.50266,-0.512 -0.76787,-1.22907 -0.78666,-1.98614c-0.25475,-10.26381 1.15232,-20.37283 -0.08223,-30.39347c-0.16001,-1.2988 -1.51227,-9.56407 1.17251,-9.71323c0.43045,-0.27943 0.94396,-0.44173 1.49538,-0.44173c1.35053,0 2.47369,0.97354 2.70595,2.25712c0.03444,0.10658 0.05557,0.21929 0.06118,0.33915c0.39925,8.52728 0.15491,17.03615 0.14721,25.63213c-0.0035,3.90081 0.09262,7.80279 0.01396,11.70262c0.40155,0.47801 0.64341,1.09466 0.64341,1.7678z" fill="#ff9ab6" stroke="none" stroke-width="0.5"/><path d="M225.6773,201.93083c1.4738,1.56183 2.94061,8.07889 3.40176,10.25102c0.92874,4.37458 -1.02985,7.80566 -1.17361,11.98844c-0.16064,4.67415 -0.25571,7.9715 -0.16434,13.41476c0.04931,2.93757 3.23534,12.39936 -1.9283,12.39936c-0.9238,0 -1.75302,-0.72177 -2.40625,-1.375c-0.33406,-0.33406 -0.30897,-0.90384 -0.34375,-1.375c-0.21376,-2.89555 -0.79602,-6.34491 -0.8217,-9.2031c-0.08044,-8.95311 1.49037,-16.24534 1.47907,-24.48681c-0.00348,-2.53983 -2.04557,-6.36465 -2.69673,-8.96932c-0.06328,-0.23152 -0.09707,-0.47521 -0.09707,-0.7268c0,-1.51878 1.23122,-2.75 2.75,-2.75c0.07798,0 0.15521,0.00325 0.23154,0.00961c0.61114,0.00701 1.23113,0.25245 1.76937,0.82284z" fill="#ff9ab6" stroke="none" stroke-width="0.5"/><path d="M289.46351,171.06094c-0.09116,-0.31034 -0.12871,-0.64213 -0.10268,-0.98376c0.11541,-1.51439 1.43662,-2.64849 2.95101,-2.53309c1.26861,0.09668 2.27035,1.03952 2.49426,2.23326c0.02405,0.12821 0.03912,0.2593 0.04459,0.39256c0.10595,1.1755 0.05732,2.88376 0.05855,3.07318c0.01913,2.93628 -0.40366,5.85881 -0.61377,8.78762c-0.17836,2.48632 3.8146,4.7996 4.61518,6.98929c2.7671,7.56832 -0.13386,13.85486 -2.61279,20.80419c-0.70524,1.97704 0.3395,5.59394 -3.32779,5.31447c-2.90493,-0.22137 -2.60802,-2.90715 -2.39572,-4.75354c0.66516,-5.78497 4.63862,-9.96063 3.87417,-16.23341c-0.52898,-4.34056 -4.3614,-6.35191 -5.45827,-10.36248c-0.89509,-3.2728 0.32683,-7.88874 0.45623,-10.51056c0.04525,-0.91682 0.01686,-1.63128 0.01702,-2.21774z" data-paper-data="{&quot;index&quot;:null}" fill="#ff9ab6" stroke="none" stroke-width="0.5"/><path d="M194.25935,171.02397c0.37552,0.03142 0.70015,0.09247 0.97924,0.17946c0.67438,0.21021 1.08292,0.57193 1.30135,1.03335c0.29637,0.43883 0.46941,0.9678 0.46941,1.53719c0,0.76269 -0.31048,1.45286 -0.81195,1.95101c-0.45742,1.26236 -1.06834,2.51618 -1.28613,3.38735c-1.18675,4.747 -5.41504,9.30518 -5.46161,14.22807c-0.01756,1.8564 1.12954,6.49788 0.65736,8.3866c-0.38917,1.55668 -2.66701,3.32945 -2.51028,4.9857c0.02893,0.30575 0.70325,-0.23137 0.92121,-0.01502c0.65566,0.65079 1.18819,1.47725 1.44576,2.36441c0.43704,1.50537 -3.97986,9.00095 -6.45008,8.86372c-4.19979,-0.23332 -3.89462,-5.61049 -2.98279,-8.68948c0.83049,-2.80433 3.84056,-6.04536 4.07618,-8.82784c0.17229,-2.03465 -0.68904,-5.56821 -0.65736,-7.40664c0.07689,-4.46277 2.88253,-8.42232 4.52025,-12.37614c1.14505,-2.7644 1.71869,-8.39359 4.85891,-9.44033z" fill="#ff9ab6" stroke="none" stroke-width="0.5"/></g></g></svg>