<svg version="1.1" xmlns="http://www.w3.org/2000/svg" xmlns:xlink="http://www.w3.org/1999/xlink" width="163.6585" height="139.90715" viewBox="0,0,163.6585,139.90715"><g transform="translate(-157.62505,-110.04641)"><g data-paper-data="{&quot;isPaintingLayer&quot;:true}" fill-rule="nonzero" stroke-linejoin="miter" stroke-miterlimit="10" stroke-dasharray="" stroke-dashoffset="0" style="mix-blend-mode: normal"><path d="M190.3662,247.95357v-135.90715h99.2676v135.90715z" fill="#a7a7a7" stroke="#000000" stroke-width="4" stroke-linecap="butt"/><g stroke="none" stroke-width="0" stroke-linecap="butt"><path d="M276.47388,158.61506c0,20.88826 -16.20721,37.82159 -36.19985,37.82159c-19.99259,0 -36.19985,-16.93329 -36.19985,-37.82159c0,-20.88826 16.20721,-37.82159 36.19985,-37.82159c19.99259,0 36.19985,16.93329 36.19985,37.82159z" fill="#ffffff"/><path d="M256.19518,165.76585c0,12.63767 -7.34411,22.88253 -16.40358,22.88253c-9.05947,0 -16.40358,-10.24486 -16.40358,-22.88253c0,-12.63767 7.34411,-22.88253 16.40358,-22.88253c9.05947,0 16.40358,10.24486 16.40358,22.88253z" fill="#000000"/></g><text transform="translate(201.10006,216.57465) scale(0.36918,0.36918)" font-size="40" xml:space="preserve" fill="#ffffff" fill-rule="nonzero" stroke="none" stroke-width="1" stroke-linecap="butt" stroke-linejoin="miter" stroke-miterlimit="10" stroke-dasharray="" stroke-dashoffset="0" font-family="Sans Serif" font-weight="normal" text-anchor="start" style="mix-blend-mode: normal"><tspan x="0" dy="0">ПУКОЗВУК</tspan></text><path d="M180.22404,210.80487c0,0 -11.71898,-8.86612 -9.79895,-33.23122c1.70931,-21.69101 9.79895,-26.8406 9.79895,-26.8406" fill="none" stroke="#000000" stroke-width="4.5" stroke-linecap="round"/><path d="M178.40739,237.53528c0,0 -21.69303,-16.41208 -18.13886,-61.51438c3.1641,-40.15227 18.13886,-49.68469 18.13886,-49.68469" fill="none" stroke="#000000" stroke-width="4.5" stroke-linecap="round"/><path d="M299.07803,150.62056c0,0 8.08965,5.14959 9.79895,26.8406c1.92003,24.3651 -9.79895,33.23121 -9.79895,33.23121" data-paper-data="{&quot;index&quot;:null}" fill="none" stroke="#000000" stroke-width="4.5" stroke-linecap="round"/><path d="M300.89468,126.22371c0,0 14.97476,9.53242 18.13886,49.68469c3.55417,45.1023 -18.13886,61.51439 -18.13886,61.51439" data-paper-data="{&quot;index&quot;:null}" fill="none" stroke="#000000" stroke-width="4.5" stroke-linecap="round"/><path d="M217.96018,232.12353c0,6.15166 -4.9869,11.13856 -11.13856,11.13856c-6.15166,0 -11.13855,-4.98691 -11.13855,-11.13856c0,-6.15166 4.9869,-11.13856 11.13855,-11.13856c6.15166,0 11.13856,4.98691 11.13856,11.13856z" fill="#7a7a7a" stroke="none" stroke-width="0" stroke-linecap="butt"/><path d="M212.96087,232.51617c0,3.26747 -2.75917,5.91628 -6.16279,5.91628c-3.40362,0 -6.16279,-2.64881 -6.16279,-5.91628c0,-3.26747 2.75917,-5.91628 6.16279,-5.91628c3.40362,0 6.16279,2.64881 6.16279,5.91628z" fill="#000000" stroke="none" stroke-width="0" stroke-linecap="butt"/><path d="M284.71093,232.06018c0,6.15166 -4.9869,11.13856 -11.13856,11.13856c-6.15166,0 -11.13855,-4.98691 -11.13855,-11.13856c0,-6.15166 4.9869,-11.13856 11.13855,-11.13856c6.15166,0 11.13856,4.98691 11.13856,11.13856z" fill="#7a7a7a" stroke="none" stroke-width="0" stroke-linecap="butt"/><path d="M279.93177,232.12261c0,3.26747 -2.75918,5.91628 -6.16279,5.91628c-3.40362,0 -6.16279,-2.64881 -6.16279,-5.91628c0,-3.26747 2.75917,-5.91628 6.16279,-5.91628c3.40362,0 6.16279,2.64881 6.16279,5.91628z" fill="#000000" stroke="none" stroke-width="0" stroke-linecap="butt"/></g></g></svg>