<svg version="1.1" xmlns="http://www.w3.org/2000/svg" xmlns:xlink="http://www.w3.org/1999/xlink" width="156.60423" height="148.33667" viewBox="0,0,156.60423,148.33667"><g transform="translate(-165.69789,-105.33167)"><g data-paper-data="{&quot;isPaintingLayer&quot;:true}" fill-rule="nonzero" stroke-linecap="butt" stroke-linejoin="miter" stroke-miterlimit="10" stroke-dasharray="" stroke-dashoffset="0" style="mix-blend-mode: normal"><g><g fill="#947469" stroke="none" stroke-width="0.5"><path d="M257.079,142.00503l0.02486,0.97261c6.15463,13.91396 17.16665,24.00274 25.90531,36.25206c0.96565,1.35359 5.78147,9.71752 6.43001,11.08576c1.52133,3.20955 1.61965,6.65784 3.24896,9.82095c0,0 1.8771,3.75419 -1.83041,5.6663c-0.41617,3.01822 -1.02131,6.06023 -2.6305,8.532c0.24293,0.77542 0.24293,1.40606 0.24293,1.40606l-0.02599,-0.136c0.22067,2.02285 0.35292,4.05918 0.35922,6.09405c0.66678,1.13901 0.66678,2.37529 0.66678,2.37529l-0.02109,1.91044c0.08911,1.09229 -0.61547,2.65605 0.28891,3.27503c2.82951,1.9366 6.08406,2.89973 8.89637,4.98345c1.196,0.88615 2.8157,1.47871 3.46335,2.81895c0.98829,2.04515 0.7633,4.47826 1.14494,6.71739c-1.31808,1.33584 -2.4141,2.93525 -3.95424,4.00753c-1.06513,0.74157 -2.44815,0.86276 -3.66992,1.30058c-5.09941,1.82736 -10.08125,3.0304 -15.51994,3.23134c-3.55944,0.13151 -8.19114,0.34059 -10.95479,-2.70777c-0.51812,-0.5715 -1.02752,-7.13647 -1.15436,-8.46645c-0.27283,-2.86084 -0.00663,-5.82383 -0.33188,-8.65172c-0.50942,-4.4292 -1.2447,-8.58013 -1.54823,-12.92978c-2.74078,0.08671 -5.48687,0.1223 -8.23472,0.13111l0.26227,2.04656c-0.02612,2.61084 0.07789,5.28722 1.79379,7.39314c1.24076,0.81148 2.92037,1.18748 3.72229,2.43445c6.55818,10.19773 -5.35245,22.08547 -15.0699,22.08897c-3.94582,0.00142 -8.43871,-0.31268 -11.0258,-4.0946c-1.75155,-2.5605 -0.13702,-6.24774 0.09679,-8.8703c0.53329,-5.9816 -1.34251,-10.60261 -2.30943,-16.36218c-0.03491,-0.20797 -0.04156,-2.77605 -0.0421,-4.65752c-2.87287,0.07071 -5.75758,0.23034 -8.53848,0.5794c-2.37569,0.2982 -4.80649,0.68907 -7.25947,1.02633c0.04711,0.29972 0.14134,0.58608 0.30469,0.85275c0.28685,0.4683 1.06063,0.35942 1.49138,0.70007c0.53579,0.42372 0.75642,1.20101 1.34688,1.54449c1.45684,0.84746 3.29454,0.78103 4.84926,1.43173c5.04774,2.11265 10.45849,6.16535 9.9678,12.48557c-0.14478,1.86482 -0.79424,3.74566 -1.8257,5.30598c-0.81671,1.23546 -2.25844,1.92824 -3.49518,2.74302c-1.46214,0.96329 -4.99941,2.68739 -6.77631,3.57554c-7.63363,3.34097 -17.29032,4.18253 -25.5426,2.67689c-4.74349,-0.86546 -9.23957,-3.5146 -10.7122,-8.42955c-1.32416,-4.41944 0.87548,-9.56893 2.02958,-13.62087c1.13362,-3.98002 0.75873,-8.74983 0.57262,-13.10903c-1.00394,-0.47695 -1.85718,-0.99304 -2.71373,-1.57358c-2.30929,5.89863 -4.22493,11.95202 -6.48683,17.85865c0.02481,0.03221 0.04817,0.06226 0.06996,0.09c2.25629,2.87291 3.58246,5.66269 4.64235,9.17896c0.44187,1.46592 1.60236,2.94036 1.23001,4.42546c-0.56665,2.26008 -1.77677,4.72145 -3.80908,5.86108c-1.73967,0.97553 -3.99064,-0.14516 -5.9717,-0.37648c-2.04594,-0.23889 -3.84369,-0.73014 -5.57859,-1.38443l-0.01297,0.11674l-2.94903,-0.32767c-2.15084,-0.21016 -3.83163,-2.02363 -3.83163,-4.22967c0,-0.31433 0.03412,-0.6207 0.09887,-0.91559c-0.06583,-0.0905 -0.12841,-0.18314 -0.18756,-0.27795c-0.98645,-1.58092 -0.26605,-3.72303 -0.22116,-5.58592c0.16843,-6.99007 4.52053,-13.84116 7.36921,-20.00483c0.04784,-0.10351 0.09495,-0.20737 0.14137,-0.31153c0.36209,-4.67353 0.78308,-8.71248 3.04407,-13.24272l1.6272,-0.21014l-0.29615,-0.69102l1.09992,-0.4714c-0.63661,-5.16109 2.28255,-11.30763 2.7944,-16.39569c1.14531,-2.63019 3.0529,-4.87217 4.29285,-7.45909c0.73049,-1.52403 0.61878,-3.38303 1.43531,-4.86275c0.85021,-1.54076 2.3402,-2.63028 3.45209,-3.99429c0.52867,-0.64854 5.49867,-7.16128 6.10423,-8.03177c3.35652,-4.82496 6.87793,-9.13463 11.98132,-12.23024c3.11824,-1.89146 6.96063,-2.13907 10.3678,-3.1113c5.25493,-1.49947 10.395,-3.26219 15.69767,-4.67522c2.92157,-0.77853 5.88218,-1.74754 8.40128,-3.41961c1.2985,-0.86188 2.22324,-2.70645 3.78113,-2.75019c0.39269,-0.01102 0.7817,0.00827 1.16774,0.05193l-0.0376,-0.3384l2.93863,-0.32651c0.17386,-0.02166 0.35098,-0.03281 0.5307,-0.03281c0.97085,0 1.86567,0.32553 2.58127,0.8734c2.1846,0.78673 2.61091,3.34457 2.61091,3.34457zM281.66781,193.75866c-0.40077,-0.82191 -4.97172,-8.74452 -5.56999,-9.58091c-3.44286,-4.81323 -7.72289,-9.1936 -11.46687,-13.74241c-2.83311,-3.44213 -6.19577,-7.49895 -8.45782,-11.33167c-1.11099,-1.8824 -1.01441,-2.96303 -2.17648,-4.74039c-1.53313,-2.34489 -2.91079,-4.33925 -4.12723,-6.7999c-0.16071,0.02958 -0.33224,0.05355 -0.51172,0.06809c-0.37949,0.20283 -0.78363,0.38759 -1.09026,0.59292c-1.5029,1.00642 -3.02974,2.0164 -4.69797,2.71537c-2.90767,1.21828 -9.91781,2.70478 -12.86626,3.52215c-4.22146,1.17027 -8.21483,2.64697 -12.45454,3.6988c-8.57952,2.12849 -12.24354,8.7795 -17.31078,15.44701c-1.88316,2.47788 -4.54388,4.40329 -5.99938,7.15424c-0.72286,1.36624 -0.56173,3.07748 -1.23136,4.47058c-1.00309,2.08684 -2.73398,3.77329 -3.70715,5.87425c-0.28885,3.63084 -1.29085,6.97367 -1.90761,10.5433c-0.18976,1.09828 -1.62208,2.72949 -0.6526,3.27935c2.31568,1.31338 4.49994,3.63686 6.80532,4.70434c0.44007,0.20377 0.89464,0.37783 1.3597,0.53006c0.09187,-0.00425 0.18586,-0.00643 0.28203,-0.00643c1.09736,0 1.91138,0.28334 2.51522,0.70371c1.71201,0.33895 3.45628,0.59805 5.06138,1.11184c1.07467,0.344 2.05192,1.00296 3.16079,1.21188c6.22348,1.17256 12.91942,-0.59896 19.05211,-1.36285c5.06915,-0.63142 10.43818,-0.69466 15.54383,-0.70161c10.12309,0 20.31404,0.29047 30.40258,-0.32512c2.89847,-0.17686 6.29079,0.31239 9.06351,-0.57605c1.85671,-0.59493 1.81661,-6.04171 1.9834,-7.37597l0.51861,-1.81682c0,0 0.14927,-0.44782 0.49757,-0.99523c-0.58557,-2.12565 -1.04172,-4.27031 -2.01802,-6.27253z"/><path d="M283.7322,200.04989c-0.3483,0.5474 -0.49798,0.99621 -0.49798,0.99621l-0.51935,1.81846c-0.16678,1.33427 -0.13009,6.78712 -1.98679,7.38205c-2.77272,0.88844 -6.16848,0.40384 -9.06695,0.5807c-10.08854,0.61559 -20.30853,0.3422 -30.43161,0.3422c-5.10565,0.00695 -10.49889,0.06881 -15.56805,0.70023c-6.13269,0.7639 -12.84686,2.52516 -19.07034,1.3526c-1.10887,-0.20892 -2.08869,-0.87031 -3.16336,-1.21431c-1.6051,-0.51379 -3.35241,-0.77626 -5.06442,-1.11522c-0.60384,-0.42036 -1.41919,-0.70541 -2.51656,-0.70541c-0.09617,0 -0.19026,0.00204 -0.28213,0.0063c-0.46505,-0.15223 -0.92035,-0.32729 -1.36042,-0.53106c-2.30538,-1.06748 -4.49337,-3.39716 -6.80906,-4.71054c-0.96948,-0.54985 0.46175,-2.18336 0.65151,-3.28164c0.61677,-3.56963 1.61573,-6.92151 1.90458,-10.55235c0.97317,-2.10096 2.70308,-3.79316 3.70617,-5.87999c0.66963,-1.39311 0.50819,-3.10966 1.23105,-4.4759c1.4555,-2.75095 4.1172,-4.6865 6.00037,-7.16438c5.06724,-6.66751 8.74988,-13.34832 17.3294,-15.47682c4.23971,-1.05183 8.25462,-2.53804 12.47608,-3.70831c2.94845,-0.81736 9.98073,-2.30286 12.88841,-3.52114c1.66824,-0.69897 3.20027,-1.70722 4.70317,-2.71363c0.30663,-0.20533 0.71179,-0.38966 1.09128,-0.5925c0.17949,-0.01454 0.35158,-0.03827 0.51229,-0.06785c1.21645,2.46064 2.60296,4.46003 4.13609,6.80491c1.16207,1.77736 1.07133,2.86283 2.18231,4.74524c2.26205,3.83272 5.63718,7.90909 8.47029,11.35122c3.74398,4.54881 8.02657,8.94996 11.46943,13.7632c0.59826,0.83639 5.1675,8.76829 5.56827,9.5902c0.9763,2.00222 1.43074,4.15187 2.01631,6.27752z" data-paper-data="{&quot;noHover&quot;:false,&quot;origItem&quot;:[&quot;Path&quot;,{&quot;applyMatrix&quot;:true,&quot;selected&quot;:true,&quot;segments&quot;:[[[281.66781,193.75866],[0.9763,2.00222],[-0.40077,-0.82191],7],[[276.09782,184.17775],[0.59826,0.83639],[-3.44286,-4.81323],7],[[264.63095,170.43535],[3.74398,4.54881],[-2.83311,-3.44213],7],[[256.17313,159.10368],[2.26205,3.83272],[-1.11099,-1.8824],7],[[253.99665,154.36329],[1.16207,1.77736],[-1.53313,-2.34489],7],[[249.86942,147.56339],[1.21645,2.46064],[-0.16071,0.02958],7],[[249.3577,147.63149],[0.17949,-0.01454],[-0.37949,0.20283],7],[[248.26744,148.22441],[0.30663,-0.20533],[-1.5029,1.00642],7],[[243.56946,150.93978],[1.66824,-0.69897],[-2.90767,1.21828],7],[[230.7032,154.46193],[2.94845,-0.81736],[-4.22146,1.17027],7],[[218.24866,158.16073],[4.23971,-1.05183],[-8.57952,2.12849],7],[[200.93788,173.60774],[5.06724,-6.66751],[-1.88316,2.47788],7],[[194.93851,180.76198],[1.4555,-2.75095],[-0.72286,1.36624],7],[[193.70715,185.23256],[0.66963,-1.39311],[-1.00309,2.08684],7],[[189.99999,191.10681],[0.97317,-2.10096],[-0.28885,3.63084],7],[[188.09238,201.65011],[0.61677,-3.56963],[-0.18976,1.09828],7],[[187.43978,204.92946],[-0.96948,-0.54985],[2.31568,1.31338],7],[[194.2451,209.6338],[-2.30538,-1.06748],[0.44007,0.20377],7],[[195.6048,210.16386],[-0.46505,-0.15223],[0.09187,-0.00425],7],[[195.88683,210.15743],[-0.09617,0],[1.09736,0],7],[[198.40205,210.86114],[-0.60384,-0.42036],[1.71201,0.33895],7],[[203.46343,211.97297],[-1.6051,-0.51379],[1.07467,0.344],7],[[206.62422,213.18485],[-1.10887,-0.20892],[6.22348,1.17256],7],[[225.67633,211.822],[-6.13269,0.7639],[5.06915,-0.63142],7],[[241.22016,211.12039],[-5.10565,0.00695],[10.12309,0],7],[[271.62274,210.79527],[-10.08854,0.61559],[2.89847,-0.17686],7],[[280.68625,210.21922],[-2.77272,0.88844],[1.85671,-0.59493],7],[[282.66965,202.84325],[-0.16678,1.33427],[0,0],7],[[283.18826,201.02643],[0,0],[0,0],7],[[283.68583,200.0312],[-0.3483,0.5474],[-0.58557,-2.12565],7]],&quot;closed&quot;:true}]}"/></g><path d="M286.08327,112.10939c0.5925,-0.90041 1.63522,-1.69271 3.47022,-1.69271c2.32049,0 3.37399,1.26698 3.85229,2.4174c2.29108,2.23651 3.01912,6.41165 3.3895,9.23518l-0.12458,0.26408h0.13279v2.28617c0.42998,0.1942 0.85655,0.39334 1.27936,0.59747c1.96233,0.94742 3.43474,2.70016 5.29937,3.82777c1.83446,1.10937 4.2174,1.28975 5.84315,2.68721c2.13885,1.83852 3.38084,4.51543 5.07362,6.77138c2.2977,3.06213 4.95193,5.94804 6.58114,9.41239c0.49393,1.05029 0.33433,2.2974 0.53515,3.44053c0.9654,5.49546 1.25429,11.98748 0.30142,17.5353c-0.37513,2.18408 -1.50022,4.17571 -2.07738,6.3153c-0.88537,2.90942 -1.20445,4.74822 -2.97138,7.31519c-2.285,3.3196 -5.36042,6.28813 -7.3775,9.87261c-2.52294,4.48341 -2.65664,9.9939 -8.26242,12.29505c-4.70331,1.93069 -9.95481,-0.58247 -13.96908,-2.48251c-3.76083,-1.78007 -8.2891,-2.17052 -11.96656,-3.98425c-1.63377,-0.80578 -2.89293,-2.24747 -4.50957,-3.0871c-3.03191,-1.57468 -6.59752,-2.02029 -9.52861,-3.7755c-3.47848,-2.083 -4.56312,-3.78375 -7.09732,-6.72574c-0.53582,-1.32486 -1.40079,-2.56049 -1.60746,-3.97458c-0.54581,-3.73459 1.24968,-7.53415 2.59349,-10.8733c1.80164,-4.47679 4.10019,-11.61455 3.16314,-16.35029c-0.15439,-0.78025 -0.87896,-1.32713 -1.27569,-2.01651c-2.52383,-4.3855 -5.46727,-8.25651 -7.74552,-12.81693c-1.85441,-3.71202 -2.9826,-5.85149 -3.71385,-9.81155c-0.02541,-0.13763 -0.05611,-0.29034 -0.0899,-0.45418c0.74521,-3.24211 -0.05849,-7.69779 -1.22578,-10.90731c0.03398,-0.03204 0.06822,-0.06313 0.10269,-0.09328c-0.09617,-1.73838 -0.15555,-3.52242 0.14549,-5.00335c0.42907,-2.11071 -0.09569,-5.29952 1.86733,-6.18595c7.06924,-3.19224 10.00343,3.74469 12.84104,7.71569l-0.11983,-0.20161c0,0 1.56404,1.56404 1.30714,3.5638c3.1388,0.12612 6.26859,0.40115 9.28576,0.99843c4.10199,0.81204 7.48697,1.56416 11.82068,1.58403c0.63107,0.12295 1.26385,0.25396 1.89736,0.39318c0.00328,-3.14484 0.41921,-6.66918 2.8803,-8.09153z" fill="#947469" stroke="none" stroke-width="0.5"/><g stroke="none" stroke-width="0"><path d="M283.2054,144.45776c0,8.23911 -4.73752,14.91825 -10.58155,14.91825c-5.84402,0 -10.58155,-6.67912 -10.58155,-14.91825c0,-8.23911 4.73752,-14.91825 10.58155,-14.91825c5.84402,0 10.58155,6.67912 10.58155,14.91825z" fill="#ffffff"/><path d="M277.27775,147.2783c0,4.98477 -2.14675,9.02573 -4.79492,9.02573c-2.64817,0 -4.79492,-4.04096 -4.79492,-9.02573c0,-4.98477 2.14675,-9.02573 4.79492,-9.02573c2.64817,0 4.79492,4.04096 4.79492,9.02573z" fill="#000000"/></g><g stroke="none" stroke-width="0"><path d="M311.90694,149.95776c0,6.30612 -3.62604,11.41825 -8.09899,11.41825c-4.47294,0 -8.09899,-5.11212 -8.09899,-11.41825c0,-6.30612 3.62604,-11.41825 8.09899,-11.41825c4.47294,0 8.09899,5.11212 8.09899,11.41825z" fill="#ffffff"/><path d="M307.36999,152.11657c0,3.81528 -1.6431,6.90819 -3.66997,6.90819c-2.02688,0 -3.66997,-3.0929 -3.66997,-6.90819c0,-3.81528 1.6431,-6.90819 3.66997,-6.90819c2.02688,0 3.66997,3.0929 3.66997,6.90819z" fill="#000000"/></g><path d="M280.17401,169.6501c-0.14851,-0.21163 -0.28976,-0.44824 -0.42183,-0.71238c-1.90066,-3.80132 1.90066,-5.70197 1.90066,-5.70197c3.31428,-1.62673 8.21387,-3.90635 12.01413,-2.19484c1.8843,0.84863 3.78336,2.29328 4.54829,4.21308c1.4827,3.72128 -1.55266,12.50545 -5.43507,14.06973c-4.79286,1.93111 -10.1407,-1.94302 -11.46639,-6.27917c-0.33349,-1.09081 -0.89753,-2.25599 -1.13978,-3.39445z" fill="#c1755c" stroke="#ffffff" stroke-width="1"/><path d="M305.25094,178.24729c4.12311,1.03078 3.09233,5.15388 3.09233,5.15388l-1.00033,3.56012c-4.18231,5.34372 -11.41459,14.24097 -19.38218,9.00877c-0.46726,-0.30685 -1.79925,-1.66658 -2.86932,-3.28153c-0.62779,-0.03398 -1.25862,-0.08519 -1.87127,-0.06813c-6.61458,0.18424 -14.16957,0.95386 -19.87209,-3.17493c-1.75774,-1.27266 -2.93016,-3.20385 -4.46645,-4.73654c0,0 -3.0052,-3.0052 0,-6.01041c3.0052,-3.0052 6.01041,0 6.01041,0c3.65701,3.66467 5.23129,5.47819 10.66146,5.42187c2.55542,-0.02651 5.11324,-0.10421 7.66667,0c0.60894,0.02485 1.05629,0.02343 1.37024,0.02346l0.07225,-0.578c0.23444,-2.12546 2.03623,-3.77879 4.22417,-3.77879c2.34721,0 4.25,1.90279 4.25,4.25c0,0.16221 -0.00909,0.3223 -0.02678,0.47978l-0.32764,3.27645l-0.00553,-0.00055c-0.04092,0.34112 -0.11545,0.71393 -0.22722,1.13086c-0.13996,0.5221 1.03358,-0.32376 1.52932,-0.5392c0.61989,-0.2694 1.24297,-0.54406 1.81496,-0.90417c1.66369,-1.04742 2.54487,-2.95063 3.87013,-4.36739l0.333,-1.77321c0,0 1.03078,-4.12311 5.15388,-3.09233z" fill="#7d7d7d" stroke="#ffffff" stroke-width="1"/><path d="M259.68863,164.98255c-1.95217,1.56174 -3.51391,-0.39043 -3.51391,-0.39043l-1.62412,-2.03016c-1.94247,-2.43241 -3.00158,-4.65988 -4.35393,-7.36589c-0.40184,-0.80407 -1.23623,-1.39564 -1.56223,-2.21668c-0.77086,0.39091 -1.69286,0.51829 -2.54149,0.71415c-3.7786,0.87212 -7.51222,1.69033 -11.39132,2.08898c-6.31541,-0.00271 -10.87521,1.39185 -16.29892,4.51998c-1.49665,0.8632 -2.54871,2.37761 -4.04604,3.23963c-1.11576,0.64235 -2.47754,0.81917 -3.53815,1.54901c-1.0884,0.74896 -1.74789,2.00489 -2.79578,2.80954c-1.08394,0.83234 -3.05148,1.18146 -3.98395,2.38581c-1.58302,2.04456 -1.77391,5.06107 -2.96463,7.27734c-1.24761,2.32217 -4.35054,4.88692 -5.15719,7.43582c-0.3545,1.12019 -0.04751,2.37332 -0.3574,3.50666c-0.07886,0.2884 -2.25123,4.5786 -2.52412,5.12103c-0.7206,2.12061 -3.26906,4.71506 -3.49987,6.77393c-0.1005,0.8965 0.40774,1.76918 0.43709,2.67082c0.01996,0.61336 -0.49716,1.2399 -0.29098,1.81792c0.45987,1.28925 2.69429,0.48749 4.03327,0.77173c0.14274,0.0303 5.2073,1.71884 5.33978,1.77993c0.92365,0.42585 1.6749,1.20074 2.63313,1.54171c0.92812,0.33025 2.00358,0.08197 2.92313,0.43536c1.54535,0.59389 2.95274,2.03884 4.59994,1.87291c0.34951,-0.03521 4.74751,-1.53038 4.89626,-1.56465c5.97693,-1.37679 12.255,-1.61214 18.31316,-0.86327c9.29093,0.93606 18.80567,0.36302 28.14273,0.39036c5.76704,0.01689 11.67187,1.57208 17.47151,-0.09595c1.00268,-0.28838 0.62638,-2.00143 0.7612,-3.036c0.2829,-2.17081 0.9515,-4.29812 1.80114,-6.31568c0,0 0.9848,-2.29786 3.28266,-1.31306c2.29786,0.9848 1.31306,3.28266 1.31306,3.28266c-1.58733,3.62534 -0.7491,9.60113 -4.74622,11.76193c-1.34837,0.72892 -3.02936,0.4699 -4.54535,0.6962c-4.65177,0.6944 -8.19131,0.63336 -12.80124,0.00117c-2.74664,-0.37666 -5.85061,0.01873 -8.62722,0.01873c-7.52703,0 -15.11932,0.32228 -22.61115,-0.4217c-5.48192,-0.69345 -11.1947,-0.49041 -16.60551,0.76085c-1.88767,0.43653 -3.68557,1.59107 -5.66054,1.6836c-1.4477,0.06783 -2.93316,-0.10989 -4.31223,-0.55554c-0.93547,-0.3023 -1.53923,-1.2787 -2.4567,-1.63186c-0.86695,-0.33371 -1.88681,-0.06328 -2.7613,-0.3767c-1.09704,-0.39318 -1.99339,-1.21776 -3.0513,-1.70654c-3.70256,-1.71068 -9.3417,-0.82493 -11.74057,-4.7569c-0.67315,-1.10335 -0.1795,-2.57885 -0.29098,-3.86652c-0.11052,-1.27656 -0.57912,-2.56071 -0.37497,-3.82568c0.44497,-2.75722 2.93468,-5.16265 3.80869,-7.84318c0.76971,-1.54779 1.91438,-2.95044 2.34825,-4.62372c0.32035,-1.23547 0.03645,-2.59603 0.45466,-3.80189c1.01728,-2.93318 3.94427,-5.29792 5.39962,-7.99336c1.38007,-2.55602 1.61786,-5.80374 3.53187,-8.15184c1.25255,-1.53662 3.37845,-2.08854 4.94873,-3.29863c1.07605,-0.82922 1.76889,-2.10572 2.88865,-2.87489c1.13629,-0.78052 2.57118,-1.01937 3.77041,-1.69924c1.51259,-0.85752 2.57638,-2.37445 4.07458,-3.25686c6.02943,-3.55124 11.57513,-5.22179 18.61975,-5.22476c2.4726,-0.23892 4.86806,-0.99618 7.2861,-1.56529c1.66658,-0.39224 3.4596,-0.32418 5.04274,-0.97608c1.34896,-0.55547 2.61888,-2.322 3.98484,-1.80976c1.49079,0.55906 1.50434,2.80792 2.32121,4.17457c1.83273,3.06626 3.10009,5.99754 5.36749,8.82631l1.62412,2.03016c0,0 1.56174,1.95217 -0.39043,3.51391z" fill="#947469" stroke="none" stroke-width="0.5"/></g></g></g></svg>