<svg version="1.1" xmlns="http://www.w3.org/2000/svg" xmlns:xlink="http://www.w3.org/1999/xlink" width="103.18457" height="149.71232" viewBox="0,0,103.18457,149.71232"><g transform="translate(-200.73905,-105.43784)"><g data-paper-data="{&quot;isPaintingLayer&quot;:true}" fill-rule="nonzero" stroke-linecap="butt" stroke-linejoin="miter" stroke-miterlimit="10" stroke-dasharray="" stroke-dashoffset="0" style="mix-blend-mode: normal"><path d="M222.78337,149.94198c1.17943,-1.33852 2.0273,-3.02762 2.64083,-4.92741c8.08676,-3.43762 21.13956,-3.88583 29.53491,-0.95199c4.38321,0 10.96601,3.52088 13.64793,6.88536c2.91714,3.65956 4.43456,9.78133 6.50731,14.02332c1.27015,2.96417 3.4008,6.13097 3.78262,9.24929c0.14887,1.21578 0.93133,2.07363 -0.39846,3.19194c-1.98075,1.66573 -7.7149,-0.21751 -9.06236,-1.38831c-0.14143,-0.12288 -2.0116,-1.10471 -2.8637,-1.65067c0.34082,1.15652 0.91978,2.18313 1.23195,3.32461c1.51306,5.53255 -1.27882,11.91796 -1.27666,17.48652c0.00146,3.77382 1.2272,8.14246 -3.58268,8.14246c-3.94007,0 -7.74062,0.54932 -11.64456,0.97377c-7.64059,0.8307 -15.86725,-0.00205 -23.55666,0.00446c-2.43056,0.00206 -4.52693,0.2968 -6.90262,0.6211c-0.70882,0.09676 -1.53728,0.53162 -2.14109,0.14793c-1.11326,-0.70741 -0.37578,-6.43103 -0.37578,-7.60983c0,-6.95504 0.32569,-13.91675 0.32569,-20.84472c0.0057,-1.56114 -0.08674,-1.60598 0.3928,-3.28586c0.06581,-0.23052 0.1841,-0.61597 0.30799,-0.99304c-0.45785,0.52177 -1.16427,0.92126 -1.63836,1.38713c-0.59439,0.58408 -0.73169,1.58969 -1.42239,2.05594c-2.4105,1.62717 -9.23277,-1.61856 -11.63131,-2.47228c-0.6207,-0.22093 -2.99344,-0.61853 -3.266,-0.84485c-1.32691,-1.10183 -0.27383,-3.03053 0.03421,-4.26268c1.60734,-4.83288 6.61012,-5.97306 10.35002,-8.93069c1.75506,-1.38796 3.04282,-3.45504 4.75342,-4.92266c1.95403,-1.67647 3.2714,-4.34658 6.028,-4.43828c0,0 0.09461,0 0.22494,0.02944z" fill="#00c1ff" stroke="none" stroke-width="0.5"/><path d="M257.28409,146.54163c3.54667,-0.50667 4.05334,3.04001 4.05334,3.04001l0.36171,2.78656c-0.04308,7.9794 2.42934,15.59483 3.24478,23.48049c0.74706,7.22438 -0.64652,14.57279 -0.63919,21.79162c0,0 0,3.58268 -3.58268,3.58268c-3.58269,0 -3.58268,-3.58268 -3.58268,-3.58268c0.00657,-7.006 1.38875,-14.19404 0.6636,-21.20061c-0.57461,-5.55202 -1.88013,-10.94688 -2.65648,-16.43335c0.42987,6.65492 0.03867,13.42809 0.03867,20.04623c0,6.26421 0.95408,12.35501 0.9771,18.56482c0,0 0,3.58268 -3.58269,3.58268c-3.58268,0 -3.58268,-3.58268 -3.58268,-3.58268c0.02744,-6.18061 -0.9771,-12.31661 -0.9771,-18.56482c0,-8.79735 0.83579,-18.00071 -0.90752,-26.65606l-0.01704,0.2482c0,0 -1.60222,-3.20445 1.60223,-4.80667c3.20445,-1.60223 4.80667,1.60223 4.80667,1.60223l0.63436,1.551c0.18031,0.9073 0.33515,1.81903 0.46782,2.73448c-0.0437,-0.78225 -0.06905,-1.56787 -0.07255,-2.35755l-0.28969,-1.77322c0,0 -0.50666,-3.54667 3.04001,-4.05335z" fill="#ffffff" stroke="none" stroke-width="0.5"/><path d="M240.14616,147.66884c3.58268,0 3.58268,3.58268 3.58268,3.58268v2.93129c0,7.29287 -0.68755,14.91927 -0.0122,22.17771c0.65667,7.05775 1.20913,14.08264 -0.04558,21.12971c0,0 -0.6409,3.5249 -4.16579,2.88401c-3.52489,-0.64089 -2.88401,-4.16578 -2.88401,-4.16578c1.19274,-6.40132 0.52448,-12.84779 -0.04558,-19.25692c-0.6644,-7.46976 -0.01221,-15.26897 -0.01221,-22.76871v-2.93129c0,0 0,-3.58268 3.58268,-3.58268z" fill="#ffffff" stroke="none" stroke-width="0.5"/><path d="M229.57365,146.71941c3.55502,0.44438 3.11064,3.99939 3.11064,3.99939l-0.35582,2.8021c-2.64976,14.57058 -0.63798,29.46231 -3.25699,43.96931c0,0 -0.6409,3.5249 -4.16579,2.88401c-3.52489,-0.64089 -2.88401,-4.16578 -2.88401,-4.16578c1.38424,-7.55426 0.54807,-15.04663 0.92375,-22.66218c0.35587,-7.21403 1.04074,-14.19686 2.33324,-21.30713l0.29557,-2.40908c0,0 0.44437,-3.55501 3.99939,-3.11064z" fill="#ffffff" stroke="none" stroke-width="0.5"/><path d="M259.37676,130.58614c0,12.49618 -8.18462,22.62634 -18.28088,22.62634c-10.09626,0 -18.28088,-10.13015 -18.28088,-22.62634c0,-12.49618 8.18462,-22.62633 18.28088,-22.62633c10.09626,0 18.28088,10.13015 18.28088,22.62633z" fill="#ffeec7" stroke="none" stroke-width="0"/><g stroke="#000000" stroke-width="0.25"><path d="M250.3519,121.39136c0,4.15593 -2.38968,7.52497 -5.33749,7.52497c-2.9478,0 -5.33747,-3.36904 -5.33747,-7.52497c0,-4.15593 2.38967,-7.52497 5.33747,-7.52497c2.9478,0 5.33749,3.36904 5.33749,7.52497z" fill="#ffffff"/><path d="M247.36191,122.81407c0,2.51438 -1.08286,4.55269 -2.41863,4.55269c-1.33578,0 -2.41862,-2.03831 -2.41862,-4.55269c0,-2.51438 1.08285,-4.55269 2.41862,-4.55269c1.33578,0 2.41863,2.03831 2.41863,4.55269z" fill="#000000"/></g><path d="M243.97864,108.56641c0.76649,3.83249 -3.06599,4.59898 -3.06599,4.59898l-1.27193,0.23676c-8.13991,2.40011 -9.90506,7.10278 -12.00884,14.87254c0,0 -1.02836,3.77067 -4.79903,2.74231c-3.77067,-1.02837 -2.7423,-4.79903 -2.7423,-4.79903c0.90799,-3.30818 1.90722,-7.97744 3.60741,-10.95969c2.94657,-5.16851 8.31231,-7.70517 13.69663,-9.34323l1.98506,-0.41463c0,0 3.83249,-0.7665 4.59898,3.06599z" fill="#e19209" stroke="none" stroke-width="0.5"/><path d="M257.54993,138.93039c0,0.97709 -0.97709,0.9771 -0.97709,0.9771l-0.62589,-0.01898c-4.94231,-0.98846 -9.70785,-1.11107 -14.73402,-1.94851c0,0 -0.9638,-0.16064 -0.80317,-1.12444c0.16064,-0.9638 1.12444,-0.80317 1.12444,-0.80317c5.03497,0.83943 9.8341,0.9675 14.796,1.95988l0.24264,-0.01898c0,0 0.97709,0 0.97709,0.97709z" fill="#000000" stroke="none" stroke-width="0.5"/><path d="M218.98944,159.89868c2.7523,2.29358 0.45872,5.04587 0.45872,5.04587l-1.84744,2.19395c-1.95268,1.93938 -4.0918,3.70177 -6.34139,5.28718c0,0 -2.93505,2.05453 -4.98959,-0.88052c-2.05453,-2.93505 0.88052,-4.98958 0.88052,-4.98958c1.91826,-1.33216 3.73906,-2.82568 5.38377,-4.48377l1.40954,-1.71443c0,0 2.29358,-2.75229 5.04587,-0.45871z" fill="#ffffff" stroke="none" stroke-width="0.5"/><path d="M266.12273,158.65194c2.69624,-2.35922 5.05546,0.33703 5.05546,0.33703l2.42834,2.78688c0.91395,1.36633 1.82792,2.73266 2.74187,4.099c0,0 1.98732,2.98098 -0.99365,4.96829c-2.98098,1.98731 -4.96829,-0.99366 -4.96829,-0.99366c-0.8231,-1.23926 -1.64621,-2.47851 -2.46931,-3.71777l-2.13144,-2.4243c0,0 -2.35921,-2.69624 0.33704,-5.05546z" fill="#ffffff" stroke="none" stroke-width="0.5"/><path d="M232.39933,188.35926c-3.56077,0.39564 -3.95641,-3.16513 -3.95641,-3.16513l-0.3329,-3.65129c0.1567,-1.72351 0.13092,-4.02066 0.36661,-6.19062c-0.79958,0.19217 -1.7773,0.09398 -2.85663,-0.71553c-2.86615,-2.14961 -0.71654,-5.01576 -0.71654,-5.01576c0.73113,-0.96404 1.21354,-2.18233 2.1934,-2.89212c1.91599,-1.38791 4.11557,-4.1635 6.30324,-3.26269c2.49237,1.02627 2.95287,4.65322 3.48893,7.29477c0.32854,1.61898 -0.75134,3.21965 -1.02457,4.84887c-0.06151,0.36675 -0.61513,6.54487 -0.61848,6.58181l0.3185,2.21129c0,0 0.39563,3.56078 -3.16514,3.95641z" fill="#000000" stroke="none" stroke-width="0.5"/><path d="M251.02306,170.35825c-1.05682,3.65159 -5.03392,13.74011 1.11,14.7665c1.09195,0.18242 1.41038,-2.44758 1.42108,-2.57637c0.09446,-1.13764 -0.10278,-2.28386 -0.0517,-3.42427c0.16948,-3.78369 -0.20905,-6.27819 -2.47938,-8.76586zM246.35968,165.7296c0.31921,-3.07862 3.55743,-3.07863 3.55743,-3.07863l4.3134,0.88644c5.11077,4.62028 6.67875,9.08438 6.43201,15.86168c-0.11999,3.29586 0.55079,6.92428 -2.16612,9.6892c-4.62887,4.71063 -12.40086,3.22037 -15.57666,-2.47493c-0.97951,-1.7566 -0.99618,-3.9186 -1.14293,-5.92447c-0.30744,-4.20227 1.31859,-8.48607 2.40396,-12.46661c0,0 0.51489,-1.88793 2.1789,-2.49268z" fill="#000000" stroke="none" stroke-width="0.5"/><path d="M213.39966,244.64262c0,-2.97756 0,-5.95512 0,-8.93268v-2.03016c0,0 0,-0.92256 0.56043,-1.64681c0.18945,-1.40382 0.5945,-2.81063 0.77828,-4.21166c0.97853,-7.45976 1.35245,-15.01535 2.96481,-22.40822c-0.18408,-0.3755 -0.29867,-0.84303 -0.29867,-1.42516c0,-2.95713 2.95713,-2.95713 2.95713,-2.95713c10.12539,0 20.78772,0 30.91545,0c2.6883,0 5.37773,-0.07817 8.0649,0c1.87667,0.0546 3.9302,-0.49823 5.62375,0.31219c4.79965,2.2968 3.5147,11.5165 3.50903,15.87681c0.66491,4.59349 1.10253,9.05312 0.22246,13.67502c-0.65663,3.44843 -1.74504,6.09149 -2.11164,9.68075c-0.42051,4.11708 0.70853,8.09033 -3.79374,10.69458c-1.23119,0.71215 -2.83518,0.24358 -4.25635,0.30069c-3.56672,0.14334 -10.54544,1.32693 -13.70888,-0.32241c-1.3175,-0.6869 -2.22259,-2.01363 -3.06064,-3.24054c-0.09143,-0.13386 -0.1918,-0.2919 -0.29883,-0.47081c-0.15802,0.52807 -0.32855,1.06193 -0.51556,1.60381c-6.27034,1.89377 -13.94351,2.11571 -20.4091,0.52653c-1.84769,-0.45414 -4.27029,-0.36349 -5.37913,-1.90968c-0.24466,-0.34116 -0.44218,-0.65217 -0.5987,-0.93711c-1.165,-0.67534 -1.165,-2.17801 -1.165,-2.17801z" fill="#000000" stroke="none" stroke-width="0.5"/><path d="M242.13686,224.44888c2.95713,0 2.95713,2.95713 2.95713,2.95713l-0.00871,1.30212c-0.59833,7.71348 -0.9713,15.41933 -1.61449,23.13815c0,0 -0.24558,2.94691 -3.19249,2.70134c-2.94691,-0.24557 -2.70134,-3.19249 -2.70134,-3.19249c0.64228,-7.70674 1.02363,-15.39798 1.61148,-23.1006l-0.00871,-0.84852c0,0 0,-2.95713 2.95713,-2.95713z" fill="#ffffff" stroke="none" stroke-width="0.5"/><path d="M208.89814,197.3206c-2.75,0 -2.75,-2.75 -2.75,-2.75v-2.66667c0,-5.19555 -0.07609,-10.19916 -0.64985,-15.36298c0,0 -0.30369,-2.73318 2.42949,-3.03687c2.73318,-0.30369 3.03687,2.42949 3.03687,2.42949c0.59604,5.36432 0.68349,10.57509 0.68349,15.97035v2.66667c0,0 0,2.75 -2.75,2.75z" fill="#ffda85" stroke="none" stroke-width="0.5"/><path d="M275.89814,200.65393c-2.75,0 -2.75,-2.75 -2.75,-2.75v-1.66667c0,-5.43915 1.24839,-12.1717 -2.15443,-16.73493c0,0 -1.59841,-2.23777 0.63936,-3.83617c2.23777,-1.59841 3.83617,0.63936 3.83617,0.63936c4.11587,5.93972 3.1789,12.99279 3.1789,19.93174v1.66667c0,0 0,2.75 -2.75,2.75z" fill="#ffda85" stroke="none" stroke-width="0.5"/><path d="M301.92361,239.49711c0,8.3688 -6.15608,15.15306 -13.75,15.15306c-7.59392,0 -13.75,-6.78426 -13.75,-15.15306c0,-8.3688 6.15608,-15.15306 13.75,-15.15306c7.59392,0 13.75,6.78426 13.75,15.15306z" fill="#ffffff" stroke="#000000" stroke-width="1"/><path d="M276.67361,245.40017c0,-1.79493 1.45507,-3.25 3.25,-3.25c1.79493,0 3.25,1.45507 3.25,3.25c0,1.79493 -1.45507,3.25 -3.25,3.25c-1.79493,0 -3.25,-1.45507 -3.25,-3.25z" fill="#000000" stroke="none" stroke-width="0.5"/><path d="M281.17361,238.65017c0,-1.79493 1.45507,-3.25 3.25,-3.25c1.79493,0 3.25,1.45507 3.25,3.25c0,1.79493 -1.45507,3.25 -3.25,3.25c-1.79493,0 -3.25,-1.45507 -3.25,-3.25z" fill="#000000" stroke="none" stroke-width="0.5"/><path d="M275.42361,233.15017c0,-1.79493 1.45507,-3.25 3.25,-3.25c1.79493,0 3.25,1.45507 3.25,3.25c0,1.79493 -1.45507,3.25 -3.25,3.25c-1.79493,0 -3.25,-1.45507 -3.25,-3.25z" fill="#000000" stroke="none" stroke-width="0.5"/><path d="M285.67361,229.65017c0,-1.79493 1.45507,-3.25 3.25,-3.25c1.79493,0 3.25,1.45507 3.25,3.25c0,1.79493 -1.45507,3.25 -3.25,3.25c-1.79493,0 -3.25,-1.45507 -3.25,-3.25z" fill="#000000" stroke="none" stroke-width="0.5"/><path d="M288.92361,238.90017c0,-1.79493 1.45507,-3.25 3.25,-3.25c1.79493,0 3.25,1.45507 3.25,3.25c0,1.79493 -1.45507,3.25 -3.25,3.25c-1.79493,0 -3.25,-1.45507 -3.25,-3.25z" fill="#000000" stroke="none" stroke-width="0.5"/><path d="M297.42361,238.90017c0,-1.79493 1.45507,-3.25 3.25,-3.25c1.79493,0 3.25,1.45507 3.25,3.25c0,1.79493 -1.45507,3.25 -3.25,3.25c-1.79493,0 -3.25,-1.45507 -3.25,-3.25z" fill="#000000" stroke="none" stroke-width="0.5"/><path d="M286.92361,249.40017c0,-1.79493 1.45507,-3.25 3.25,-3.25c1.79493,0 3.25,1.45507 3.25,3.25c0,1.79493 -1.45507,3.25 -3.25,3.25c-1.79493,0 -3.25,-1.45507 -3.25,-3.25z" fill="#000000" stroke="none" stroke-width="0.5"/></g></g></svg>