<svg version="1.1" xmlns="http://www.w3.org/2000/svg" xmlns:xlink="http://www.w3.org/1999/xlink" width="83.53621" height="137.56642" viewBox="0,0,83.53621,137.56642"><g transform="translate(-198.23189,-111.21679)"><g data-paper-data="{&quot;isPaintingLayer&quot;:true}" fill-rule="nonzero" stroke="none" stroke-linecap="butt" stroke-linejoin="miter" stroke-miterlimit="10" stroke-dasharray="" stroke-dashoffset="0" style="mix-blend-mode: normal"><path d="M268.85371,246.61049c-8.81407,4.37351 -22.4051,2.41842 -25.1029,-8.37276c-0.97883,-3.91534 1.00004,-6.85329 1.02053,-10.41086c0.01815,-3.15164 -1.6846,-9.83465 -0.87406,-14.74173c-2.57003,0.42372 -5.1473,0.79509 -7.73814,0.97194c1.0729,4.88974 0.1641,12.69914 -0.02562,14.51342c-0.91729,8.77211 -3.59094,15.86596 -12.73335,19.22734c-1.57745,0.57998 -3.88118,0.27066 -5.37989,0.36834c-7.77193,0.50655 -14.58159,-0.23439 -12.01399,-10.50475c1.09604,-4.38418 8.17441,-2.95577 9.65558,-4.86664c0.97974,-1.26398 1.1003,-7.81008 2.29892,-10.19353c1.18859,-2.3635 -0.45106,-6.19859 0.23038,-8.70619c0.2866,-1.05465 1.23191,-2.47529 1.84837,-3.71921c1.04447,-6.31784 0.9215,-12.61365 0.69451,-19.00203c-0.0944,-2.65699 0.02567,-5.33562 -0.16096,-7.98694c-0.02632,-0.37395 -0.06043,-0.74763 -0.10019,-1.12115c-0.48696,1.73218 -1.01501,3.45844 -1.51429,5.14265c-0.37623,1.2691 -0.88243,2.95595 -2.20827,3.6538c-0.50946,0.26815 -1.15353,0.03408 -1.72313,0.11777c-1.48123,0.21765 -2.75197,0.33864 -4.27168,0.33864c-3.55863,0 -7.11727,0 -10.6759,0c0,0 -1.35502,0 -1.35502,-1.35502c0,-1.19767 1.05859,-1.33674 1.30444,-1.35289c-0.05664,-0.28511 -0.05664,-0.48432 -0.05664,-0.48432c0.02197,-0.68141 -0.08599,-1.37961 0.0659,-2.04424c0.12274,-0.53705 0.59304,-0.94702 0.7391,-1.4782c0.10003,-0.3638 -0.10546,-0.76387 -0.02145,-1.1317c0.21868,-0.95748 1.00891,-1.71051 1.27678,-2.65541c0.12308,-0.43416 -0.10705,-0.92563 0.03703,-1.35328c0.15617,-0.46353 0.61847,-0.76964 0.82725,-1.21198c0.35747,-0.75736 0.16605,-1.69253 0.49274,-2.46367c0.27275,-0.64385 0.66693,-1.27053 1.06069,-1.89446c-0.33559,-0.42097 -0.53616,-0.95434 -0.53616,-1.53455v-1.4782h0.11515c-0.03397,-0.11264 -0.06456,-0.2265 -0.09134,-0.34172c-0.17065,-0.73417 0.37011,-1.4624 0.60138,-2.17979c0.25717,-0.79775 0.72865,-1.52057 0.94413,-2.33058c0.49902,-1.87573 0.56488,-3.72445 2.20073,-5.10753c2.08803,-1.76539 3.70097,-1.17819 6.12779,-1.36487c1.31446,-0.10111 2.59367,-0.74276 3.95095,-0.4401c0.64889,0.1447 1.24775,0.38719 1.79068,0.70703c0.3615,-0.42771 0.93686,-0.76806 1.85257,-0.76806c0.62106,0 1.08556,0.15656 1.43296,0.39075c1.569,-0.20914 3.15843,-0.22478 4.72981,-0.37876c0.79558,-0.07797 1.58166,-0.24533 2.35893,-0.43207c0.28854,-0.06932 0.58809,-0.13607 0.88461,-0.13472c-0.02123,-0.15885 -0.01183,-0.32424 0.01593,-0.47971c0.09325,-0.52217 0.37115,-1.00093 0.45624,-1.5245c0.23206,-1.42798 -0.70825,-2.32077 0.07277,-3.75582c-0.30793,0.02631 -0.61532,0.05491 -0.92213,0.08593c0,0 -1.34829,0.13483 -1.48312,-1.21346c-0.13483,-1.34829 1.21346,-1.48313 1.21346,-1.48313c5.65121,-0.55954 11.49341,-0.35811 17.13622,-0.00411c2.66225,0.16702 4.89253,-0.33836 7.32211,0.99713l0.68274,1.83347c0,0 0,0.69535 -0.49811,1.08981c-0.00872,0.18129 -0.04237,0.30466 -0.04237,0.30466c-0.22728,0.83324 -0.53419,1.6427 -0.80759,2.46196c-0.08621,0.25835 0.54228,-0.05355 0.81428,-0.0674c1.29608,-0.06597 2.5933,-0.1073 3.88986,-0.16324c3.22395,-0.13911 6.57642,0.16787 9.78499,-0.15977c1.14806,-0.11723 3.09571,-0.83328 4.2102,-0.17363c1.99245,1.17932 1.6407,2.82474 1.85726,4.66021c0.16522,1.40027 0.41909,2.83109 0.6509,4.22276c0.17384,1.67039 1.22563,2.79625 1.74996,4.36172c0.4769,1.42386 0.88334,3.1213 1.19065,4.58378c0.88778,4.22489 0.6354,8.22979 2.81585,12.10795l0.59992,0.8919c0,0 0.75163,1.12744 -0.37581,1.87907c-0.47846,0.31897 -0.88923,0.29953 -1.2036,0.17147c-0.14495,0.0413 -0.24658,0.05054 -0.24658,0.05054c-5.0222,0.45281 -9.84357,-0.22466 -14.82465,-0.48979c-0.80049,-0.04261 -3.69891,0.1131 -4.21635,-0.18455c-0.69775,-0.40136 -0.92483,-1.31984 -1.33257,-2.01388c-0.11875,-0.20213 -0.22672,-0.40989 -0.32835,-0.62098c0.44082,1.6378 0.98218,3.25843 1.22928,4.93308c0.19187,1.30032 0.01015,2.62879 0.01015,3.94319c0,2.73741 0,5.47482 0,8.21223c0,1.39551 0.11625,2.827 0.0057,4.2277c1.70938,4.69376 -0.33311,10.30766 -0.27946,14.69519c-0.17663,1.06903 -0.1021,2.28326 -0.09607,2.46842c0.08355,2.56526 2.41941,5.57421 3.72053,7.74275c1.3043,2.17384 3.18395,2.3837 5.11173,2.51403c1.4313,0.64487 2.90306,1.31424 3.60375,2.87602c1.20634,2.68881 -0.50226,5.40884 -1.43617,7.87458c-0.59203,0.46174 -1.26085,0.88269 -2.01049,1.25467z" fill="#a29bb1" stroke-width="0.5"/><path d="" fill="#a29bb1" stroke-width="0.5"/><path d="M242.81961,124.24492l0.63842,0.06953c1.50392,0.52777 3.02138,0.35031 4.60971,0.35031c2.95085,0 5.77211,-0.02804 8.68536,0.5148c0.65198,0.4868 1.53305,0.76526 1.95594,1.4604c0.34939,0.57431 0.16686,1.33854 0.15571,2.01069c-0.02854,1.72165 -0.30201,3.50824 -0.41864,5.23242c-0.01471,0.21737 -0.02863,0.43602 -0.04174,0.65583c0.01041,0.03362 0.02068,0.06727 0.03079,0.10098c0.00897,2.01012 0.39103,3.13997 0.63398,5.0694c0.30991,2.4611 0.22008,5.02701 0.22008,7.51293c0,0.99006 0.316,4.30111 -0.35034,4.8978c-0.86307,0.77285 -3.54355,0.65518 -4.78333,0.65572c-4.85631,0.00213 -9.71271,0.00684 -14.56901,-0.00261c-3.77856,-0.4803 -7.59076,-1.51426 -11.44884,-0.85552l-1.00664,0.20204c0,0 -1.32871,0.26574 -1.59445,-1.06296c-0.08522,-0.42606 -0.00648,-0.74284 0.13983,-0.9766c-0.67998,-6.0219 -0.16614,-12.33772 -0.16614,-18.39231c0,-1.32952 -0.08176,-2.66156 0,-3.98857c0.04238,-0.68794 -0.17305,-1.51224 0.25577,-2.05184c1.33181,-1.67588 5.00023,-0.98258 6.76722,-0.98258c3.06361,0 6.11772,-0.04705 9.16573,0.11902c0.38781,-0.53887 1.12059,-0.53887 1.12059,-0.53887z" fill="#c5c5c5" stroke-width="0.5"/><g stroke-width="0"><path d="M238.60286,135.43454c0,4.05969 -2.33434,7.35073 -5.21389,7.35073c-2.87955,0 -5.21389,-3.29103 -5.21389,-7.35073c0,-4.05969 2.33434,-7.35073 5.21389,-7.35073c2.87955,0 5.21389,3.29103 5.21389,7.35073z" fill="#ffffff"/><path d="M235.68211,136.82432c0,2.45616 -1.05777,4.44729 -2.36262,4.44729c-1.30485,0 -2.36262,-1.99112 -2.36262,-4.44729c0,-2.45616 1.05777,-4.44728 2.36262,-4.44728c1.30485,0 2.36262,1.99111 2.36262,4.44728z" fill="#000000"/></g><g stroke-width="0"><path d="M254.53459,135.43454c0,4.05969 -2.33434,7.35073 -5.21388,7.35073c-2.87955,0 -5.21389,-3.29103 -5.21389,-7.35073c0,-4.05969 2.33434,-7.35073 5.21389,-7.35073c2.87954,0 5.21388,3.29103 5.21388,7.35073z" fill="#ffffff"/><path d="M251.61384,136.82432c0,2.45616 -1.05777,4.44729 -2.36262,4.44729c-1.30485,0 -2.36262,-1.99112 -2.36262,-4.44729c0,-2.45616 1.05777,-4.44728 2.36262,-4.44728c1.30485,0 2.36262,1.99111 2.36262,4.44728z" fill="#000000"/></g><path d="M251.11374,115.48503c0.58943,-0.17575 1.19637,-0.30011 1.80936,-0.38025c0.02828,-1.13789 1.22243,-1.25731 1.22243,-1.25731c1.34496,-0.1281 2.12357,-0.33524 3.44564,0.04044c4.54399,1.29124 4.73513,7.48215 4.44576,11.26645l0.00068,0.14861c0.78747,1.63543 1.17276,3.37151 2,5.06347c0.38401,0.78542 0.92352,1.49869 1.22397,2.31972c0.30167,0.82431 0.22777,2.53533 0.22848,3.36866c0.00205,2.37903 -0.02836,4.75889 -2.56415,5.97924c-1.67773,0.80741 -2.81327,0.35017 -4.61496,0.12817c-0.85093,-3.0239 -1.31355,-6.08528 -1.7586,-9.20067c-0.1105,-0.77346 -0.26281,-1.54209 -0.33132,-2.32039c-0.02648,-0.30091 0.2012,-0.64497 0.04742,-0.90497c-0.13077,-0.22108 -0.50523,-0.12302 -0.72952,-0.24822c-1.79524,-1.00212 -2.79484,-1.69385 -4.86656,-1.94215c-2.17594,-0.2608 -4.05074,-1.43332 -6.21595,-1.6397c-2.46673,-0.23512 -5.04213,0.14758 -7.45294,0.63057c-2.79066,0.69814 -5.20818,1.34535 -7.86281,2.40787c-0.67892,0.27175 -2.52476,0.45681 -2.86833,1.44281c-1.03419,2.96802 -0.27562,6.47359 -0.53209,9.52928c-0.14284,1.70191 -0.20937,2.54303 -2.04083,3.32506c-0.81099,0.34629 -2.70133,0.29673 -4.01295,0.26201c-0.44198,0.01943 -0.86594,0.00095 -1.21143,-0.01683c-0.68975,-0.0355 -1.49732,0.1769 -2.05988,-0.22379c-1.31334,-0.93546 -1.07998,-2.39672 -1.09921,-3.67909l0.17209,-1.39783c0,0 0.05133,-0.41068 0.32423,-0.74973c-0.00749,-0.13115 0.00208,-0.21731 0.00208,-0.21731c0.00508,-0.04534 0.01027,-0.09065 0.01558,-0.13592c-0.10913,-0.18221 -0.20112,-0.37101 -0.27142,-0.56712c-0.51101,-1.42546 -0.2441,-4.7403 0.9273,-5.79525c0.47091,-0.42409 1.23582,-0.28139 1.85374,-0.42208c0.07445,-0.02325 0.14711,-0.04757 0.21805,-0.07292c-0.12362,-0.30196 -0.12362,-0.57656 -0.12362,-0.57656c0,-3.32818 -0.30897,-6.54688 -0.65893,-9.79417c0.80095,-0.67463 1.28477,-1.07412 2.51116,-1.73845c0.86782,-0.4701 1.86651,-0.81826 2.79636,-1.26877c0.94771,0.74629 1.87506,1.51139 2.79238,2.29111c1.18872,-1.78381 3.10841,-3.61745 4.99307,-4.50976c2.07074,-0.98042 3.79948,-0.7885 6.00242,-0.7885c3.09775,0 6.06902,-0.09617 9.1157,0.45371c1.42251,-0.94308 2.83207,-1.90283 4.35128,-2.74686l0.98639,-0.29431c0,0 1.31456,-0.32863 1.6432,0.98593c0.32864,1.31456 -0.98592,1.6432 -0.98592,1.6432l-0.32756,0.03418c-0.69822,0.38788 -1.37331,0.80011 -2.03722,1.22393c0.42955,0.11534 0.78022,0.22138 0.95502,0.30016c0.07088,0.03194 0.14147,0.06503 0.21179,0.09922c0.14538,-0.03866 0.26757,-0.05096 0.33062,-0.05488z" fill="#a29bb1" stroke-width="0.5"/><path d="M200.94192,188.46805c-0.00031,0.03999 -0.0206,1.35409 -1.35501,1.35409c-1.35502,0 -1.35502,-1.35502 -1.35502,-1.35502l0.04046,-0.49289c0.45201,-1.80802 0.69469,-3.47195 0.9625,-5.30848c0.47312,-3.24442 1.87729,-6.41191 2.82829,-9.52233c0.75913,-2.48288 1.06451,-4.93438 2.22461,-7.29106c0.63297,-1.26563 1.33065,-2.49819 1.96403,-3.76361c0.5098,-1.01853 0.69005,-2.09098 1.74441,-2.80948c2.32909,-1.5872 5.99981,-0.77832 8.60104,-0.9081c4.24447,-0.21175 8.70301,-0.52776 12.87918,-1.20056c0.47704,-0.07685 -0.30176,-0.9247 -0.35844,-1.40455c-0.01027,-0.08694 -0.00809,-2.68164 -0.00809,-2.94002c0,0 0,-1.35502 1.35502,-1.35502c1.35502,0 1.35501,1.35502 1.35501,1.35502c0,0.88144 -0.09984,1.76765 -0.00809,2.64431c0.14696,1.40413 1.0191,2.67226 -0.68694,3.85127c-1.28496,0.88801 -5.57232,0.9688 -7.04711,1.07547c-3.19106,0.23081 -6.34384,0.68191 -9.54461,0.68225c-1.20513,0.00013 -3.79918,-0.3322 -4.96014,0.40399c-0.26417,0.16752 -0.83519,1.69263 -0.88351,1.78936c-0.63695,1.27527 -1.34046,2.51657 -1.97783,3.79164c-1.11022,2.17786 -1.34453,4.52005 -2.04576,6.83397c-0.90979,3.00212 -2.31875,6.06998 -2.75602,9.20155c-0.25858,1.85186 -0.52335,3.55303 -0.96797,5.3682z" fill="#a29bb1" stroke-width="0.5"/><text transform="translate(218.94268,175.68483) scale(0.3211,0.3211)" font-size="40" xml:space="preserve" fill="#eae0ff" fill-rule="nonzero" stroke="none" stroke-width="1" stroke-linecap="butt" stroke-linejoin="miter" stroke-miterlimit="10" stroke-dasharray="" stroke-dashoffset="0" font-family="Sans Serif" font-weight="normal" text-anchor="start" style="mix-blend-mode: normal"><tspan x="0" dy="0">ТИМУР</tspan></text></g></g></svg>