<svg version="1.1" xmlns="http://www.w3.org/2000/svg" xmlns:xlink="http://www.w3.org/1999/xlink" width="74.99899" height="166.46014" viewBox="0,0,74.99899,166.46014"><g transform="translate(-202.50051,-96.76993)"><g data-paper-data="{&quot;isPaintingLayer&quot;:true}" fill-rule="nonzero" stroke-linecap="butt" stroke-linejoin="miter" stroke-miterlimit="10" stroke-dasharray="" stroke-dashoffset="0" style="mix-blend-mode: normal"><path d="M256.70707,167.55034c0.85773,-0.51464 1.48667,-0.11411 1.81053,0.20988c0.47952,-0.12335 0.93167,0.02737 0.93167,0.02737c3.26166,1.09347 6.39248,0.8581 9.81143,0.8581c0.68691,0 4.26023,-0.0848 4.67411,0.32613c1.0676,1.06 1.2023,4.24441 1.31026,5.74015c0.4321,5.98681 0.54644,11.93493 1.30149,17.87637c0.20715,1.6575 0.39545,3.31489 0.55041,4.97822c0.07629,0.81886 0.70527,1.79276 0.22078,2.4573c-1.84102,2.52519 -8.1439,1.63821 -10.86226,1.54407c-0.85346,-0.02956 -1.80996,0.24838 -2.55651,-0.16625c-2.24293,-1.2457 -1.72132,-3.22521 -1.7487,-5.26105c-0.0729,-5.41987 -0.90566,-10.92655 -2.22195,-16.20003c-0.18422,-1.80593 0.06286,-5.48899 -0.78331,-7.03658c-0.49766,-0.91018 -1.56706,-1.37019 -2.24405,-2.15618l-0.7084,-1.13951c0,0 -0.77174,-1.28624 0.5145,-2.05798z" fill="#000000" stroke="none" stroke-width="0.5"/><path d="M220.43304,211.71914c-0.06214,-0.36377 0.01349,-0.80272 0.45244,-1.24167c0.69509,-0.69509 1.39019,-0.47914 1.78675,-0.24771c3.7548,0.06328 7.4521,0.75633 11.149,0.74634c1.69165,0.21128 4.43503,0.4774 5.88223,1.31388c3.02944,1.75102 3.03878,6.40027 3.18984,9.45097c0.26253,5.30185 -0.20959,11.30495 -1.74232,16.40422c-0.8914,2.96564 -1.63669,5.94645 -1.62163,9.11264c-0.01591,3.17118 0.53121,9.82146 -1.40214,12.46765c-1.37034,1.87558 -2.43579,1.52727 -4.39918,1.56229c-3.65427,0.06519 -7.12075,-0.30994 -10.74758,-0.56361c-1.99385,-0.13945 -4.88739,0.52141 -6.69071,-0.59887c-3.23781,-2.01143 -0.78964,-7.36582 -0.5115,-10.21151c0.73701,-7.30249 2.29343,-14.62869 2.61229,-21.98638c0.21383,-4.93428 -0.03561,-10.07348 0.76692,-14.95274c0,0 0.19464,-1.16783 1.27559,-1.25552z" fill="#000000" stroke="none" stroke-width="0.5"/><path d="M246.7358,213.04793c-0.76774,-0.12384 -1.10849,-0.91891 -1.10849,-0.91891l0.65203,-3.3908c3.15713,-0.28657 6.34332,0.693 9.52737,1.12604c3.29762,0.44849 6.37239,0.02003 9.44083,1.37249c2.92142,3.14304 1.64099,7.15416 1.20244,11.12887c-1.09325,9.90832 -3.16984,19.37627 -3.16984,29.38056c0,2.80306 0.65613,6.41471 -0.67522,8.98966c-0.42999,0.83164 -0.7195,1.96281 -1.5856,2.3183c-1.72173,0.70668 -2.60289,-0.92093 -3.9455,-1.26102c-3.05836,-0.77468 -7.40562,-0.50796 -10.53562,-0.32122c-1.52699,0.0911 -3.71693,0.8435 -5.0158,-0.38697c-0.64992,-0.61569 0.02699,-1.79088 0.07999,-2.68456c0.16472,-2.77769 0.5364,-5.43598 0.53968,-8.23326c0.6388,-5.81213 2.56583,-11.32512 3.18425,-17.08313c0.71574,-6.66425 -0.43395,-13.28128 1.35466,-19.88335c0,0 0.01641,-0.06019 0.05483,-0.15268z" fill="#000000" stroke="none" stroke-width="0.5"/><path d="M259.71529,172.75361c0.05341,0.4567 0.12009,0.9115 0.1989,1.36437c0.10189,0.43579 0.18874,0.87484 0.26354,1.3165c1.26136,5.58711 4.23403,10.87425 6.76855,15.83298l0.01866,0.1406c0.09038,0.10161 0.17674,0.20592 0.25874,0.31311c1.23977,1.62086 1.3353,4.75207 1.83189,6.69836c0.26151,3.50172 0.64934,6.97609 0.76777,10.47922c0.06297,1.8628 0.23122,3.53878 -1.20946,4.998c-2.00204,2.02781 -5.66468,1.42994 -8.14284,1.42994c-4.58658,0 -8.77625,0.9903 -13.29284,1.37643c-3.15434,0.26967 -6.06185,-0.30138 -9.16411,-0.59893c-8.92974,-1.71237 -18.29135,-2.24883 -27.10518,-4.59059c-2.19578,-0.5834 -6.81608,-0.75356 -8.22027,-2.9304c-0.52254,-0.81006 0.18607,-3.72542 0.40531,-4.7135c0.88914,-4.00728 1.36983,-8.10455 2.47849,-12.04942c1.59457,-4.05645 2.46774,-7.16694 5.13455,-10.5954c0.78821,-1.01332 2.08306,-3.35884 3.18042,-4.09626c2.34867,-1.57828 5.8976,-1.1278 8.37141,-2.45501c2.98518,-1.60156 5.62596,-3.72249 7.97735,-6.21201c0,0 0.14923,-0.15799 0.39172,-0.2962c1.62293,-2.8412 3.59996,-5.38706 5.16402,-8.30076c0.32781,-0.61069 1.65841,-3.16347 2.04558,-3.35765c2.30464,-1.15587 4.56086,0.48368 6.69512,1.01281c2.3021,0.57074 4.41391,0.74433 6.77473,0.75266c1.29823,0.00458 2.70235,-0.86629 3.88452,-0.29819c0.83649,0.40197 1.18952,1.48242 1.78427,2.22363c0.89552,3.9228 1.56345,7.85673 2.43034,11.74687c0.25838,0.38172 0.30881,0.80883 0.30881,0.80883z" fill="#9b6406" stroke="none" stroke-width="0.5"/><path d="M260.43465,145.89893c0,9.59183 -6.28236,17.36754 -14.03205,17.36754c-7.74969,0 -14.03205,-7.77571 -14.03205,-17.36754c0,-9.59183 6.28236,-17.36754 14.03205,-17.36754c7.74969,0 14.03205,7.77571 14.03205,17.36754z" fill="#ffeec7" stroke="none" stroke-width="0"/><path d="M260.66195,149.17932c0,1.5 -1.5,1.5 -1.5,1.5l-1.77633,-0.0029c-2.91938,-0.40603 -4.80301,-2.23144 -7.93743,-1.73048c-0.94612,0.15122 -0.73526,1.04284 -1.34562,1.63093c-1.61172,1.55293 -3.47112,2.05755 -5.58584,2.33504c0,0 -1.48842,0.18605 -1.67447,-1.30236c-0.18605,-1.48842 1.30236,-1.67447 1.30236,-1.67447c1.3061,-0.15303 2.78941,-0.38117 3.76486,-1.40525c0.85506,-0.89769 1.57895,-2.13482 2.76869,-2.48338c3.51969,-1.03118 5.81098,1.32351 8.89384,1.63577l1.58992,-0.0029c0,0 1.5,0 1.5,1.5z" fill="#000000" stroke="none" stroke-width="0.5"/><path d="M232.89593,152.37546c-0.26659,-0.21937 -0.48088,-0.57203 -0.48088,-1.13899c0,-1.5 1.5,-1.5 1.5,-1.5l1.59151,0.97332c1.80265,4.82823 4.28749,7.67827 9.30066,9.18526c1.61252,0.48474 3.44929,0.74023 4.78796,-0.26923c0.2012,-0.22344 0.40694,-0.34101 0.40694,-0.34101c0.7769,-0.43355 1.49167,-0.99334 2.11473,-1.62844l0.4217,-0.5874c0,0 0.9,-1.2 2.1,-0.3h-0.00001c1.2,0.9 0.3,2.1 0.3,2.1l-0.70038,0.90872c-0.77813,0.76665 -1.64878,1.45239 -2.58547,2.01591c-0.12196,0.13006 -0.22153,0.20119 -0.22153,0.20119c-6.06203,4.02067 -14.74072,-1.5582 -17.72673,-7.07769c-0.42322,-0.78231 -0.56549,-1.6815 -0.8085,-2.54165z" fill="#000000" stroke="none" stroke-width="0.5"/><g stroke="#000000" stroke-width="0.25"><path d="M253.50734,138.84119c0,3.19001 -1.83427,5.77602 -4.09695,5.77602c-2.26268,0 -4.09694,-2.58601 -4.09694,-5.77602c0,-3.19001 1.83426,-5.77602 4.09694,-5.77602c2.26268,0 4.09695,2.58601 4.09695,5.77602z" fill="#ffffff"/><path d="M251.21228,139.93324c0,1.92999 -0.83118,3.49456 -1.85649,3.49456c-1.02532,0 -1.85649,-1.56457 -1.85649,-3.49456c0,-1.92999 0.83118,-3.49456 1.85649,-3.49456c1.02532,0 1.85649,1.56457 1.85649,3.49456z" fill="#000000"/></g><path d="M233.73913,118.8806c-0.00244,0.01055 -0.00489,0.02109 -0.00734,0.03163c0.00922,-0.00209 0.01844,-0.00418 0.02765,-0.00625c-0.00685,-0.00841 -0.01361,-0.01687 -0.02031,-0.02538zM232.24471,110.01579c0.61275,-3.48401 2.0076,-6.49571 2.24054,-10.07312l0.05631,-0.08873l-0.04023,-0.00804l0.36858,-1.84289c0.12592,-0.70109 0.739,-1.23307 1.47632,-1.23307c0.82843,0 1.5,0.67158 1.5,1.5v3h-0.36655c0.65172,4.19466 0.7572,8.35867 2.15811,12.60409c0.26002,0.78799 1.06866,2.04254 1.50123,3.25444c0.62674,-0.0858 1.2694,-0.13698 1.93972,-0.14022c3.13186,0 7.20267,-0.65557 10.25257,0.22625c0.81286,0.23503 1.78733,0.39197 2.30647,1.06015c0.69364,0.89276 0.78855,3.9605 0.9018,5.10764c0.25643,2.59742 1.57164,4.72887 2.20745,7.27211l0.07344,0.06701c0,0 0.56787,1.13574 -0.3863,1.83978c0.05597,0.35978 -0.02482,0.79068 -0.45572,1.22159c-1.06066,1.06066 -2.12132,0 -2.12132,0l0.00179,-0.02707c-2.29034,-1.70547 -4.98415,-1.40373 -7.73079,-1.40373c-1.573,-0.02675 -5.09848,0.61876 -6.34908,1.53547c-0.4389,0.32172 -0.37878,1.04053 -0.71757,1.46639c-0.94612,1.18928 -2.81751,1.76952 -3.31048,3.31768c-0.52385,1.64514 -0.94307,5.90368 -2.31614,6.93173c-0.6207,0.46473 -4.09379,-0.6031 -4.78745,-0.74681c-2.55042,-0.5284 -5.61963,0.08658 -8.32238,0.19633c-0.33317,0.21582 -0.80774,0.33205 -1.42371,0.02407c-0.77228,-0.38614 -0.87775,-0.99454 -0.82818,-1.44139c-0.00066,-0.02183 -0.001,-0.04399 -0.001,-0.06648c0,-0.55425 0.20479,-0.9037 0.46303,-1.12403c2.27026,-4.74517 3.3923,-10.02479 5.87747,-14.73666c1.207,-2.28847 1.86838,-5.24133 3.77758,-7.14721c1.0984,-3.39651 1.3977,-6.81068 2.05451,-10.54521z" fill="#b7b7b7" stroke="none" stroke-width="0.5"/><path d="M232.68899,167.90319c0.08064,0.00259 0.12909,0.00951 0.12909,0.00951l1.26261,0.18111c1.81108,0.20469 4.32557,0.42903 5.80994,1.62004c2.77422,2.22593 1.36924,8.5584 2.00772,11.7863c2.08832,5.19915 3.80247,10.51083 3.80247,16.1366c0,2.01737 0.64852,5.00913 -1.49517,6.34675c-0.40575,0.25318 -3.96509,0.21344 -4.53859,0.19102c-3.40738,-0.13323 -6.91625,-0.80799 -10.29833,-1.31762c-0.63305,-0.09539 -4.10595,-1.08949 -4.18193,-1.16725c-0.65582,-0.6713 -0.53041,-1.80045 -0.79561,-2.70067c-0.32719,-2.92467 -1.34655,-5.84357 -1.51097,-8.73957c-0.2415,-4.25365 0.27474,-8.78757 1.1529,-12.93938c0.96669,-4.57039 2.20835,-8.21687 6.65452,-10.21817c0,0 1.37072,-0.60921 1.97993,0.76151c0.00743,0.01673 0.01457,0.03334 0.02142,0.04984z" fill="#000000" stroke="none" stroke-width="0.5"/></g></g></svg>