<svg version="1.1" xmlns="http://www.w3.org/2000/svg" xmlns:xlink="http://www.w3.org/1999/xlink" width="129.76881" height="124.32394" viewBox="0,0,129.76881,124.32394"><g transform="translate(-175.21704,-118.58803)"><g data-paper-data="{&quot;isPaintingLayer&quot;:true}" fill-rule="nonzero" stroke-linejoin="miter" stroke-miterlimit="10" stroke-dasharray="" stroke-dashoffset="0" style="mix-blend-mode: normal"><path d="M224.34116,182.97456c-2.65071,-0.24156 -2.88755,-3.08363 -2.88755,-3.08363c-0.36423,-4.40803 -1.6867,-9.39192 -0.38963,-13.77482c0.88527,-2.9914 3.97788,-7.48846 6.25595,-9.6317c4.12849,-3.88414 8.98011,-4.40203 14.3588,-4.4088c0.2995,-0.00038 6.95486,-0.00658 7.17686,0.02168c7.92407,1.00861 13.59432,6.40683 16.22073,13.56903c0.95888,5.727 0.50062,9.5668 -1.68489,14.8001c-1.33227,3.1902 -0.91621,4.59097 -3.50652,7.10235c-2.17198,2.10578 -4.13715,2.37738 -7.01791,2.69544c-4.46239,0.49268 -9.04635,1.36428 -13.55195,1.5265c-1.33779,0.04817 -6.40092,0.19209 -7.90669,-0.58133c-2.75559,-1.41538 -4.8522,-5.07991 -6.65477,-7.49731z" fill="#e9ff66" stroke="none" stroke-width="0.5" stroke-linecap="butt"/><path d="M238.7913,239.66197v-30.00662" fill="none" stroke="#000000" stroke-width="6.5" stroke-linecap="round"/><path d="M263.57346,168.86482l-1.4872,-0.08038c-1.31456,-0.2953 -2.64533,-0.53082 -3.98439,-0.67978c-5.81139,0.01288 -11.17952,-1.23365 -16.93217,-1.7663c-3.12471,-0.28933 -6.41982,0.00982 -9.55751,0.00982c-6.4343,0 -12.78268,-0.17842 -19.06279,1.4092c0,0 -3.27454,0.81864 -4.09318,-2.4559c-0.05887,-0.23548 -0.09657,-0.45825 -0.11585,-0.66893c-1.13913,-4.00197 -3.1126,-7.75961 -4.36087,-11.72496c-2.85465,-9.06829 -2.40451,-21.85374 6.66192,-27.1369c2.19424,-1.27862 5.15195,-2.32021 7.57076,-3.06736c9.34587,-1.87107 18.48591,-2.36678 27.99649,-2.3653c7.10069,0.00111 13.69864,0.05858 19.61484,4.43012c3.49621,2.58338 5.65488,6.21092 7.56384,10.01888c5.33241,10.9135 1.58369,22.41413 -6.01539,31.16348l0.41026,-0.4003c0,0 -0.35981,1.07943 -1.28834,1.77594c-0.92118,1.53866 -2.92042,1.53866 -2.92042,1.53866z" fill="#e9ff66" stroke="#000000" stroke-width="3.5" stroke-linecap="butt"/><path d="M247.21392,154.85115c-2.51891,-2.93873 0.41982,-5.45764 0.41982,-5.45764c4.03877,-3.46037 8.1338,-6.66644 12.85455,-9.15323c3.53615,-1.86277 7.49013,-2.58436 11.00395,-4.34812c3.13866,-1.57545 6.90865,-3.59477 10.72531,-2.67736c5.37176,1.29121 8.58967,6.13736 10.93339,10.74898c1.76861,3.48 2.73827,6.08334 2.40924,10.00062c0.87365,2.71007 2.34644,3.90576 3.98055,6.312c2.70552,3.98389 4.27931,8.57924 3.49222,13.45407c-0.61738,3.82378 -3.83928,9.5571 -7.08838,11.78864c-1.86197,1.27883 -4.08591,1.14419 -6.04924,2.05925c-3.6834,1.71673 -5.05307,5.36413 -8.84019,7.0064c-3.65721,1.58593 -8.19846,1.15663 -12.0698,1.14847c-6.40216,-0.98345 -12.53185,-6.29913 -15.16401,-12.41371c-0.82016,-1.90526 -0.8487,-4.07403 -1.54441,-6.02817c-1.22438,-3.43913 -3.86295,-6.99967 -4.24174,-10.69919c-0.3495,-3.4135 0.91364,-4.87468 1.85042,-8.07844c0.22232,-0.76032 0.39198,-1.51543 0.54511,-2.26497c-0.97167,0.12085 -2.13308,-0.13328 -3.21679,-1.39761z" data-paper-data="{&quot;index&quot;:null}" fill="#e9ff66" stroke="#000000" stroke-width="3.5" stroke-linecap="butt"/><path d="M229.56929,156.27828c0.15313,0.74955 0.32279,1.50466 0.54511,2.26497c0.93678,3.20376 2.19993,4.66494 1.85042,8.07844c-0.37879,3.69952 -3.01736,7.26006 -4.24174,10.69919c-0.6957,1.95414 -0.72424,4.12291 -1.54441,6.02817c-2.63215,6.11458 -8.76185,11.43026 -15.16401,12.41371c-3.87135,0.00815 -8.4126,0.43746 -12.06981,-1.14847c-3.78712,-1.64226 -5.15679,-5.28967 -8.84019,-7.00639c-1.96333,-0.91505 -4.18728,-0.78041 -6.04924,-2.05925c-3.2491,-2.23155 -6.471,-7.96487 -7.08838,-11.78864c-0.78708,-4.87483 0.78671,-9.47018 3.49222,-13.45407c1.63411,-2.40624 3.1069,-3.60193 3.98055,-6.312c-0.32903,-3.91728 0.64063,-6.52062 2.40924,-10.00062c2.34372,-4.61162 5.56163,-9.45777 10.93339,-10.74898c3.81665,-0.91741 7.58664,1.10191 10.72531,2.67736c3.51382,1.76376 7.4678,2.48534 11.00395,4.34811c4.72075,2.48679 8.81578,5.69286 12.85455,9.15323c0,0 2.93873,2.51891 0.41982,5.45764c-1.08371,1.26432 -2.24512,1.51846 -3.21679,1.39761z" fill="#e9ff66" stroke="#000000" stroke-width="3.5" stroke-linecap="butt"/><path d="M235.08421,192.39365c1.75629,-4.44781 3.64059,-10.23695 7.37345,-12.92089c2.90271,-2.08705 7.48178,-2.34893 10.7983,-2.5449c2.0562,-0.1215 3.48493,-0.7651 5.69415,-0.15217c2.8877,0.80117 4.43622,3.4647 7.62178,2.95889c1.62955,-0.25874 2.56484,-2.38392 4.09428,-3.05828c1.1474,-0.50591 2.46667,-0.14223 3.70001,-0.21335c5.13038,1.856 10.3612,5.16662 14.46099,9.08514c0.94954,0.90756 4.19793,4.01322 4.58289,4.79206c0.05053,0.10223 0.99051,6.83381 1.00605,7.06528c0.54174,8.06932 -1.73514,17.55178 -6.97938,23.48643c-3.25005,3.67794 -6.56599,1.73287 -10.38981,3.06158c-4.4079,2.43889 -10.42819,4.63147 -15.46517,4.00118c-4.91434,-0.61495 -7.42963,-4.32061 -11.56146,-6.88577c-1.61932,-1.00532 -3.56028,-1.4361 -4.98049,-2.76004c-1.13509,-1.05815 -1.78191,-2.66229 -2.90881,-3.73112c-1.94897,-1.84855 -4.065,-2.98491 -5.5631,-5.48462c-2.18336,-3.64314 -2.55688,-8.57991 -2.98998,-12.81917l-0.01864,-0.87607c0,0 0,-2.1272 1.52496,-3.00418z" fill="#e9ff66" stroke="#000000" stroke-width="3.5" stroke-linecap="butt"/><g stroke="none" stroke-width="0" stroke-linecap="butt"><path d="M277.85177,176.83403c0,7.52038 -4.32424,13.61687 -9.65848,13.61687c-5.33422,0 -9.65848,-6.09647 -9.65848,-13.61687c0,-7.52038 4.32424,-13.61687 9.65848,-13.61687c5.33422,0 9.65848,6.09647 9.65848,13.61687z" fill="#ffffff"/><path d="M272.44121,178.94965c0,4.54993 -1.95948,8.23837 -4.37664,8.23837c-2.41716,0 -4.37664,-3.68845 -4.37664,-8.23837c0,-4.54993 1.95948,-8.23838 4.37664,-8.23838c2.41716,0 4.37664,3.68845 4.37664,8.23838z" fill="#000000"/></g><path d="M196.88611,187.9853c0.04603,-0.67019 0.24132,-1.15842 0.24132,-1.15842l0.75295,-1.76485c1.03336,-1.692 1.36142,-3.81619 2.64462,-5.3275c0.68631,-0.80833 1.86324,-1.02154 2.73255,-1.62876c6.49161,-4.53439 13.49215,-4.18557 21.01004,-2.5275c3.24705,0.71614 6.93739,1.47515 9.66685,3.62462c3.0836,2.42837 5.30619,5.99477 7.12218,9.38493c0.49209,3.76047 0.41695,7.45577 0.41695,11.24236c0,1.24188 0.07118,5.44759 -0.31296,6.2756c-0.83815,1.80657 -4.41685,4.29468 -5.76392,6.02706c-2.66384,3.42581 -3.97969,7.42649 -7.45726,10.26922c-6.16642,5.04072 -16.17279,6.07123 -23.80987,6.10005c-3.09048,-0.08477 -4.08228,0.35653 -6.75991,-1.79562c-3.78618,-3.04314 -5.38662,-8.50301 -6.71664,-12.87688c-0.4081,-1.34206 -1.13579,-2.5956 -1.3719,-3.97833c-0.60036,-3.51593 0.31763,-6.44009 1.0497,-9.73473c0.6253,-2.81413 0.8761,-6.40403 2.44485,-8.92722c0.98619,-1.58618 2.65272,-2.39761 4.11045,-3.20405z" fill="#e9ff66" stroke="#000000" stroke-width="3.5" stroke-linecap="butt"/><g stroke="none" stroke-width="0" stroke-linecap="butt"><path d="M222.60954,175.08704c0,7.52038 -4.32424,13.61687 -9.65848,13.61687c-5.33422,0 -9.65848,-6.09647 -9.65848,-13.61687c0,-7.52038 4.32424,-13.61687 9.65848,-13.61687c5.33422,0 9.65848,6.09647 9.65848,13.61687z" fill="#ffffff"/><path d="M217.19898,177.20265c0,4.54993 -1.95948,8.23837 -4.37664,8.23837c-2.41716,0 -4.37664,-3.68845 -4.37664,-8.23837c0,-4.54993 1.95948,-8.23838 4.37664,-8.23838c2.41716,0 4.37664,3.68845 4.37664,8.23838z" fill="#000000"/></g><path d="M228.66363,178.36593l0.35348,-0.7122c0.25701,-0.44996 0.51714,-0.90466 0.77415,-1.35462c1.23665,-1.99552 2.36196,-4.37828 3.151,-6.60266c0.23731,-0.66899 0.41739,-2.04939 0.44804,-2.06093c1.49876,-0.56449 13.45418,0.97551 13.45418,0.97551c0,0 2.8895,7.59529 5.06423,10.16589c2.58149,5.18523 0.59322,9.75494 -4.02027,12.96754c-0.97125,0.67633 0.20229,15.59541 -2.21279,19.62002c-2.21759,3.69551 -8.0727,-3.46526 -8.16409,-3.14944c-1.36957,-2.78397 -10.77245,-17.04115 -11.13981,-18.0803c-0.34589,-0.97843 0.04126,-2.08406 0.09279,-3.12055c0.14697,-2.95608 0.52382,-5.5892 1.69613,-8.04969c0.33455,-0.26153 0.50296,-0.59857 0.50296,-0.59857z" data-paper-data="{&quot;noHover&quot;:false,&quot;origItem&quot;:[&quot;Path&quot;,{&quot;applyMatrix&quot;:true,&quot;segments&quot;:[[[459.64164,349.6601],[0.74338,-0.58113],[-2.60489,5.46722]],[[455.87774,367.48422],[0.32656,-6.56844],[-0.1145,2.3031]],[[455.66468,374.39877],[-0.76858,-2.17409],[0.81627,2.30901]],[[463.59718,381.87844],[-1.67288,-1.67288],[4.90407,4.90407]],[[477.34768,397.51859],[-3.0432,-6.18601],[0.42422,-1.46597]],[[478.44056,394.34687],[-0.1773,0.38242],[2.0105,-4.33637]],[[489.11462,383.92968],[-4.11767,2.3257],[4.39918,-2.4847]],[[503.3129,377.94911],[-4.1398,2.88275],[10.25123,-7.13845]],[[512.3959,346.08429],[5.7361,11.52165],[-4.83229,-5.71191]],[[500.85785,324.87396],[6.71877,3.88639],[-5.64317,-3.26422]],[[481.22482,324.04967],[6.11515,-0.0032],[-2.84091,0.00149]],[[472.70208,324.04291],[2.83027,0.2457],[-0.48459,-0.04207]],[[471.30971,323.60623],[0.3303,-0.35707],[-1.25945,1.36156]],[[470.54979,329.11831],[0.62006,-1.74802],[-1.75325,4.9426]],[[463.25229,343.75931],[2.74785,-4.43406],[-0.57107,0.99982]],[[461.53909,346.75879],[0.57107,-0.99982],[0,0]],[460.75671,348.33559]],&quot;closed&quot;:true}]}" fill="#e9ff66" stroke="none" stroke-width="0.5" stroke-linecap="butt"/><path d="M240.48801,192.977c-1.57515,0 -1.57515,-1.57515 -1.57515,-1.57515l0.00941,-1.79203c0.64844,-2.918 0.00453,-5.54702 -0.00941,-8.46894c0,0 0,-1.57515 1.57515,-1.57515c1.57515,0 1.57515,1.57515 1.57515,1.57515c-0.01743,3.01855 0.66485,5.77852 -0.00941,8.81269l0.00941,1.44828c0,0 0,1.57515 -1.57515,1.57515z" fill="#ffc812" stroke="none" stroke-width="0.5" stroke-linecap="butt"/><path d="M247.46373,178.23826c1.46249,-0.585 2.04749,0.87749 2.04749,0.87749l0.3064,0.78065c1.90907,4.0312 0.65712,9.73952 -1.96568,13.19257c0,0 -0.96705,1.24335 -2.21039,0.2763c-1.24335,-0.96705 -0.2763,-2.21039 -0.2763,-2.21039c1.85392,-2.31023 3.12129,-7.11142 1.63466,-9.84961l-0.41367,-1.01952c0,0 -0.585,-1.46249 0.87749,-2.04749z" fill="#ffc812" stroke="none" stroke-width="0.5" stroke-linecap="butt"/><path d="M232.77847,180.28574l-0.41367,1.01952c-1.48663,2.7382 -0.21926,7.53938 1.63466,9.84961c0,0 0.96704,1.24335 -0.2763,2.21039c-1.24335,0.96705 -2.21039,-0.2763 -2.21039,-0.2763c-2.6228,-3.45304 -3.87475,-9.16136 -1.96568,-13.19257l0.3064,-0.78065c0,0 0.585,-1.46249 2.04749,-0.87749c1.46249,0.585 0.87749,2.04749 0.87749,2.04749z" data-paper-data="{&quot;index&quot;:null}" fill="#ffc812" stroke="none" stroke-width="0.5" stroke-linecap="butt"/><path d="M248.90381,193.54205c0,1.57515 -1.57515,1.57515 -1.57515,1.57515h-1.0801c-4.69421,0 -9.25767,-0.54005 -13.86131,-0.54005c0,0 -1.57515,0 -1.57515,-1.57515c0,-1.57515 1.57515,-1.57515 1.57515,-1.57515c4.61848,0 9.15866,0.54005 13.86131,0.54005h1.0801c0,0 1.57515,0 1.57515,1.57515z" fill="#ffffff" stroke="none" stroke-width="0.5" stroke-linecap="butt"/><path d="M240.41629,201.97011l0.22751,1.47939c0.47271,3.30899 0.38435,7.30847 2.7565,9.85171c0,0 1.05956,1.16552 -0.10596,2.22508c-1.16552,1.05956 -2.22508,-0.10596 -2.22508,-0.10596c-0.27066,-0.30353 -0.5166,-0.61608 -0.74055,-0.9367c-0.19403,0.40671 -0.59293,0.82823 -1.41289,0.81704c-1.575,-0.02149 -1.55351,-1.59649 -1.55351,-1.59649c0.00467,-0.34245 0.0079,-0.68482 0.00986,-1.02713c-0.328,0.16262 -0.76278,0.2164 -1.3105,-0.03639c-1.43017,-0.66008 -0.77009,-2.09025 -0.77009,-2.09025c1.13728,-2.44391 1.11498,-4.84399 1.67035,-7.43364l0.10085,-1.57446c0,0 0.01837,-0.2756 0.15514,-0.58829c-0.00949,-1.09156 -0.01048,-2.18309 0.00303,-3.27477l0.00246,-0.18c0,0 0.0215,-1.575 1.5965,-1.55351c1.575,0.02149 1.55351,1.5965 1.55351,1.5965l-0.00246,0.18c-0.02036,1.35231 -0.01663,2.70479 -0.0009,4.05759c0.03465,0.11497 0.04624,0.19029 0.04624,0.19029z" fill="#000000" stroke="none" stroke-width="0.5" stroke-linecap="butt"/></g></g></svg>