<svg version="1.1" xmlns="http://www.w3.org/2000/svg" xmlns:xlink="http://www.w3.org/1999/xlink" width="171.05863" height="127.995" viewBox="0,0,171.05863,127.995"><g transform="translate(-154.47069,-116.0025)"><g data-paper-data="{&quot;isPaintingLayer&quot;:true}" fill-rule="nonzero" stroke="none" stroke-linecap="butt" stroke-linejoin="miter" stroke-miterlimit="10" stroke-dasharray="" stroke-dashoffset="0" style="mix-blend-mode: normal"><path d="" fill="#72e302" stroke-width="0.5"/><path d="" fill="#72e302" stroke-width="0.5"/><path d="" fill="#72e302" stroke-width="0.5"/><path d="" fill="#72e302" stroke-width="0.5"/><path d="" fill="#72e302" stroke-width="0.5"/><path d="" fill="#72e302" stroke-width="0.5"/><path d="" fill="#72e302" stroke-width="0.5"/><path d="" fill="#72e302" stroke-width="0.5"/><path d="" fill="#72e302" stroke-width="0.5"/><path d="" fill="#72e302" stroke-width="0.5"/><g><path d="M175.92007,127.15145c0.21451,-0.55509 0.43966,-1.1106 0.75193,-1.63279c0.33572,-0.56139 1.04498,-0.83035 1.38757,-1.38757c0.44706,-0.72712 0.27564,-1.83938 0.93199,-2.38508c1.40293,-1.16641 5.43069,-1.88905 7.18506,-2.28696c1.2676,-0.33555 2.49236,-0.96069 3.80282,-1.00664c0.27161,-0.00953 4.18349,1.30985 4.67352,1.47616c1.31704,0.44699 2.79675,0.24128 4.11685,0.6792c0.87779,0.2912 1.51292,1.07722 2.34077,1.48951c1.16393,0.57965 3.47133,0.81484 4.45348,1.56728c0.64539,0.49444 0.66183,1.58445 1.3339,2.04197c0.66866,0.45521 1.61807,0.20704 2.37777,0.48484c1.03059,0.37685 1.96845,0.97043 2.94905,1.46294c1.00699,0.50577 2.07451,0.90902 3.01363,1.53186c0.51164,0.33934 0.75835,1.00415 1.28528,1.31922c0.62768,0.3753 1.45426,0.31752 2.08135,0.69378c0.56089,0.33654 0.82667,1.05104 1.38757,1.38757c0.14939,0.08963 0.31086,0.15341 0.47848,0.20393c1.19519,1.70942 2.90054,3.39554 3.92936,4.45966c0.82399,0.85227 1.70462,1.55399 2.6166,2.18393c-0.07971,0.23082 -0.22578,0.47084 -0.4658,0.71085c-1.22645,1.22645 -2.4529,0 -2.4529,0c-1.29369,-1.29368 -2.29301,-2.94994 -3.84813,-3.91374c-0.62162,-0.38525 -1.45426,-0.31752 -2.08135,-0.69378c-0.56089,-0.33654 -0.82667,-1.05104 -1.38757,-1.38757c-0.62709,-0.37626 -1.4548,-0.31663 -2.08135,-0.69378c-0.5949,-0.35811 -0.91309,-1.06928 -1.48987,-1.45592c-1.58881,-1.06507 -3.35201,-1.87038 -5.13788,-2.55548c-1.02654,-0.39381 -2.25289,-0.3001 -3.17251,-0.90274c-0.71488,-0.46848 -0.78808,-1.56946 -1.44124,-2.12074c-1.03318,-0.87201 -2.66367,-0.60127 -3.87194,-1.20787c-0.66427,-0.33348 -1.11722,-1.04929 -1.82194,-1.28562c-0.58697,-0.19684 -1.24606,0.1548 -1.85657,0.05203c-0.81252,-0.13676 -1.5691,-0.50359 -2.35202,-0.76039c-1.22766,-0.40269 -2.36271,-1.38441 -3.65191,-1.29897c-0.10544,0.00698 -0.2099,0.01917 -0.31354,0.03573c-0.17922,0.9291 -1.18165,1.26326 -1.18165,1.26326l-1.71798,0.52376c-1.77875,1.77875 -3.55189,1.58486 -5.55028,2.77513c-0.785,0.46756 -1.42325,1.08663 -2.01988,1.75118c-0.91864,1.86414 -1.43837,3.77082 -3.42811,5.11832c-1.02413,0.69356 -4.14292,2.16945 -5.59282,2.38636c-1.64422,0.24597 -4.74263,-0.65496 -6.30381,0.45714c-0.02383,0.01698 -0.04751,0.03397 -0.07103,0.05099c-0.5142,1.52301 -1.46662,2.88193 -1.92791,4.42237c-0.98963,3.30476 1.31842,6.54483 2.64517,9.24623c0.22341,0.4549 0.27546,2.49571 1.44727,2.51184c0.57216,0.00789 1.01085,-0.58151 1.57331,-0.68673c0.70355,-0.13164 1.43834,0.08926 2.14725,-0.0094c4.34089,-0.60408 7.67873,-2.83267 12.28409,-2.07195c2.50831,0.41432 2.80854,0.90176 4.41754,2.56697c0.60903,0.6303 1.64973,1.08123 1.76356,1.95026c0.02909,0.22213 0.0351,0.4433 0.02327,0.66375h0.10876v2.08135c0,0.95792 -0.77655,1.73446 -1.73446,1.73446c-0.47896,0 -0.91257,-0.19414 -1.22645,-0.50802l-1.38757,-1.38757c-1.87818,-2.30332 -6.31997,-0.57087 -8.90249,-0.20816c-1.88025,0.26406 -3.80761,-0.07512 -5.69449,0.13644c-3.0362,0.34042 -5.7996,1.33713 -8.67711,-0.37309c-0.72554,-0.43121 -1.21136,-1.17557 -1.81704,-1.76337c-0.29911,-0.44561 -2.97995,-4.39485 -3.09384,-4.75972c-0.68835,-2.2052 0.33233,-3.47083 0.63236,-5.57103c0.1815,-1.27053 0.38009,-2.49284 0.66869,-3.65302c0.91549,-0.69421 1.96892,-1.24804 2.73076,-2.10351c1.29913,-1.45881 1.26293,-3.22953 3.01713,-4.21628c2.03712,-1.14589 3.99243,-0.74097 6.17977,-1.40652c2.36785,-0.72048 2.3594,-0.93204 4.21493,-2.28443c0,0 1.12284,-0.84213 1.4044,-2.16929c0.50322,-0.33936 0.9611,-0.78423 1.39818,-1.27249zM159.09824,146.82863c-0.21564,0.68052 -0.34273,1.35179 -0.10432,1.99416c0.50222,1.35311 1.66019,2.3619 2.45643,3.56571c0.13635,0.14398 0.27278,0.27489 0.40947,0.39371c-0.1254,-0.38573 -0.28542,-0.81805 -0.53376,-1.30717c-0.74953,-1.47632 -1.59287,-3.02885 -2.22783,-4.6464z" fill="#72e302" stroke-width="0.5"/><path d="M282.38858,211.41915l-0.81147,-0.20287l-0.83398,-0.06415l-1.04068,-0.34689l-0.31596,-0.20107l-0.3656,-0.08125l-1.38757,-0.69378l-0.42029,-0.36025l-0.50322,-0.23064l-1.73446,-1.38757l-0.17757,-0.23306l-0.25124,-0.15075l-0.69378,-0.69378l-0.43035,-0.71725l-0.35996,-0.41995l-1.54141,-1.54141l-0.10744,-0.09209l-0.2592,-0.01441l-0.67126,-0.78313l-0.29569,-0.25344l-0.07373,-0.0041l-0.19096,-0.22277l-0.22277,-0.19096l-0.0041,-0.07373l-0.25344,-0.29569l-0.78313,-0.67126l-0.01441,-0.2592l-0.27647,-0.32257l-0.31616,-0.63232l-0.09671,-0.09671l-0.43035,-0.71725l-0.35996,-0.41995l-0.25036,-0.25036l-0.43035,-0.71725l-0.54436,-0.63508l-0.19506,-0.39012l-0.05074,-0.029l-0.03624,-0.14498l-0.06485,-0.12968l-0.05525,-0.24862l-0.00291,-0.00485l0.00101,-0.0037l-0.20221,-0.90994l-0.17299,-0.69193l-0.14467,-0.02893l-0.77089,-1.21139l-1.2828,-0.9621l-0.23617,-0.29067l-0.32114,-0.1927l-0.25036,-0.25036l-0.56428,-0.48367l-0.39016,-0.07803l-0.35895,-0.56407l-0.50763,-0.43511l-0.02207,-0.39727l-0.55113,-0.86604l-0.22996,-0.68987l-0.65674,-1.31347l-0.18702,-0.20573l-0.44441,-0.26664l-0.69378,-0.69378c-0.10847,-0.10847 -0.21218,-0.22171 -0.31078,-0.33938c-1.51708,-0.32222 -3.05171,-1.09325 -4.20024,-2.17535c-3.21437,2.29877 -6.91669,2.91897 -11.44026,3.88805c-2.02539,0.4339 -3.83245,2.2331 -5.79375,2.72343c-2.09986,0.52497 -3.92297,0.35222 -6.02515,0.69336c-1.62041,0.26296 -3.22826,0.451 -4.80073,-0.44756c-0.4139,-0.23652 -0.37246,-0.90462 -0.70955,-1.24171c-3.72082,-3.72082 -1.48648,-6.40254 0.93074,-9.80419c0.4975,-0.70012 1.19137,-1.48672 1.82319,-2.04291c0.14871,-0.1309 0.60908,-0.16136 0.49755,-0.3251c-2.30737,-3.3875 2.5003,-5.75298 4.59236,-7.56994c0.04293,-0.03729 0.08252,-0.07438 0.119,-0.11127c-1.80008,-0.64691 -3.5851,-1.38166 -5.30884,-2.22989c0.20084,0.55372 0.31036,1.15124 0.31036,1.77432c0,1.69334 -0.80886,3.19774 -2.06129,4.14794c-0.16019,0.15508 -0.33881,0.29162 -0.5404,0.40503c-1.14292,0.6429 -2.14938,0.8876 -3.04451,0.82788c0.91777,0.93821 1.4835,2.22222 1.4835,3.63836c0,2.87374 -2.32964,5.20339 -5.20339,5.20339c-1.60757,0 -3.04489,-0.729 -3.99936,-1.87447c-0.38646,0.09155 -0.78958,0.14 -1.20403,0.14c-2.67205,0 -4.87369,-2.01409 -5.16958,-4.60695c-2.24833,-0.44081 -3.97776,-2.32962 -4.17727,-4.6554c-1.33836,-0.70031 -2.33423,-1.96592 -2.67057,-3.47986c-2.08539,-0.67819 -3.59274,-2.63772 -3.59274,-4.94931c0,-1.4646 0.6051,-2.78787 1.57895,-3.73345c-0.21109,-0.23119 -0.4167,-0.46153 -0.61131,-0.68481c-0.98861,0.04732 -1.89827,-0.13155 -2.50005,-0.59026c-0.31621,-0.1499 -0.6149,-0.33074 -0.89216,-0.53862c-0.09169,-0.06874 -0.18103,-0.14043 -0.26787,-0.21495c-1.57046,-0.53954 -3.08269,-1.39022 -4.25166,-2.16104c-0.59148,-0.39002 -1.65292,-1.13497 -2.41971,-1.95705c-1.19197,-0.45553 -2.52195,-1.02399 -3.59352,-1.56144c-0.46214,-0.17658 -0.89266,-0.41717 -1.28071,-0.71091c-0.08773,-0.0664 -0.17328,-0.13553 -0.25654,-0.20724c-0.8665,0.21164 -1.80277,0.25799 -2.71532,0.18607c-1.10493,4.00746 -6.27241,3.78571 -9.50079,3.50139c-0.17155,-0.01511 -0.3563,-0.02191 -0.54622,-0.02832c-0.1374,-0.01434 -0.2732,-0.03402 -0.4072,-0.05883c-1.21901,0.17636 -2.52256,0.06932 -3.67541,-0.20283c-0.914,-0.21576 -2.67108,-0.64071 -3.47861,-1.50916c-2.48283,-0.39437 -4.38069,-2.5449 -4.38069,-5.13871c0,-2.28646 1.47474,-4.22848 3.52492,-4.92674c-0.2595,-0.6187 -0.40289,-1.29816 -0.40289,-2.01111c0,-1.61039 0.73157,-3.04993 1.8805,-4.00439c0.40403,-1.66813 1.61191,-3.02226 3.19047,-3.62921c0.73617,-0.08419 1.48404,-0.15336 2.25832,-0.33043c1.34067,0.09971 2.53987,0.70743 3.4058,1.63131c0.3511,-0.93842 0.96538,-1.74836 1.75303,-2.33999c0.00014,-1.95376 1.07707,-3.65598 2.66968,-4.54553c0.61863,-0.46141 1.48847,-0.68988 2.93662,-0.68988c1.44346,0 3.29097,0.36586 4.98805,1.07567c0.57881,-0.16275 1.15345,-0.30033 1.69299,-0.4221c-0.42498,-0.8049 -0.63351,-1.6345 -0.49298,-2.35562c0,-0.32367 0.02956,-0.64043 0.08611,-0.94773c0.44556,-2.42124 2.5672,-4.25566 5.11728,-4.25566c1.69334,0 3.19774,0.80886 4.14794,2.06129c0.15508,0.16019 0.29162,0.33881 0.40503,0.5404c0.11918,0.21186 0.22467,0.41905 0.31708,0.6217c0.32562,-0.06519 0.66221,-0.1 1.0067,-0.10131c1.16038,-1.12404 2.42865,-1.36269 3.66046,-1.03781c0.05836,-0.00194 0.11695,-0.00291 0.1758,-0.00291c2.87374,0 5.20339,2.32964 5.20339,5.20339c0.01916,0.03831 0.03674,0.07668 0.0528,0.1151c1.16764,0.24972 2.19008,0.89117 2.9231,1.78015c0.20528,0.00106 0.40484,0.01784 0.59898,0.04931c0.95372,-1.18573 2.41662,-1.94456 4.05675,-1.94456c1.89156,0 3.54737,1.00932 4.45827,2.51877c0.73204,0.43759 1.45841,0.89623 2.14639,1.37574c1.04594,2.1438 3.46945,4.52324 4.78567,5.88461c0.27723,0.28675 0.56086,0.55644 0.84995,0.81209c0.21579,0.30335 0.44335,0.59171 0.68858,0.85623c0.3463,0.37356 0.81767,0.58127 1.35808,0.70622c1.39029,0.93298 2.84663,1.71983 4.28137,2.63404c4.82306,3.07326 8.95442,7.13255 14.4733,9.3413c1.93222,0.77331 3.31564,3.55237 5.16253,4.59412c1.00108,0.56467 7.04735,3.88896 7.59704,4.56718c1.16603,1.43866 2.10255,3.10334 3.46609,4.50818c2.16599,2.23162 4.99223,4.03112 7.21458,6.31848c1.42726,1.46902 2.21989,3.51192 3.60007,5.06406c2.18199,2.45386 5.9888,4.17626 7.92331,6.85683c3.11219,4.31244 5.9824,6.68932 10.0541,10.20581c0.97985,0.84624 2.67547,1.61179 4.07252,2.18132c0.09503,0.25543 0.17254,0.49352 0.22612,0.70782c0.49148,1.96589 0.81868,3.94528 1.08775,5.92151c0.03094,0.22727 -0.02344,1.5481 0.16075,1.68371c1.89854,1.39765 3.78919,1.67988 5.40841,4.22436c0.45291,0.71169 1.8891,3.87491 2.57907,4.32259c0.6449,0.41841 2.5461,1.22553 2.89443,1.58455c0.53096,0.54728 0.75307,1.54514 1.49178,1.73422c0.67137,0.17185 1.54961,-0.00747 2.01695,0.50424c0.48005,0.52565 1.00061,1.08838 1.44906,1.68888c1.17347,0.38477 2.16296,1.17555 2.80236,2.20626c2.6959,0.05311 5.38276,2.21794 6.25925,4.67211l0.21399,0.24966c0.07304,0.14606 0.14169,0.2891 0.20594,0.42923c0.39969,0.69454 0.64366,1.49003 0.68426,2.33883c0.01656,0.22848 0.01335,0.44849 -0.00978,0.66135c-0.0743,0.9565 -0.40721,1.84044 -0.92891,2.58198c-0.01112,0.01381 -0.02208,0.02695 -0.03288,0.0394c-0.25137,0.29002 -0.50446,0.57328 -0.75921,0.85054c-0.9203,0.8227 -2.13503,1.32285 -3.46659,1.32285c-1.1488,0 -2.21066,-0.37229 -3.07149,-1.0028c-0.80256,-0.58783 -1.4304,-1.40012 -1.79107,-2.34442c-0.07967,-0.10587 -0.15369,-0.1989 -0.22179,-0.2756c-0.44629,-0.50259 -1.08001,-0.9954 -1.52562,-1.58059c-1.55418,-0.00556 -2.9478,-0.6925 -3.89771,-1.77768c-0.61046,0.25145 -1.27926,0.39014 -1.98045,0.39014c-1.5493,0 -2.94045,-0.67711 -3.89367,-1.75155c-1.32345,-0.10692 -2.50701,-0.70906 -3.36517,-1.62092c-0.72427,0.01772 -1.44145,-0.02322 -2.10725,-0.09646c-0.20111,-0.02212 -0.42063,-0.03084 -0.64545,-0.03964c-1.59635,-0.1975 -2.96863,-1.11805 -3.77897,-2.42382c-1.3823,-0.16104 -2.59924,-0.86383 -3.43287,-1.89045c-1.71636,-0.85038 -2.89637,-2.62003 -2.89637,-4.66528c0,-0.49454 0.069,-0.97296 0.19788,-1.42617c-0.66579,-0.11968 -1.26022,-0.34621 -1.45119,-0.68042l-0.58025,-1.01543zM244.15711,176.2412c0.00676,0.06771 0.33602,-0.02409 0.74553,-0.17052c-0.25244,-0.0149 -0.50817,-0.04677 -0.76661,-0.09176c0.00526,0.08592 0.01221,0.1733 0.02108,0.26228zM214.27585,171.08747c-0.0137,-0.04061 -0.02696,-0.08139 -0.03979,-0.12234c-0.06303,0.01891 -0.12643,0.0367 -0.19013,0.05333c0.07737,0.02127 0.15403,0.04429 0.22993,0.06901z" fill="#72e302" stroke-width="0.5"/><path d="M188.03385,144.46892c1.31682,0.75247 3.13106,1.0109 4.14794,2.06129c0.15508,0.16019 0.29162,0.33881 0.40503,0.5404c1.67069,2.97006 2.89473,5.99167 4.12927,9.20881c0.44174,1.15118 2.33786,2.21395 2.90968,3.55398c2.38448,5.58799 -2.37295,8.30283 -7.56283,6.6902c-0.76347,-0.23724 -1.03005,-1.22321 -1.56088,-1.82102c-0.70096,-0.78941 -1.60049,-1.22014 -2.32176,-2.06162c-1.31481,-1.53395 -1.18449,-3.95329 -2.1641,-5.71576c-0.83093,-1.49496 -2.13065,-2.20913 -2.63638,-4.23208c-0.21264,-0.85057 -0.8368,-2.96638 -0.58342,-4.40837c-5.01858,0 -10.03716,0 -15.05572,0c-0.25129,0 -7.13702,0.00691 -7.21567,-0.0224c-1.38149,-0.51477 -2.34373,-1.78912 -3.5156,-2.68368l4.17288,-1.35403l-2.79926,-0.97236c1.65143,-0.859 3.17338,-2.03532 4.95431,-2.57701c1.1942,-0.36323 2.44677,-0.3653 3.70956,-0.31694v-0.18495c-0.55759,-0.55861 -1.0992,-1.14084 -1.68806,-1.65322l1.68806,0.19655v-1.53251c2.31262,0 4.62535,-0.02313 6.93785,0c0.8689,0.00868 1.79829,-0.21809 2.66893,-0.20695c1.68859,-0.98505 3.45114,-1.88506 5.29709,-2.50053l-2.05962,-1.98086l2.80022,-0.85838c-0.00651,-0.00396 -0.01307,-0.0079 -0.01967,-0.01181c-0.01112,-0.00078 -0.02223,-0.00154 -0.03335,-0.00232c-1.2318,-0.08531 -2.53793,0.28685 -3.70215,-0.12451c-1.63326,-0.57711 -4.01296,-1.02713 -4.54485,-2.62869c0.14163,-0.37882 0.22322,-0.80942 0.18428,-1.28078c0.59227,-0.87125 2.02759,-1.52144 2.95762,-2.08713c0.73936,-0.44971 1.69481,-0.31097 2.56462,-0.3982l-0.21525,-0.1114c1.34627,-0.50286 2.69255,-1.00571 4.03884,-1.50858l0.01463,-0.04121c0.01563,0.00608 0.03127,0.01215 0.0469,0.01823c0.13617,-0.05086 0.27234,-0.10172 0.40851,-0.15259l4.47831,1.40646c-0.18848,0.13852 -0.374,0.282 -0.5577,0.42856c0.18106,0.07036 0.36211,0.14073 0.54316,0.2111l-2.77431,2.9937c2.13996,0.15752 4.38212,0.47203 6.05337,1.40236c0.9659,0.5377 1.61471,1.58713 2.63391,2.01527c2.04141,0.85753 4.37918,0.68198 6.53813,1.17359l4.72213,2.63479c-1.19218,0.53658 -2.31518,1.26597 -3.57654,1.60972c-1.53182,0.41746 -4.7058,-0.53762 -5.86597,-0.79367c-2.11477,-0.46675 -4.21098,-1.01898 -6.29344,-1.61347l-1.52104,-0.43458c0,0 -1.66773,-0.47649 -1.19123,-2.14422c0.01129,-0.03952 0.02326,-0.07784 0.03584,-0.11499c-0.72659,-0.10263 -1.45682,-0.18174 -2.18855,-0.24798c0.23845,0.15296 0.46633,0.31213 0.66407,0.48902l-1.15665,0.22257c1.09077,0.7393 2.18155,1.47862 3.27231,2.21792l-3.57253,2.56093c-0.1498,0.03409 -0.30073,0.06742 -0.45256,0.09957c0.85554,0.2275 1.57238,0.47632 1.8229,0.71682c0.51183,0.49135 0.86113,1.11046 1.17548,1.75703c0.47602,0.02344 0.95196,0.04409 1.42776,0.06118c1.27037,0.04563 2.57116,-0.22464 3.81329,0.04555c1.0106,0.21983 1.78183,1.09953 2.77513,1.38757c0.60669,0.17593 1.27145,-0.13578 1.89478,-0.03341c2.53736,0.41673 5.59246,1.10637 6.23154,4.29212c1.7818,0.34508 6.84858,1.31485 7.38599,1.87999c0.84928,0.89312 0.63992,2.49374 0.3187,3.6836c-0.03692,0.13677 -0.18374,0.265 -0.37479,0.37733c2.38114,-0.70477 4.23463,-0.61031 6.89487,0.24974c0,0 1.64546,0.54848 1.09697,2.19395c-0.54848,1.64546 -2.19395,1.09697 -2.19395,1.09697c-1.58691,-0.54967 -3.3323,-0.4226 -5.0018,-0.60477c-1.68381,-0.18374 -3.88905,0.36413 -4.99815,-0.91605c-0.79168,-0.91378 0.80205,-2.28213 1.25676,-3.40239c0.07213,-0.17772 0.50397,-0.42943 0.3187,-0.47911c-1.88391,-0.50522 -3.88934,-0.37695 -5.80195,-0.75948l-4.79446,-2.31125c0.87573,-0.41314 1.94396,-0.55327 2.62717,-1.23942c0.29738,-0.29866 -0.84236,-0.06103 -1.25698,-0.13666c-1.45285,-0.26503 -2.97895,-0.11453 -4.40043,-0.51505c-0.99547,-0.28049 -1.76667,-1.15817 -2.77513,-1.38757c-1.01568,-0.23104 -2.08328,0.07273 -3.12455,0.04555c-2.48794,-0.06494 -4.98642,-0.25861 -7.47847,-0.44477c-1.38355,0.12371 -2.76705,0.24472 -4.15083,0.36239l-1.57402,1.47079c0.25988,0 0.51976,0 0.77963,0l1.39428,-0.6937c0.46734,0.00915 6.41256,0.12445 6.43426,0.13081c0.89331,0.26177 1.72924,0.67153 2.55105,1.11766zM171.86592,144.81581c0.47281,0 0.94563,0 1.41844,0l0.44735,-0.47778c-0.60158,0.21714 -1.22579,0.37114 -1.86579,0.47778z" fill="#72e302" stroke-width="0.5"/><path d="M283.18579,218.64487c0.67538,-0.72354 1.59245,-1.81726 2.54134,-1.53575c1.49648,0.44399 0.97335,2.96142 2.20942,3.34643c1.04359,0.32506 2.00502,1.28493 3.10189,1.73748c1.20285,0.49627 10.89348,1.02749 8.28684,4.93744c-1.69609,2.54413 -4.09111,0.05774 -5.6831,-0.61049c-3.09038,-1.29716 -9.92429,-2.36852 -10.17781,-6.93196z" fill="#72e302" stroke-width="0.5"/><path d="M237.11913,233.09992c1.73446,0 1.73446,1.73446 1.73446,1.73446l-0.69378,-0.34689c0.74003,0.5666 1.54836,1.06198 2.40936,1.41886c1.94177,-0.03902 2.42302,-0.39556 4.07041,-1.22076c0.65386,-0.32752 1.42476,-0.37177 2.08135,-0.69378c0.81054,-0.39752 1.50757,-0.89507 2.12454,-1.46185c0.20909,-0.70693 0.41955,-1.39175 0.77269,-1.87267c0.51778,-0.70514 1.35371,-0.92981 1.88529,-1.53323c0.1158,-0.18792 0.23009,-0.37695 0.34342,-0.5665c0.1963,-0.51712 0.09541,-1.12092 0.30533,-1.63336c1.07085,-2.61431 3.05764,-4.50978 4.16817,-7.08024c0.07997,-1.36631 -0.33958,-1.99266 -0.46312,-3.59871c-0.32173,-4.18255 -0.62578,-8.35774 -1.04444,-12.54478c-0.0029,-2.91955 -0.00651,-5.83916 -0.00216,-8.75872c0.00162,-1.08853 -0.1033,-3.80851 0.53913,-4.60948c0.86012,-1.07238 2.13147,-2.60223 3.45912,-2.24563c2.11651,0.56849 1.39726,3.83444 1.5436,5.29663c0.61726,6.16806 1.04912,12.32265 1.04912,18.5562c0,0 0,0.06649 -0.01302,0.17345c0.01302,0.10695 0.01302,0.17345 0.01302,0.17345l-0.00591,1.87753c-0.35095,2.13858 -0.68932,3.98914 -1.48748,6.0038c-0.06633,0.1963 -0.13824,0.38856 -0.21501,0.57729c-0.01256,0.18087 -0.03132,0.36145 -0.05735,0.5417c-0.08899,0.6163 -0.5665,1.12491 -0.69378,1.73446c-0.14122,0.6763 0.18549,1.4414 -0.10073,2.07021c-0.60805,1.33584 -2.1343,2.06678 -2.879,3.33155c-1.26216,2.14366 -2.69313,4.14013 -4.34702,5.82295c-0.44853,1.29935 -0.62016,2.68153 -1.99368,3.69967c-1.24683,0.92421 -3.01325,0.75758 -4.54287,1.02029c-1.28209,0.22018 -2.34234,1.29936 -3.63834,1.4116c-2.37783,0.20594 -5.95943,-1.45196 -7.79021,-2.76787c0,0 -0.07739,-0.05804 -0.18191,-0.16498c-0.10694,-0.10452 -0.16498,-0.18191 -0.16498,-0.18191l-1.04068,-1.38757c0,0 -0.06662,-0.08882 -0.14367,-0.23837c-0.0791,-0.14847 -0.11422,-0.25382 -0.11422,-0.25382l-0.40222,-1.24901c-0.14283,-0.77866 -0.19657,-1.46607 -0.18728,-2.12476c0.10805,-0.00993 0.22227,-0.02927 0.343,-0.05945c1.68267,-0.42067 1.26201,-2.10335 1.26201,-2.10335l-0.19009,-0.31285c0.16302,-1.80707 0.90201,-2.73703 1.50861,-4.23862c0.00174,0 0.00347,0.00001 0.00519,0.00001c0.04521,0 0.09001,-0.00173 0.13435,-0.00512c0.06119,0.00512 0.09692,0.00512 0.09692,0.00512l0.02396,-0.01864c0.60929,-0.08985 1.11543,-0.49652 1.3457,-1.04724l0.58267,-0.45345c0.07709,-0.6167 0.15418,-1.23339 0.23127,-1.85009c0,0 0.01422,-0.11371 0.00611,-0.28632c0.00482,-0.05271 0.00729,-0.1061 0.00729,-0.16007c0,-0.14428 -0.01762,-0.28442 -0.05082,-0.41844c0.27642,-0.58554 0.48531,-1.19957 0.47958,-1.81912c0.04282,-0.11377 0.08437,-0.22735 0.12466,-0.34072c0.13462,3.13874 -0.63116,6.54705 -1.71815,9.29306l-0.27768,0.84149c-0.33896,1.66289 -0.70301,2.73873 -0.32573,4.41825l0.19407,0.55399l0.25896,0.34529c0.13637,-0.51327 0.52936,-1.25291 1.66201,-1.25291z" fill="#72e302" stroke-width="0.5"/><path d="M232.31682,201.707c-1.73361,-0.05418 -1.78779,1.67945 -1.78779,1.67945c-0.0558,1.78553 -0.12028,3.84907 -0.18003,5.76112c-0.08022,0.29545 -0.06418,0.58595 -0.02529,0.80935c-0.00881,0.28202 -0.01748,0.55915 -0.02594,0.82989c0,0 -0.02048,0.6553 0.36663,1.17271c-0.18207,0.4557 -0.36841,0.90969 -0.5596,1.36158c-0.26935,0.27215 -0.44923,0.63301 -0.49189,1.03485c-0.15738,0.28901 -0.20736,0.53885 -0.20736,0.53885l-0.25155,1.28133c-0.07791,0.62328 -0.07017,1.25099 -0.00658,1.87817l-0.22468,-0.02809l-0.22787,1.82295c-0.01107,0.07917 -0.01678,0.16006 -0.01678,0.24228c0,0.79944 0.54086,1.47256 1.27662,1.6734c-0.2025,1.05358 -0.3715,2.1128 -0.47566,3.18056c-0.46895,4.80795 -1.58073,9.40248 -4.51758,13.37944c-1.15858,1.43198 -3.19887,3.9803 -5.15018,4.44509c-1.3653,0.32521 -2.79601,-0.30092 -4.1995,-0.30392c-1.52269,-0.00326 -3.01633,-0.43069 -4.50955,-0.72882c-3.65394,-0.72951 -7.20185,-0.62059 -7.2848,-5.51525c-0.04359,-2.57228 1.69616,-5.83192 3.07026,-7.90566c0.58456,-0.8822 1.50811,-1.54793 1.9373,-2.51528c0.80521,-1.8149 0.54272,-4.30757 0.54272,-6.22989c0,-7.58268 0.91559,-14.86219 2.45955,-22.18222c0.32134,-1.5235 -0.24781,-3.2174 -0.36975,-4.70447c-0.18191,-2.21852 -0.00844,-4.53311 -0.00844,-6.76186c0,0 0,-1.73446 1.73446,-1.73446c1.73446,0 1.73446,1.73446 1.73446,1.73446c0,2.11297 -0.1867,4.31766 -0.00844,6.42005c0.15858,1.87036 0.68926,3.78979 0.32403,5.70229c-0.1168,0.61164 -0.58147,1.12199 -0.69378,1.73446c-0.1157,0.63095 0.08115,1.28545 0.02286,1.92426c-0.31853,3.49096 -1.41987,6.91579 -1.73446,10.40678c-0.21965,2.43753 0.00844,5.00936 0.00844,7.46072c0,2.44887 0.18072,5.3408 -0.84485,7.6458c-1.35622,3.04817 -4.57678,5.32092 -4.70543,9.00504c-0.08721,2.49741 2.84972,1.78384 4.50955,2.11639c2.28227,0.45727 3.77933,0.4072 6.06814,0.66719c0.41069,0.04665 0.77351,0.45701 1.17988,0.38142c0.94852,-0.17642 2.68121,-2.56023 3.17525,-3.18654c2.59962,-3.39508 3.38722,-7.48116 3.80783,-11.59682c0.37559,-3.67507 1.4196,-7.2777 2.09531,-10.86059c0.72399,-3.83887 -0.0224,-8.65187 -0.0224,-12.55719l0.39094,-1.0839c0.07918,-0.34453 0.261,-0.64988 0.51154,-0.88214c0.19154,-0.19151 0.45698,-0.38299 0.7963,-0.46044c0.12824,-0.15853 0.30118,-0.31055 0.53088,-0.44838c1.48728,-0.89238 2.37966,0.59491 2.37966,0.59491c0.7944,1.33173 1.50308,2.72677 2.06804,4.17569c-0.32013,-0.01092 -0.58203,0.0605 -0.7953,0.1758c-0.05687,-0.47674 -0.33386,-1.50876 -1.66517,-1.55037z" fill="#72e302" stroke-width="0.5"/><path d="M261.37546,193.55419h2.09203l-1.12188,0.58028l-0.91658,0.74992c0.00114,-0.41971 -0.02159,-0.86798 -0.05358,-1.33022z" fill="#72e302" stroke-width="0.5"/><path d="M320.03315,232.19901l0.0019,-0.00953l-0.04226,0.00095c-1.59955,-0.40034 -3.1282,-1.09162 -4.75381,-1.36771c-1.34633,-0.22866 -2.74429,0.19801 -4.0968,0.0094c-4.26868,-0.59526 -8.88047,-1.32975 -12.59658,-3.78332c-2.60881,-1.72247 -4.20192,-4.18697 -6.36633,-6.34083c-2.09986,-1.5749 -4.17129,-3.192 -6.20727,-4.82547c-0.17621,-0.14138 -2.53174,-2.57113 -2.84366,-2.74539c-1.84005,-1.02789 -4.10032,-1.44753 -5.60857,-2.91978c-0.54375,-0.53076 -0.62084,-1.45444 -1.21393,-1.92941c-0.52819,-0.42301 -1.37717,-0.22169 -1.94041,-0.59675c-0.81666,-0.54382 -1.26498,-1.5371 -2.08135,-2.08135c-0.60849,-0.40566 -1.4548,-0.31663 -2.08135,-0.69378c-0.5949,-0.35811 -0.91229,-1.07048 -1.48987,-1.45592c-2.69427,-1.798 -5.45149,-2.44545 -7.39911,-5.3517c-1.1172,-1.6671 -1.61143,-4.68755 -2.25139,-6.60744c0,0 -0.54848,-1.64546 1.09697,-2.19395c1.64546,-0.54848 2.19395,1.09697 2.19395,1.09697c0.55776,1.67327 0.94218,4.41574 1.91131,5.88068c1.52133,2.29966 4.34092,2.93893 6.47659,4.3613c0.51098,0.34031 0.75835,1.00416 1.28528,1.31922c0.62768,0.3753 1.47286,0.28812 2.08135,0.69378c0.81637,0.54425 1.26525,1.53671 2.08135,2.08135c0.654,0.43646 1.60811,0.29991 2.2223,0.79082c0.70951,0.5671 0.92772,1.58238 1.56121,2.23329c1.26133,1.29603 3.60416,1.62164 4.99577,2.43201c1.5759,0.91769 1.87943,1.9479 3.20283,3.00338c2.06926,1.65037 4.15136,3.29039 6.28086,4.88752c2.09709,2.10469 3.6253,4.46322 6.1218,6.1473c3.15695,2.12962 7.37019,2.62364 10.9921,3.15453c1.39464,0.20442 2.83769,-0.21894 4.22862,0.0094c1.06641,0.17507 2.09357,0.52196 3.12376,0.85886c-0.48177,-0.42129 -0.96555,-0.87707 -1.51881,-1.35818c0.91352,0.4947 1.86769,0.94103 2.86669,1.34525c0.62795,0.25408 1.36995,1.25122 2.05144,2.05478c-0.25643,0.53377 -0.48531,0.93766 -0.66722,1.14756c-0.27009,0.31162 -0.54217,0.61543 -0.81614,0.91239z" fill="#72e302" stroke-width="0.5"/><path d="M179.88189,125.04294c0,-1.73446 1.73446,-1.73446 1.73446,-1.73446c2.31262,0 6.0128,0 8.32541,0c2.51422,0.02387 4.1465,1.00084 6.52189,1.40997c0.81129,0.13973 1.69988,-0.18842 2.46727,0.10963c0.60973,0.23681 0.79054,1.12034 1.38757,1.38757c0.43317,0.19388 0.94326,-0.1171 1.4176,-0.13203c2.16438,-0.06816 5.06379,-0.33515 7.21567,0.0224c2.13979,0.35554 4.45244,1.46055 6.51472,2.14796c0.31092,0.10364 2.36174,0.78025 3.59687,1.21057c0.01738,0.09042 0.03617,0.18034 0.05633,0.26974c0.17872,2.44256 3.6157,5.79387 5.28073,7.51602c1.72894,1.78824 3.70712,2.9137 5.70141,4.10407c-0.20251,-0.02822 -0.40248,-0.06387 -0.5843,-0.13952c-1.31931,-0.54894 -2.63307,-1.04444 -3.95354,-1.5146c-1.12121,0.78928 -2.15944,-0.24895 -2.15944,-0.24895c-0.23605,-0.23792 -0.46596,-0.48212 -0.69008,-0.73179c-0.92279,-0.30958 -1.853,-0.61668 -2.79465,-0.93057l-0.1453,0.08901c0,0 -1.73446,0 -1.73446,-1.73446c0,-1.37697 1.09316,-1.66077 1.54378,-1.71928c-0.46402,-0.69148 -1.01808,-1.43406 -1.41497,-1.6618c-1.15348,-0.66187 -2.53769,-0.79699 -3.79933,-1.21754c-1.88468,-0.62823 -4.01651,-1.68729 -5.97341,-2.01474c-2.93109,-0.49048 -6.58705,0.92659 -9.40512,-0.10963c-0.61392,-0.22574 -0.78332,-1.1371 -1.38757,-1.38757c-0.52316,-0.21686 -1.13629,0.19954 -1.69543,0.10963c-2.25871,-0.36316 -3.63632,-1.3941 -5.96624,-1.36518c-2.31262,0 -4.62523,0 -6.93785,0h-1.38757c0,0 -1.73446,0 -1.73446,-1.73446z" fill="#72e302" stroke-width="0.5"/><path d="M232.59741,143.76595c-0.45326,-0.33204 -0.63414,-0.92015 -0.90039,-1.43121c1.02222,0.65627 2.01399,1.35599 2.99525,2.07197c-0.76297,-0.06695 -1.49372,-0.2004 -2.09485,-0.64076z" fill="#72e302" stroke-width="0.5"/><path d="M321.97889,229.89315c0.11406,0.13784 0.22726,0.27458 0.33884,0.40616c-0.23295,0.48492 -0.44316,0.86262 -0.61609,1.08507c0.13525,-0.50351 0.22407,-0.99974 0.27726,-1.49123z" fill="#72e302" stroke-width="0.5"/><path d="M193.95917,175.25333c-2.68222,0.81772 -4.30147,3.17284 -6.25989,5.13127c0,0 -0.00395,0.00395 -0.01162,0.01116l-1.69054,1.62537c-0.13867,0.00404 -0.27734,0.00809 -0.41602,0.01213l0.05264,0.15791l-2.04295,0.68097c-0.18329,0.0659 -0.3809,0.10182 -0.58689,0.10182c-0.95792,0 -1.73446,-0.77655 -1.73446,-1.73446c0,-0.47896 0.19414,-0.91258 0.50802,-1.22645v0l1.00605,-1.00605c-0.03711,-0.64128 -0.24098,-1.31632 0.00554,-1.90018c0.31873,-0.75489 1.13885,-1.18194 1.64867,-1.82344c0.60034,-0.75541 0.91499,-1.76702 1.6761,-2.3601c1.197,-0.93276 3.00688,-0.69644 4.30365,-1.4846c0.63499,-0.38594 0.94011,-1.25314 1.63568,-1.51459c1.35566,-0.50955 3.68158,-0.30092 5.52622,-0.1873c-0.18925,-0.13684 -0.37061,-0.28526 -0.53864,-0.45274c-0.59058,-0.58862 -0.8057,-1.48412 -1.38757,-2.08135c-0.93333,-0.95797 -4.05927,-2.10115 -4.77791,-2.7013c-1.16391,-0.97199 -1.77642,-2.47558 -2.85372,-3.54277l-1.38757,-1.38757c0,0 -1.22645,-1.22645 0,-2.4529c1.22645,-1.22645 2.4529,0 2.4529,0l1.38757,1.38757c1.01788,1.02596 1.58509,2.47134 2.69656,3.39508c1.4608,1.21409 3.57745,1.52052 4.93507,2.84898c0.59597,0.58316 0.79902,1.4907 1.38757,2.08135c0.54877,0.55072 1.35293,0.78023 1.95454,1.27268c1.97773,1.61894 2.59654,3.84299 4.28953,5.66517c0.04749,0.05111 0.09055,0.10775 0.13103,0.1675c1.22766,-0.16603 2.17173,0.21471 2.98107,0.84559c0.24983,-0.04217 0.49977,-0.08291 0.74765,-0.10808c0.43161,-0.13162 0.82825,-0.03558 1.1287,0.10442c0.2885,0.1051 0.60868,0.29523 0.8229,0.63923l1.12648,1.12648c0,0 1.15546,1.15546 0.10183,2.34485c0.0907,0.06417 0.18309,0.12476 0.27738,0.18132c0.73595,0.44156 1.80555,0.31984 2.39594,0.94276c0.68223,0.71981 0.77153,1.82813 1.1128,2.75932c1.05286,2.87294 1.18513,6.80056 0.76039,9.84552c-0.10103,0.7243 -0.57356,1.36 -0.69378,2.08135c-0.2465,1.47896 -0.29916,3.0067 -0.76039,4.43337c0,0 -0.54848,1.64546 -2.19395,1.09697c-1.64546,-0.54848 -1.09697,-2.19395 -1.09697,-2.19395c1.16798,-3.37205 1.27797,-6.97959 1.29856,-10.55208c0.00704,-1.22147 -0.27475,-2.43816 -0.60477,-3.61422c-0.12879,-0.45896 0.07861,-1.08348 -0.27477,-1.4034c-0.45021,-0.40758 -1.24602,-0.13236 -1.76678,-0.44481c-0.67492,-0.40496 -1.13965,-1.08599 -1.70215,-1.63654c-0.25945,-0.25393 -1.19545,-1.46533 -2.04059,-2.27172c-0.67982,-0.00827 -1.33971,-0.02516 -1.77506,-0.05814c-0.12108,0.50941 -0.10128,1.19364 -0.25029,1.65189c-0.74261,2.28373 -2.04003,3.97989 -2.77513,6.24406c-0.85807,2.52092 -2.39994,4.13687 -3.55628,6.45762c-0.35118,0.70483 -0.3723,1.55534 -0.77646,2.23118c-0.62385,1.04323 -1.55685,1.94284 -1.91131,3.10555l-2.33107,-1.33526l-0.95985,0.23829c0.07707,-0.21814 0.15923,-0.43379 0.24591,-0.64725l-0.33492,-0.19184c0,0 0,-1.37356 1.22234,-1.67602c1.66103,-3.08833 3.99973,-5.8573 5.11074,-9.27924c0.5246,-1.54121 1.43492,-2.92296 2.16871,-4.37627c0.48775,-0.966 0.87074,-3.40938 1.43782,-4.2656c-0.98628,-1.22489 -1.71127,-2.76531 -2.43033,-3.97015c-0.39523,1.01926 -1.61209,1.01926 -1.61209,1.01926c-1.17235,0 -2.3454,0.03735 -3.51738,0.01738z" fill="#72e302" stroke-width="0.5"/><path d="M316.08712,235.00343c-2.33813,-0.12584 -4.56198,-1.11747 -6.74224,-1.97138c-3.25849,-1.27619 -6.76951,-2.17332 -9.8988,-3.77393c-1.39718,-0.71464 -2.41434,-2.01056 -3.69514,-2.9174c-1.71587,-1.21486 -4.06715,-1.11425 -6.00403,-1.9319c-1.47616,-0.62315 -2.44169,-2.08723 -3.77489,-2.97603c-2.59917,-2.59917 -4.89454,-5.69645 -7.17956,-8.56713c-0.48419,-0.60829 -0.72294,-1.40478 -1.27268,-1.95454c-1.54841,-1.54841 -3.537,-2.49969 -4.97138,-4.28953c-1.04288,-1.30132 -1.73466,-2.85945 -2.77513,-4.16271c-2.50295,-3.13509 -5.51759,-4.42741 -8.69202,-6.63041c-1.95789,-1.35873 -2.23177,-2.6683 -3.31234,-4.79411c0,0 -0.77567,-1.55135 0.77568,-2.32704c1.55135,-0.77567 2.32704,0.77568 2.32704,0.77568c0.41443,0.84555 0.73922,1.74129 1.24328,2.53665c1.19742,1.88945 4.20776,2.45741 5.93662,3.83553c0.07383,0.05884 2.76386,2.75136 2.90196,2.89002c1.74265,1.74985 2.75607,3.77129 4.27759,5.67709c1.36027,1.70381 3.25584,2.55013 4.74161,4.03589c3.07274,3.07275 5.1076,7.2009 8.1986,10.29189c0.69378,0.46252 1.43464,0.86122 2.08135,1.38757c0.4151,0.33784 0.58267,0.99297 1.08161,1.18668c1.00119,0.3887 2.17184,0.12133 3.1874,0.47072c1.17794,0.40526 2.26346,1.06423 3.29669,1.76008c1.15484,0.77775 1.99567,2.01362 3.24271,2.63288c3.03905,1.50915 6.40801,2.37638 9.55216,3.61524c1.85446,0.7307 3.73905,1.52745 5.72091,1.74002c0.66021,0.07082 1.3636,0.35378 1.98791,0.12763c0.32744,-0.11862 0.49994,-0.45687 0.6968,-0.7681l-0.56571,-0.56572c-2.30355,-2.32535 -5.33744,-3.94987 -7.63163,-6.24406c-0.62952,-0.62952 -0.9463,-1.51298 -1.50245,-2.20818c-1.15712,-1.4464 -2.73738,-2.72544 -4.04783,-4.03589c0,0 -0.58334,-0.58334 -0.5431,-1.3477l-0.15068,-0.03986c-1.34814,-1.34814 -3.28006,-2.80119 -4.34333,-4.375c-0.57898,-0.85698 -0.81385,-1.91461 -1.38757,-2.77513c-0.38519,-0.57775 -1.09781,-0.89495 -1.45592,-1.48987c-0.37715,-0.62656 -0.28856,-1.47258 -0.69378,-2.08135c-0.55559,-0.83466 -1.62456,-1.26427 -2.11527,-2.13865c-0.81345,-1.4495 -0.48446,-3.38242 -1.35366,-4.79919c-0.38859,-0.63338 -1.24348,-0.94383 -1.51459,-1.63568c-0.30842,-0.78705 0.00781,-1.69743 -0.11903,-2.53319c-0.02927,-0.19282 -0.05903,-0.38604 -0.08978,-0.57937c1.30582,0.92953 3.35074,1.73597 4.6695,2.25276c0.57205,0.22417 6.06411,4.79549 6.75082,5.32173c1.20251,0.92151 2.34554,1.41994 3.49833,2.39119c1.1797,0.99391 2.00891,2.85939 3.21281,3.9631c0.99592,0.91301 3.1287,1.49226 4.01748,2.51859c1.40814,1.62605 2.53046,3.98224 4.58611,4.87904c0.03246,0.12479 0.0695,0.24909 0.11127,0.37279c1.09593,3.24601 2.77301,4.50274 4.71259,7.19377c0.39007,0.5412 0.88199,1.15933 1.4442,1.76014c-0.96227,2.77564 -2.20828,5.99125 -2.85704,6.73978c-1.1568,1.33468 -2.34994,2.5259 -3.57266,3.65062c-0.66209,0.00786 -1.33501,-0.05876 -1.99072,-0.09406z" fill="#72e302" stroke-width="0.5"/><path d="M236.63121,161.17576c0.12531,2.67643 -1.85205,4.36624 -3.15488,6.37658c-0.0298,0.04599 -0.05972,0.09236 -0.08976,0.1391c2.23365,0.23367 4.46642,0.47556 6.69924,0.72366c0.88439,0.09827 6.58138,0.70657 6.827,0.86569c0.7013,0.45433 1.26207,0.85201 1.7022,1.19988c2.3797,0.02382 4.76053,0.00374 7.14583,0.00514l3.90364,1.63862c-1.3083,0.57778 -2.57424,1.26723 -3.89783,1.80475l-0.00687,0.02556c-0.01877,-0.00001 -0.03754,-0.00002 -0.05631,-0.00004c-0.33793,0.13579 -0.67968,0.26143 -1.02696,0.37256c-2.6088,0.83478 -5.83758,0.32131 -8.53817,0.32131l-1.96729,-0.80789c-0.7983,-0.03341 -1.59673,-0.07587 -2.39541,-0.12968c-0.09177,-0.00619 -7.01594,-0.47257 -7.03422,-0.47865c-0.08354,-0.02777 -0.16655,-0.05679 -0.24906,-0.08696c-1.29735,-0.13586 -2.5873,-0.38507 -3.86169,-0.69667c-1.54685,2.91752 -2.99494,6.07929 -3.7402,8.45136c-1.13435,3.61052 -1.70671,11.28731 -1.70671,14.96495c0,3.47757 0.0567,8.21524 -0.72621,11.73832c-0.32664,1.46991 -1.09158,3.20777 -1.15977,4.72705c-0.03732,0.83173 0.4984,1.67441 0.4984,2.50168c0,4.16426 -1.68233,14.29318 -7.66405,14.6255c-0.83906,0.04662 -1.44768,-0.85483 -2.18889,-1.25079c-0.66265,-0.354 -1.89762,-0.7106 -2.36408,-1.3509c-1.96196,-2.6932 0.29388,-4.45341 0.57865,-6.70461c0.22263,-1.75985 -0.22331,-2.47257 0.46202,-4.74284c0.38959,-1.29057 -1.04404,-4.29939 -0.65042,-6.07062c0.55588,-2.50144 1.16525,-2.44175 2.08135,-4.40345c0.93405,-2.00011 0.66136,-13.51824 0.66136,-15.77232c0,-1.65279 1.15121,-2.88471 1.28768,-4.37664c0.61371,-6.70937 2.3312,-10.1656 5.47618,-16.25916c0.34997,-0.67808 0.68208,-1.35062 1.00952,-2.01701c-0.89453,-0.0446 -1.79518,-0.0118 -2.68501,-0.11345c-1.12866,-0.12893 -2.69264,0.32161 -3.35449,-0.60166c-2.67741,-3.73494 0.25929,-4.7955 2.56643,-5.53866c0.35452,-0.11419 1.23855,0.3518 1.11738,-0.00039c-0.14531,-0.42229 -0.84481,-0.29001 -1.26719,-0.43502l-1.71798,-0.52376c0,0 -1.64546,-0.54848 -1.09697,-2.19395c0.54848,-1.64546 2.19395,-1.09697 2.19395,-1.09697l2.44473,0.86382c0.96517,1.24256 2.93175,2.15473 2.89551,3.72768c-0.02413,1.0471 -1.1139,1.67447 -2.14,2.24622c0.68865,0.05357 1.39295,0.19385 2.08204,0.26813c0.21432,0.0231 0.42774,0.0515 0.6403,0.08479c0.71441,-1.31722 1.50232,-2.60423 2.47677,-3.85566c0.00309,-0.00397 0.00619,-0.00798 0.00928,-0.01201c0.19072,-0.42257 0.43623,-0.8151 0.72746,-1.16854c0.95435,-1.15816 2.39978,-1.89655 4.01766,-1.89655c2.55541,0 4.68056,1.84207 5.12004,4.27079c0.06516,0.20167 0.10514,0.41494 0.11576,0.64171z" fill="#72e302" stroke-width="0.5"/><path d="M247.48897,227.45094c-0.18707,-0.01388 -0.37382,-0.03831 -0.56015,-0.07525c-0.09812,-0.01945 -0.1951,-0.04229 -0.29109,-0.0682l-0.007,0.03502l-2.04986,-0.40996c-0.81067,-0.14561 -1.42582,-0.8545 -1.42582,-1.70708c0,-0.57844 0.28317,-1.09075 0.71844,-1.40588l1.76014,-1.30465l0.02471,0.03335l0.08957,-0.11121c1.65044,-0.52485 3.31425,-2.1397 4.95133,-1.57456c0.38778,0.13387 0.5592,1.11623 0.61644,2.25805c0.32049,-0.33973 0.83318,-0.60857 1.62612,-0.41034c1.68267,0.42067 1.26201,2.10335 1.26201,2.10335l-1.63987,1.85929c-0.46192,0.04855 -0.92463,0.13773 -1.38736,0.23927c-0.70074,3.84651 -3.12315,6.80694 -7.27078,7.11977c-2.09055,0.15767 -6.17448,-1.11637 -7.22767,-3.03487c-0.86421,-1.57426 0.26822,-3.47023 0.53678,-4.96318c0.4388,-2.43941 0.45152,-4.80721 0.13258,-7.19499c0.5128,-1.45883 0.81795,-2.88735 0.96451,-4.33482c1.67025,-0.33715 2.02938,1.33878 2.02938,1.33878c0.76983,3.60886 0.93699,7.14373 0.28958,10.79433c-0.1176,0.6631 -0.3597,1.2981 -0.55503,1.9426c-0.08835,0.29151 -0.45771,0.60663 -0.29577,0.86462c0.48422,0.77137 1.69891,0.67238 2.58337,0.88966c2.51601,0.61808 4.38736,-0.71357 5.1254,-2.8831z" fill="#72e302" stroke-width="0.5"/><path d="M228.27338,191.29938c0,-2.87374 2.32964,-5.20339 5.20339,-5.20339c1.07323,0 2.07056,0.32492 2.89901,0.88174c0.95408,-1.17302 2.40893,-1.92242 4.03884,-1.92242c0.53792,0 1.05678,0.08163 1.54485,0.23316c0.06567,-0.11399 0.13673,-0.22377 0.21437,-0.32841c0.94906,-1.00909 2.29647,-1.63922 3.79106,-1.63922c0.10396,0 0.2072,0.00304 0.30965,0.00906c1.49641,-0.44 3.0918,-0.88267 3.931,-1.03661c0.03125,-0.01941 0.06308,-0.03825 0.0955,-0.05649c2.32175,-1.30601 7.06772,-0.87824 8.64331,1.87904c0.01957,0.03423 0.03719,0.06891 0.05302,0.10402c0.83345,-0.56738 1.84027,-0.89903 2.92456,-0.89903c2.65253,0 4.84149,1.98476 5.16279,4.55021c2.56543,0.3213 4.55021,2.51026 4.55021,5.16279c0,2.87374 -2.32964,5.20339 -5.20339,5.20339c-2.65253,0 -4.84149,-1.98476 -5.16279,-4.55021c-1.81711,-0.22757 -3.34289,-1.39215 -4.07842,-2.99478c-0.04573,0.02873 -0.09218,0.05734 -0.13929,0.08579c0.23319,0.59103 0.3613,1.235 0.3613,1.9089c0,0.97743 -0.26949,1.8919 -0.73824,2.67317c1.09029,0.95378 1.77892,2.35537 1.77892,3.91778c0,1.36353 -0.52447,2.60457 -1.38268,3.53238c0.2196,0.64669 0.44973,1.2985 0.37443,1.96188c-0.02286,0.20138 -0.08705,0.38765 -0.17825,0.56405c0.74127,0.89915 1.1865,2.05148 1.1865,3.30778c0,1.72133 -0.83583,3.24744 -2.12377,4.19462c0.02989,0.04589 0.0585,0.09305 0.08578,0.14154c0.48663,0.86511 0.79418,1.94267 0.89844,3.07074c0.09718,0.2129 0.17889,0.43725 0.24332,0.67285c0.06015,0.21992 0.13403,0.44019 0.20904,0.66104c0.88391,1.87776 0.92884,4.21799 0.03677,6.00214c-0.7788,1.55759 -3.45769,5.07017 -5.95306,5.19963c-0.45994,1.16912 -1.33091,2.13151 -2.43495,2.70921c-0.22842,2.66276 -2.46222,4.75275 -5.18414,4.75275c-0.31803,0 -0.62941,-0.02853 -0.93169,-0.08318c-0.67485,0.69217 -1.85304,1.12385 -3.92481,1.12385c-4.47304,0 -5.95158,-4.61166 -5.20339,-7.97852c0.42612,-1.91755 0.8411,-3.19022 1.31169,-4.24152c0.19959,-0.17374 0.35907,-0.39237 0.46268,-0.64017l0.58267,-0.45345c0.07709,-0.6167 0.15418,-1.23339 0.23127,-1.85009c0,0 0.01422,-0.11371 0.00611,-0.28632c0.00482,-0.05271 0.00729,-0.1061 0.00729,-0.16007c0,-0.14428 -0.01762,-0.28442 -0.05082,-0.41844c0.27642,-0.58554 0.48531,-1.19957 0.47958,-1.81912c1.35825,-3.60861 1.42895,-7.00576 0.9454,-10.92822l-0.21807,-0.91431c0.00013,-0.00894 0.0002,-0.0179 0.0002,-0.02686c0,-0.00028 0,-0.00056 0,-0.00085c0.03795,-0.49789 -0.14024,-0.91365 -0.14024,-0.91365c-0.23127,-0.53961 -0.46252,-1.07922 -0.69378,-1.61883l-0.59904,-0.77447c0,0 -0.0611,-0.06111 -0.16966,-0.1424c-0.18617,-0.33985 -0.52813,-0.6502 -1.14306,-0.78685c-0.51202,-0.11378 -0.90361,-0.03832 -1.20079,0.12234c-0.05687,-0.47674 -0.33386,-1.50876 -1.66517,-1.55037c-0.17405,-0.00544 -0.33116,0.00715 -0.47298,0.03417c-0.28821,-0.64658 -0.44842,-1.36277 -0.44842,-2.11637c0,-1.21239 0.41465,-2.32794 1.10986,-3.21256c-2.40946,-0.45503 -4.2319,-2.57111 -4.2319,-5.11285z" fill="#72e302" stroke-width="0.5"/><path d="M240.7615,175.34234c0,-2.87374 2.32964,-5.20339 5.20339,-5.20339c2.87374,0 5.20339,2.32964 5.20339,5.20339c0,2.87374 -2.32964,5.20339 -5.20339,5.20339c-2.87374,0 -5.20339,-2.32964 -5.20339,-5.20339z" fill="#72e302" stroke-width="0.5"/><path d="M232.78298,195.4621c0,2.87374 -2.32964,5.20339 -5.20339,5.20339c-0.25974,0 -0.51504,-0.01903 -0.76457,-0.05579c-0.61856,0.25936 -1.29783,0.40268 -2.01057,0.40268c-2.87374,0 -5.20339,-2.32964 -5.20339,-5.20339c0,-2.00449 1.13344,-3.74425 2.79438,-4.61335c0.22842,-2.66276 2.46222,-4.75275 5.18414,-4.75275c2.87374,0 5.20339,2.32964 5.20339,5.20339c0,0.67352 -0.12797,1.31715 -0.36091,1.9079c0.23295,0.59075 0.36091,1.23439 0.36091,1.9079z" fill="#72e302" stroke-width="0.5"/><path d="M216.47903,239.86432c-0.80781,0 -1.57264,-0.18408 -2.2548,-0.51259c-0.68216,0.32851 -1.44698,0.51259 -2.2548,0.51259c-2.87374,0 -5.20339,-2.32964 -5.20339,-5.20339c0,-1.5493 0.67711,-2.94045 1.75155,-3.89367c0.21612,-2.67509 2.45555,-4.77864 5.1863,-4.77864c2.39411,0 4.41058,1.61688 5.017,3.81824c2.7995,0.08481 5.04288,2.38091 5.04288,5.20096c0,2.87374 -2.32964,5.20339 -5.20339,5.20339c-0.66357,0 -1.29812,-0.12421 -1.88169,-0.35065c-0.06625,0.0025 -0.13281,0.00376 -0.19966,0.00376z" fill="#72e302" stroke-width="0.5"/><path d="M227.92649,220.09146c0,1.48351 -0.62083,2.82202 -1.61685,3.76989c-0.17275,0.33486 -0.38078,0.64856 -0.61919,0.93618c0.3216,0.67633 0.50158,1.43303 0.50158,2.23179c0,0.60816 -0.10433,1.19196 -0.29608,1.73446c0.19174,0.5425 0.29608,1.1263 0.29608,1.73446c0,2.87374 -2.32964,5.20339 -5.20339,5.20339c-2.87374,0 -5.20339,-2.32964 -5.20339,-5.20339c0,-0.60816 0.10433,-1.19196 0.29608,-1.73446c-0.19174,-0.5425 -0.29608,-1.1263 -0.29608,-1.73446c0,-1.2613 0.44878,-2.41779 1.19537,-3.31849c-0.3216,-0.67633 -0.50158,-1.43303 -0.50158,-2.23179c0,-1.33725 0.50445,-2.55668 1.33343,-3.47838c-0.18963,-0.53983 -0.29275,-1.12038 -0.29275,-1.72501c0,-1.25353 0.44326,-2.40352 1.18158,-3.30179c-0.09212,-0.3876 -0.1409,-0.79201 -0.1409,-1.2078c0,-1.05756 0.3155,-2.04143 0.85752,-2.86263c-0.10688,-0.41555 -0.16374,-0.85118 -0.16374,-1.30009c0,-0.11657 0.00383,-0.23224 0.01138,-0.3469c-0.00378,0.00001 -0.00758,0.00001 -0.01138,0.00001c-2.87374,0 -5.20339,-2.32964 -5.20339,-5.20339c0,-2.87374 2.32964,-5.20339 5.20339,-5.20339c0.66896,0 1.30844,0.12624 1.89591,0.3562c0.76806,-0.44703 1.66097,-0.70309 2.6137,-0.70309c2.87374,0 5.20339,2.32964 5.20339,5.20339c0,0.88581 -0.22135,1.71992 -0.61176,2.45005c0.81238,0.91793 1.30554,2.12493 1.30554,3.44712c0,1.05756 -0.3155,2.04143 -0.85752,2.86263c0.10688,0.41555 0.16374,0.85118 0.16374,1.30009c0,1.25353 -0.44326,2.40352 -1.18158,3.30179c0.09212,0.3876 0.1409,0.79201 0.1409,1.2078c0,0.67352 -0.12797,1.31715 -0.36091,1.9079c0.23295,0.59075 0.36091,1.23439 0.36091,1.9079z" fill="#72e302" stroke-width="0.5"/><path d="M260.57773,217.83666c1.26992,2.25761 0.77565,5.80044 0.49506,8.07962c-0.72065,5.85392 -7.64022,15.37205 -13.72033,16.72318c-0.69794,0.1551 -1.12303,-0.32858 -1.69763,-0.83816c-1.48573,0.63522 -3.18249,0.84002 -5.12638,0.40805c-3.72343,-0.82743 -5.36427,-3.12458 -5.52708,-5.61936c-0.9936,-0.50888 -1.89492,-1.33098 -2.66645,-2.10253c-0.6321,-0.6321 -0.52745,-1.71627 -0.65042,-2.60169c-0.2624,-1.88922 0.28552,-5.5626 1.534,-7.07149c0.87272,-1.05477 2.43924,-1.89431 2.89599,-3.24811c0.15127,-0.44838 2.8476,-5.28646 3.22689,-5.5032c0.90513,-1.53365 2.5746,-2.5625 4.48436,-2.5625c1.69334,0 3.19775,0.80886 4.14794,2.06129c0.15508,0.16019 0.29162,0.33881 0.40502,0.5404c0.38682,0.68767 0.58986,1.38619 0.65077,2.08824c0.5424,-0.19166 1.12608,-0.29596 1.73411,-0.29596c0.2358,0 0.46795,0.01568 0.69542,0.04607c0.88398,-1.6124 2.59722,-2.70557 4.56578,-2.70557c1.69334,0 3.19774,0.80886 4.14794,2.06129c0.15508,0.16019 0.29162,0.33881 0.40503,0.5404z" fill="#72e302" stroke-width="0.5"/><path d="M218.04005,224.94795c0,-2.87374 2.32964,-5.20339 5.20339,-5.20339c2.87374,0 5.20339,2.32964 5.20339,5.20339c0,2.87374 -2.32964,5.20339 -5.20339,5.20339c-2.87374,0 -5.20339,-2.32964 -5.20339,-5.20339z" fill="#72e302" stroke-width="0.5"/><path d="M210.58186,182.97397c0,-2.87374 2.32964,-5.20339 5.20339,-5.20339c2.87374,0 5.20339,2.32964 5.20339,5.20339c0,2.87374 -2.32964,5.20339 -5.20339,5.20339c-2.87374,0 -5.20339,-2.32964 -5.20339,-5.20339z" fill="#72e302" stroke-width="0.5"/><path d="M229.31405,165.62935c0,-2.87374 2.32964,-5.20339 5.20339,-5.20339c2.87374,0 5.20339,2.32964 5.20339,5.20339c0,2.87374 -2.32964,5.20339 -5.20339,5.20339c-2.87374,0 -5.20339,-2.32964 -5.20339,-5.20339z" fill="#72e302" stroke-width="0.5"/><path d="M197.74685,197.37c0,0.95792 -0.77655,1.73446 -1.73446,1.73446c-0.75052,0 -1.38972,-0.47669 -1.6313,-1.14383c-0.66709,-0.24157 -1.14379,-0.88071 -1.14383,-1.63118c-0.42128,-0.31644 -0.69378,-0.82025 -0.69378,-1.3877c0,-0.95792 0.77655,-1.73446 1.73446,-1.73446c0.95787,0 1.73439,0.77648 1.73446,1.73434c0.26732,0.20079 0.47473,0.47701 0.59063,0.79707c0.66714,0.24159 1.14383,0.88078 1.14383,1.6313z" fill="#1aa200" stroke-width="0.5"/><path d="M179.01466,181.06606c0,-0.95792 0.77655,-1.73446 1.73446,-1.73446c0.95792,0 1.73446,0.77655 1.73446,1.73446c0,0.16112 -0.02196,0.31711 -0.06307,0.46513c0.46387,0.18116 0.83062,0.55625 1.0006,1.0256c0.66714,0.24159 1.14383,0.88078 1.14383,1.6313c0,0.95792 -0.77655,1.73446 -1.73446,1.73446c-0.75052,0 -1.38972,-0.47669 -1.6313,-1.14383c-0.66714,-0.24159 -1.14383,-0.88078 -1.14383,-1.6313c0,-0.16112 0.02196,-0.31711 0.06307,-0.46513c-0.64607,-0.2523 -1.10375,-0.88081 -1.10375,-1.61622z" fill="#1aa200" stroke-width="0.5"/><path d="M169.30166,143.60169c0,-0.95792 0.77655,-1.73446 1.73446,-1.73446c0.95792,0 1.73446,0.77655 1.73446,1.73446c0,0.37838 -0.12115,0.72845 -0.32678,1.01354c0.33864,0.40944 0.36924,0.88074 0.31792,1.24431c-0.02399,0.23738 -0.09585,0.46061 -0.20576,0.65991l-0.82605,1.59184c-0.89521,1.19361 -2.43915,4.026 -3.73392,4.67338c-0.75037,0.37519 -1.67199,0.14696 -2.51014,0.18311c-2.35466,0.10158 -4.62211,-0.16406 -6.94458,0.31321c0,0 -1.70078,0.34016 -2.04094,-1.36062c-0.34016,-1.70078 1.36062,-2.04094 1.36062,-2.04094c2.00053,-0.39106 3.85859,-0.38057 5.89044,-0.38057c0.89983,0 1.88842,0.58553 2.69325,0.18311c0.29102,-0.14551 0.25167,-0.60395 0.42879,-0.8769c0.62944,-0.96998 1.38757,-1.85009 2.08135,-2.77513l0.48971,-1.03722c0.05434,-0.12513 0.12302,-0.24261 0.20395,-0.35036c-0.21774,-0.28988 -0.34676,-0.65022 -0.34676,-1.04068z" fill="#1aa200" stroke-width="0.5"/><path d="M173.33654,153.94302c0.67657,0.0116 1.56793,0.00994 2.38642,0.13329c1.85173,-1.19532 6.52429,0.2054 8.05741,0.98027c3.45561,1.74654 3.03664,4.48927 5.24227,6.9291c2.09593,2.31848 5.20584,3.4003 7.36145,5.69321c1.43745,1.52901 3.91122,2.51075 5.67292,3.68354c0.25291,0.16837 0.90266,0.54106 1.2703,0.94775c0.83662,0.58937 1.62473,1.45715 2.24061,1.91171c3.93828,2.90675 6.97585,6.08854 7.60944,11.23534c0.01227,0.09967 1.00749,5.30535 -0.16602,6.04642c-0.04601,4.12729 -1.16704,7.54502 -1.2854,11.5684c-0.07234,2.45953 0.07124,3.76628 0.11564,5.83748c0.0285,1.32979 1.92426,4.65801 0.62836,5.74119c-0.00363,0.74011 -0.22285,1.57548 -0.38264,2.09906c-1.04022,3.40841 -0.39542,6.97163 -2.27891,10.19959c-0.53963,0.92484 -2.9203,3.11313 -2.93892,4.14338c-0.03772,2.08634 -1.63641,5.1056 0.10238,6.25923c1.61345,1.07047 3.60619,1.53514 5.28565,2.27971c0.2995,0.13277 1.09985,0.21238 1.61721,0.42141c1.35253,0.10977 2.77253,0.48024 3.45109,0.45882c4.67799,-0.14771 7.2648,-5.02154 7.46645,-9.23272c0.13109,-2.7378 1.72756,-5.55242 1.73446,-8.35264c0.00626,-2.54071 -0.02176,-5.08152 0,-7.62215c0.0014,-0.16309 0.1171,-0.80064 0.23888,-1.31998c0.01945,-0.20776 0.07553,-0.40488 0.16174,-0.58481c0.01936,-0.04038 0.04021,-0.0799 0.06253,-0.11848c0.03959,-0.28437 0.0832,-0.54996 0.115,-0.77755c0.40864,-2.92427 0.96543,-12.03641 4.95345,-12.03641c4.49319,0 7.90197,2.58732 8.11282,7.28605c0.06462,1.43996 1.04912,4.38211 -0.12405,5.05249c-0.09772,0.16556 -0.22215,0.31348 -0.36738,0.43782c-0.16859,1.61641 -0.59604,3.3 -0.99732,3.96878c-0.55928,0.93216 -0.82763,2.16719 -1.15631,3.23766c-0.52399,1.70655 -2.31621,3.16447 -2.91758,4.88595c-0.90312,2.58522 -1.58447,5.64449 -0.42354,8.26782c0.15186,0.34315 0.23284,1.91007 0.50338,2.05414c0.42422,0.22593 1.13166,0.57858 1.46643,0.91337c0.68676,0.68676 1.49487,1.77403 2.50498,2.04782c4.91413,1.33198 12.49135,1.46932 15.66646,-3.2719c1.29722,-1.93706 2.06352,-3.72534 3.05604,-5.75469c0.05687,-0.11627 0.19595,-0.41649 0.36721,-0.74922c0.02238,-0.42479 0.19761,-0.80908 0.4717,-1.09888c0.49829,-0.96418 1.14112,-1.85939 1.14469,-2.98326c0.02144,-6.73054 0.85623,-14.48124 -0.02663,-21.0623c-0.14763,-1.10052 -1.58885,-7.83322 1.64545,-7.83322c0.77032,0 1.25716,0.45675 1.55805,1.17562c0.36584,0.11063 0.70435,0.28626 0.95812,0.49862c4.08495,3.41803 10.20945,5.47688 12.9336,10.24414c0.35459,0.20928 0.62823,0.54113 0.76261,0.93726c1.67865,1.59218 4.0523,5.05381 5.35516,6.61089c1.81617,2.17054 2.29436,5.72582 4.37171,7.61723c1.47856,1.34622 8.76312,3.94398 11.25531,5.19007c1.2484,0.6242 3.53071,0.74661 4.97693,1.10817c4.24272,1.06068 8.79602,3.7988 13.36162,3.40144c1.87246,-0.16296 3.2088,-3.08954 4.07679,-4.54666c0.59645,-1.00128 1.42547,-2.30925 1.55879,-3.48207c0.23892,-2.10175 -2.19118,-4.54864 -3.3912,-6.09149c-0.10739,-0.13806 -0.90627,-1.03029 -1.34789,-1.58076c-0.0532,-0.05718 -0.10259,-0.11798 -0.14777,-0.18195c-0.90005,-0.74588 -1.74682,-1.80214 -2.4006,-2.21832c-4.70431,-2.99462 -7.31652,-8.00961 -11.77837,-11.25677c-4.02966,-2.93262 -9.10326,-4.8806 -13.0458,-8.08391c-2.30904,-1.8761 -3.7511,-4.31877 -5.71753,-6.44332c-0.57722,-0.62364 -3.238,-2.46488 -4.00584,-3.61298c-1.5933,-1.14649 -3.648,-4.03273 -5.29644,-5.4644c-4.58523,-3.98229 -9.30184,-8.53045 -12.52747,-13.74485c-0.70221,-1.13516 -2.21255,-1.98769 -3.00753,-3.19788c-1.19206,-1.8147 -5.47479,-2.8646 -6.08915,-3.93974c-0.27893,-0.16462 -0.50776,-0.40508 -0.65814,-0.69302c-1.06564,-0.49049 -2.12388,-1.12706 -2.80591,-1.41403c-5.7348,-2.41293 -8.93851,-8.45812 -14.40906,-10.97307c-3.57064,-1.64151 -7.36892,-3.56599 -10.22443,-6.29299c-4.01778,-3.83694 -6.79241,-7.79209 -11.65804,-10.61572c-1.39557,-0.80988 -8.77408,-4.41183 -10.24648,-4.83331c-1.46182,-0.41844 -3.99279,-1.6921 -5.2111,-3.11197c-0.67748,-0.09814 -1.34322,-0.27214 -1.83757,-0.35695c-5.62689,-0.9654 -9.65892,-1.3236 -14.73125,1.49974c-3.71352,2.067 -3.36605,7.21792 -6.59031,9.78659c-4.07493,3.24638 -10.10529,3.4803 -13.89579,6.9458c-1.81564,1.65995 -1.69856,5.11668 -2.76169,7.16814c0.10756,0.22575 0.16777,0.47842 0.16777,0.74515c0,0.40363 -0.13787,0.77506 -0.3691,1.06977c-2.46581,8.50741 10.3559,6.13246 15.16984,6.21498zM169.5868,157.41193c-4.15236,0.01927 -10.4518,1.12233 -13.53483,-2.85371c-1.65397,-2.13306 -1.84061,-4.98071 -1.3311,-7.62191c0.00114,-0.03588 0.00336,-0.07147 0.00665,-0.10678c-0.03192,-2.85731 2.60286,-9.09508 3.62583,-10.28854c3.42987,-4.0015 9.80287,-3.69821 13.78039,-6.87145c2.49955,-1.99413 3.12494,-5.73576 4.84278,-8.4352c1.27306,-2.00051 5.80427,-4.27684 8.04136,-4.83611c0.82083,-0.20521 2.26427,-0.38781 3.11943,-0.39498c4.01943,-0.03373 7.0564,1.06464 10.86929,1.38757c0.76387,0.06469 1.61654,0.42095 1.95462,1.10281c1.55001,0.78876 3.14895,1.98813 3.68161,2.22385c4.83047,2.13767 10.75778,4.44197 14.9831,7.7183c1.76169,1.36603 2.83244,3.26015 4.40341,4.70266c1.65462,1.51933 3.14111,3.47571 5.05939,4.89699c2.74445,2.03341 6.12162,3.56871 9.16125,5.18985c3.48679,1.85962 6.70497,5.25132 9.61714,7.96939c1.82568,1.70401 4.3176,2.54989 6.47384,3.77629c0.39685,0.22572 1.23055,0.61234 1.71522,1.10791c1.59499,0.42792 3.28354,1.62671 4.38107,2.72424c3.1005,3.1005 5.36297,6.89995 8.47006,10.10417c2.65217,2.73508 5.68937,5.05885 8.17251,7.94124c0.71542,0.83046 4.48213,3.70373 5.81873,5.60341c1.55871,0.96643 3.29882,3.1088 4.05428,3.99016c2.61161,3.04687 4.74259,5.80843 8.12971,8.1008c3.04304,2.05949 6.80628,3.03022 9.61984,5.44185c2.62238,2.24777 4.80245,5.18015 7.46129,7.47658c2.24779,1.9414 5.32439,3.97197 7.15456,6.27714c0.3588,0.45193 0.84593,0.96251 1.09436,1.51677c1.92475,2.00092 4.67076,5.82854 4.911,6.78951c1.01661,4.06642 -1.90681,9.63825 -4.98322,12.39435c-3.41035,3.05526 -9.32406,1.34493 -13.10887,-0.22531c-3.39419,-1.40817 -7.04965,-1.60459 -10.45906,-2.82224c-1.77065,-0.63237 -3.53168,-2.01172 -5.28842,-2.77193c-2.76039,-1.19452 -5.27104,-1.47572 -7.67122,-3.78893c-1.76329,-1.6994 -2.91806,-5.23834 -4.18682,-7.56421c-0.88866,-1.62909 -5.03221,-4.71706 -5.84928,-6.76197c-1.10569,-0.90386 -2.00596,-2.7806 -2.76914,-3.61694c-2.05686,-2.25408 -5.53109,-3.70401 -8.04519,-5.26986c-0.04943,1.23267 -0.14279,2.40638 -0.12755,3.2169c0.12766,6.79557 0.0108,13.40402 0.0108,20.18863c0,1.2474 -0.64434,3.29011 -1.58212,4.55095c-0.51494,2.11316 -3.36629,6.85144 -4.28246,7.96899c-5.14389,6.27454 -10.04583,5.25217 -17.20696,4.5876c-2.33838,-0.21701 -7.73187,-2.75552 -8.32337,-5.1215c-0.87691,-3.50768 -1.8774,-6.91217 -0.88624,-10.72456c0.97438,-3.74788 3.65137,-6.99642 4.98148,-10.68235c0.32181,-0.89181 0.47287,-2.99333 1.05628,-4.47997c-0.3415,-3.03657 0.28187,-7.86177 -4.23131,-7.17548c-0.46324,0.07044 -0.72206,2.56534 -0.82389,2.97266c-0.34994,1.39974 -0.52028,5.53168 -1.37314,7.90393c0.64873,2.53507 -0.18127,6.10965 -0.17822,8.23063c0.00613,4.25247 -2.16056,10.71296 -3.56689,14.70988c-0.57026,1.62074 -1.49787,3.73289 -3.31315,4.38119c-1.59292,0.56891 -3.3427,1.68148 -5.02994,1.83564c-1.30735,0.11946 -2.00957,-0.44329 -3.13152,-0.46252c-1.4379,-0.02464 -3.71252,0.82777 -4.20925,-0.56669c-3.02853,-1.00548 -6.99711,-3.42104 -7.34434,-4.98359c-0.5184,-2.33279 -0.02206,-4.77951 0,-7.16911c0.01765,-1.91326 2.36999,-4.18169 3.43102,-5.65265c1.43011,-1.98262 1.08235,-5.07052 1.63776,-7.33774c0.24974,-1.01945 -0.11284,-3.69681 0.57594,-4.40522c-0.00337,-0.61701 0.05911,-1.23278 0.02119,-1.53098c-0.41659,-3.27494 -0.85959,-5.19188 -0.80942,-9.08176c0.03258,-2.52564 1.24022,-4.95017 1.27194,-7.49827c0.0049,-0.39337 -0.66714,-3.84686 0.19412,-5.59867c-0.19596,-4.57658 -0.52868,-5.86115 -2.49421,-9.64508c-0.69223,-1.33266 -4.83351,-3.78965 -6.2111,-4.95209c-0.15382,-0.12979 -0.29374,-0.28523 -0.4136,-0.45758c-0.99375,-0.57971 -2.21272,-1.46311 -2.43287,-1.58562c-2.66456,-1.48292 -9.79094,-6.65782 -11.72301,-8.73615c-1.29059,-1.3883 -1.28623,-3.85367 -2.6537,-4.96632c-2.18058,-1.77422 -3.80154,-1.85595 -6.59396,-2.01257c-1.78781,1.0602 -6.66078,0.06927 -7.61385,0.07368z" fill="#000000" stroke-width="0.5"/><g stroke-width="0"><path d="M193.11798,128.84467c0,4.14959 -2.38603,7.5135 -5.32934,7.5135c-2.94331,0 -5.32934,-3.3639 -5.32934,-7.5135c0,-4.14959 2.38603,-7.5135 5.32934,-7.5135c2.94331,0 5.32934,3.3639 5.32934,7.5135z" fill="#ffffff"/><path d="M190.13256,130.26522c0,2.51055 -1.0812,4.54576 -2.41493,4.54576c-1.33374,0 -2.41493,-2.03521 -2.41493,-4.54576c0,-2.51055 1.0812,-4.54576 2.41493,-4.54576c1.33374,0 2.41493,2.03521 2.41493,4.54576z" fill="#000000"/></g></g></g></g></svg>